<?xml version="1.0" encoding="utf-8"?>
<!-- Generator: Adobe Illustrator 26.4.1, SVG Export Plug-In . SVG Version: 6.00 Build 0)  -->
<svg version="1.1"
	 xmlns:cc="http://creativecommons.org/ns#" xmlns:sodipodi="http://sodipodi.sourceforge.net/DTD/sodipodi-0.dtd" xmlns:inkscape="http://www.inkscape.org/namespaces/inkscape" xmlns:dc="http://purl.org/dc/elements/1.1/" xmlns:rdf="http://www.w3.org/1999/02/22-rdf-syntax-ns#" xmlns:svg="http://www.w3.org/2000/svg" inkscape:output_extension="org.inkscape.output.svg.inkscape" inkscape:version="0.46" sodipodi:docname="Gadsden_flag.svg" sodipodi:version="0.32"
	 xmlns="http://www.w3.org/2000/svg" xmlns:xlink="http://www.w3.org/1999/xlink" x="0px" y="0px" viewBox="0 0 5184 3456"
	 style="enable-background:new 0 0 5184 3456;" xml:space="preserve">
<style type="text/css">
	.st0{fill:#F4DB09;}
	.st1{fill:#2C4933;}
	.st2{fill:#173421;}
	.st3{fill:#1E411E;}
	.st4{fill:#FFFFFF;}
	.st5{fill:#F47820;}
</style>
<rect id="bg" x="0" class="st0" width="5184" height="3456"/>
<g id="bobsnake">
	<path id="path6091" class="st1" d="M2593.2,2283.9c-2.1,1-12,13.5-22.9,30.2c-15.6,22.9-24.5,31.8-31.8,32.8
		c-5.7,0.5-12,3.1-14.1,5.2c-6.8,6.8-9.9,4.2-13-11.5c-1.6-8.3-4.7-18.8-6.8-23.4c-6.8-13.5-24-34.9-26.6-32.8c-1,1,0,4.7,2.6,7.8
		c6.3,7.8,4.2,47.9-2.6,50c-2.6,1-5.2-1-5.2-4.2c0-3.1-2.6-8.3-6.3-10.9c-5.2-4.2-6.3-3.6-6.3,1.6c0,3.6-2.6,6.8-6.3,6.8
		c-3.6,0-6.3-3.6-6.3-9.4c0-13-7.8-20.3-15.1-14.1c-4.2,3.6-8.9,1-21.4-10.9c-16.7-16.7-18.2-15.6-12.5,5.2
		c3.1,10.9,2.6,14.1-3.6,17.2c-9.9,5.2-12,5.2-12-1.6c0-4.2-28.1-26.6-33.9-26.6c-0.5,0-0.5,5.2,0.5,11.5
		c2.6,17.2-5.7,19.3-20.3,5.7l-12.5-11.5l2.6,13l2.6,13l-12-6.3c-16.1-8.3-17.2-7.8-15.6,7.3c1,11.5,4.2,14.6,25.5,26
		c41.2,22.4,111,42.7,162,47.9l23.4,2.6l4.7,0.5c76.6,5.2,158.9-2.1,226.1-41.7c-3.1,0-4.2-3.1-2.6-6.8c2.1-5.7,0.5-6.3-9.9-4.2
		c-17.7,3.6-19.8-2.6-7.3-21.9l10.4-16.1l-28.1,14.1c-15.6,7.8-29.7,14.1-31.8,13.5c-1.6-0.5-7.3,0.5-12.5,2.6
		c-5.2,1.6-10.4,2.6-11.5,1c-3.1-3.1,12.5-31.8,25.5-47.9c13-16.1,6.8-11.5-29.7,19.3c-22.4,19.3-40.1,29.7-50.5,29.7
		c-5.2,0-4.7-30.7,0-48.4C2593.2,2291.7,2594.3,2284.9,2593.2,2283.9L2593.2,2283.9z"/>
	<path id="path6089" class="st2" d="M2634.9,2345.8c4.2,0,4.7-1,0,15.6c-3.6,12-3.1,13,3.1,10.4c24.5-9.9,17.7,5.2-20.3,19.8
		c0.5-1,1-2.6,1-4.2C2618.8,2375.5,2630.2,2345.8,2634.9,2345.8z"/>
	<path id="path3164" class="st2" d="M2554.7,2354.7c1.6,0,2.6,0,4.2,0l15.1,0.5l-10.9,19.3c-8.3,15.1-10.9,17.7-12.5,11.5
		c-2.1-7.3-2.6-6.8-13,2.1c-4.2,3.6-11.5,5.7-16.7,7.8l-7.8-9.4c-6.3-7.3-10.9-17.2-10.9-21.9c0-7.3,1-6.8,7.3,4.2l7.3,13l13.5-14.1
		C2540.1,2358.4,2545.3,2355.2,2554.7,2354.7z"/>
	<path id="path9992" class="st1" d="M2031.1,2317.7c-2.6,0-5.2,13.5-9.4,40.6c-4.2,27.1-8.9,52.1-10.4,55.2
		c-2.1,4.2-6.3,0-13.5-15.1c-5.7-11.5-14.1-26.6-18.2-33.9l-7.8-12.5l-3.6,21.4l-3.6,21.4l-16.2-21.9l-16.1-21.9l-2.1,17.7
		l-2.1,17.7l-17.7-14.6c-9.9-8.3-18.2-14.6-18.8-14.6s1.6,8.3,4.2,18.8c9.9,32.8,8.3,37-9.9,20.3c-8.9-7.8-19.8-16.1-24.5-18.8
		c-7.8-4.2-8.3-3.6-6.3,5.7c1.6,5.7,1.6,10.4,0,10.4c-1.6,0-13.5-10.4-26.6-22.9c-25.5-24.5-26.6-24-19.8,10.9
		c2.1,12,3.6,21.9,3.1,22.9c-0.5,0.5-10.4-1.6-21.4-4.7c-10.9-3.1-27.1-7.8-35.4-9.4l-15.6-3.6l10.4,10.9c5.7,6.3,10.4,12,10.4,13.5
		c0,1.6-16.1-2.1-35.4-7.3c-42.7-12-42.7-12-37.5-2.1c4.7,8.9,3.6,9.9-14.1,14.1l-12,3.1l20.3,7.8c29.7,12,31.3,15.6,5.7,15.6
		c-22.9,0-59.9,13.5-48.4,17.2c3.1,1,22.4,4.2,42.7,6.8c20.3,2.6,45.3,6.8,56.8,9.4l20.3,4.7l-19.3,1c-10.4,0.5-19.3,3.1-19.3,5.7
		c0,4.2-8.3,3.1-29.2-3.1c-4.7-1.6-7.3,0-7.3,4.2c0,5.7-3.6,6.3-26.6,3.6c-26-2.6-26.6-2.6-24,5.7c3.1,9.9,3.6,9.9-28.1,4.7
		c-13-2.1-30.2-5.2-38-6.3l-14.1-2.1l11.5,12l11.5,12l-15.6,4.2l-15.6,4.2l12,4.7c15.6,6.3,44.3,11.5,87,15.6l34.4,3.1l-14.1,6.8
		l-14.1,6.3l14.6,0.5c7.8,0,34.4-3.1,58.9-7.8c59.9-10.9,70.3-10.4,44.3,2.1c-25.5,12-19.3,12,34.4,0c23.4-5.2,43.2-8.9,44.3-8.3
		c1,1-1,4.2-3.6,7.8c-4.2,5.2-4.2,5.7,0.5,4.2c12-4.2,77.6-22.4,81.3-22.4c8.3,0,2.1,7.8-15.6,19.8c-10.4,6.8-16.7,12.5-14.1,12.5
		c10.9,0,85.4-25.5,104.2-36.5c10.9-6.3,25.5-12.5,32.3-14.1c6.8-1.6,15.1-3.6,19.3-4.7c5.2-1.6,7.3,0,7.3,6.3
		c0,4.7,0.5,8.3,1.6,8.3c1,0,16.1-2.6,33.3-6.3c35.9-6.8,45.8-7.3,45.8-3.1c0,5.2-24.5,17.7-54.2,27.6l-28.7,9.4l24-2.6
		c13-1.6,53.1-8.3,89.1-15.6s65.6-12.5,66.2-12c1,0.5-4.7,4.7-12,9.4l-13.5,8.3l32.3,1c34.9,1.6,34.9,0.5-4.2,17.7
		c-8.9,3.6-14.1,7.8-10.9,8.9c4.7,1.6,37.5-3.1,69.8-9.4c9.4-2.1,8.9-1-4.2,10.4c-14.1,12-14.1,12.5-4.2,12.5
		c5.7,0,24.5-2.6,41.7-5.7c41.2-7.8,59.4-7.8,59.4,0c0,3.1-5.2,8.3-10.9,12c-13.5,7.3-8.9,7.8,26.6,1.6c15.1-2.6,30.7-3.6,34.9-2.1
		c6.8,2.6,6.8,3.6,0.5,12.5l-6.3,9.9l19.3-5.7c10.4-3.1,19.8-5.7,20.3-5.7s1,3.6,1,8.3c0,10.4,0.5,10.4,26.6-6.3
		c25.5-16.1,30.2-17.2,30.2-6.3c0,9.9,0,9.4,14.6,2.1c6.3-3.1,13-4.7,14.6-3.6c7.3,4.7,2.1,14.1-17.7,31.3
		c-17.2,15.1-19.8,18.8-12.5,18.8c15.6,0,60.4-15.6,68.2-24c4.2-4.7,10.9-8.3,15.1-8.3c4.2,0,14.1-4.2,21.9-8.9
		c19.3-12,27.1-7.8,24,11.5l-2.6,15.1l9.4-10.4c5.2-5.7,12.5-14.6,16.1-20.3l6.8-9.9v9.9v9.9l9.9-9.4c10.4-9.9,18.2-8.3,18.2,3.1
		c0,5.2,1.6,4.7,6.3-2.1c6.3-8.9,6.8-8.9,17.2-2.1c10.4,6.8,10.4,6.8,7.8,0c-3.1-8.9,4.2-9.4,15.1-1c5.7,4.2,9.4,4.7,13,1.6
		c3.6-3.1,9.9-3.1,19.8,0c9.9,2.6,14.6,2.6,14.6,0c0-4.2,23.4-2.1,47.4,3.6c7.3,1.6,8.9,1,6.3-4.7c-2.6-6.3-0.5-6.8,17.2-4.2
		c10.9,1.6,23.4,3.6,28.1,5.2c7.3,2.1,7.3,1.6,2.1-4.7c-5.7-6.8-5.2-6.8,2.6-4.7c8.3,2.6,68.8,14.6,74,14.6c1.6,0-4.2-5.2-13-10.9
		c-18.2-13-14.1-15.1,19.3-9.9c20.3,3.1,23.4,2.6,27.1-3.6c3.6-7.3,4.7-6.8,22.9,0.5c14.1,5.7,19.8,6.8,21.9,3.1
		c2.1-3.1,9.9-0.5,26,8.9c21.4,12,22.9,12.5,20.3,4.7c-3.1-9.9,2.6-11.5,9.9-2.6c3.6,4.7,6.8,4.7,10.4,1.6c3.1-2.6,9.4-3.1,14.1-1.6
		c5.7,1.6,9.9,1,12-2.6c2.6-4.2,6.3-3.1,15.1,5.7c7.8,7.8,12.5,9.4,13.5,6.3c1.6-4.2,5.7-3.6,18.8,1.6c21.4,8.3,22.4,8.3,19.8-1
		c-2.6-9.4,0-9.9,15.1-4.2c7.3,2.6,13,2.6,18.2-1c6.3-3.6,8.9-3.6,13,0c6.8,6.8,11.5,6.3,11.5-1c0-4.7,2.1-5.2,10.9-1.6
		c7.3,2.6,11.5,2.6,13.5,0c4.2-6.3,88.6-7.3,92.2-1c7.8,12.5,55.7,24,51.1,12.5c-2.6-7.3,58.9-22.9,85.4-21.9
		c15.6,0.5,25-2.1,39.6-10.4c10.4-6.3,18.8-11.5,18.8-12.5c0-1-6.8,1-15.1,4.2c-10.4,3.6-34.4,5.2-74,5.2h-58.9l30.2-5.7
		c16.7-3.1,41.2-9.4,54.7-14.1c25.5-9.4,71.9-32.3,69.8-34.9c-1-1-27.1,4.2-58.9,10.9c-31.8,6.8-61.5,12-66.2,12
		c-5.7,0,5.2-8.3,32.3-25c22.9-13.5,41.2-25.5,40.1-26c-0.5-0.5-14.1,2.1-29.7,6.8c-42.2,12-46.4,9.9-19.3-7.8
		c21.9-14.6,42.2-32.3,37-32.3c-1,0-20.8,5.7-43.8,12.5c-22.9,6.8-42.2,11.5-43.2,10.4s1-6.8,4.7-12.5c8.3-13,6.3-13-12.5,0
		c-8.3,5.7-17.2,9.9-20.3,9.9c-3.1,0-16.7,5.7-30.2,12.5c-53.7,13.5-107.8,20.8-162.5,19.3c-21.4-1.6-57.8-22.9-69.8-24.5
		c-1-4.7-20.3,4.7-24,4.7c-3.6,0-9.9-4.2-14.1-8.9l-7.3-8.9l-12.5,8.9c-15.6,11.5-16.1,10.9-19.3-3.6l-2.6-12.5l-7.3,12
		c-10.9,17.7-16.1,19.3-16.1,5.7c0-6.3-3.1-21.4-6.3-33.3l-6.3-21.9l-9.9,19.8c-5.7,10.9-12.5,22.4-15.6,26
		c-5.2,5.2-5.7,4.7-5.7-3.1s-1.6-8.9-10.9-6.3s-10.4,1.6-7.8-5.2c1.6-4.2,6.3-16.1,10.4-26.6l7.8-18.8l-26.6,18.2
		c-14.6,10.4-27.6,17.7-28.7,16.7c-1-1,0-7.3,2.6-13c3.6-9.4-0.5-6.8-22.9,14.1l-108.9,61L2749,2549c-9.9,5.7-27.1,15.6-40.1,18.8
		c-26.6,5.7-52.1,7.3-128.7,6.8c-85.4,0-101.6-1-159.4-11.5c-35.4-6.3-81.3-15.6-102.1-20.8c-88.6-22.4-177.1-79.7-216.2-140.7
		c-14.6-22.9-15.1-22.9-22.4-15.1s-7.3,7.8-18.8-3.1c-10.9-10.4-11.5-10.4-11.5-2.1c0,4.7-1.6,9.4-3.6,10.9
		c-2.1,1-4.7-13.5-6.3-33.3C2035.3,2331.8,2033.7,2317.7,2031.1,2317.7z"/>
	<path id="path9990" class="st2" d="M2816.7,2525.1c-11.5,10.4-26,27.6-37,38.6c-15.1,14.6-28.7,25-30.2,23.4s7.3-12,19.3-22.4
		c8.3-7.3,18.8-21.9,24.5-30.7L2816.7,2525.1z"/>
	<path id="path4143" class="st2" d="M2777.7,2539.1c-10.9,10.4-24,24-32.3,33.3c-9.4,9.9-18.2,16.7-20.3,15.1
		c-2.1-2.1,3.6-9.9,12.5-17.7c6.3-5.7,14.1-13.5,16.7-18.8L2777.7,2539.1z"/>
	<path id="path3162" class="st2" d="M3211.1,2508.9l2.1,13v10.4l12-7.3c4.2-2.6,14.1,0.5,16.1-1.6c23.4,0.5,83.4-8.3,95.3-8.3
		l16.1,0.5l-17.2,8.9c-9.4,4.7-17.2,9.9-17.2,12s17.2,3.1,38.6,3.1c21.4,0,38.6,1.6,38.6,3.6c0,2.1-8.3,5.7-18.2,8.9
		c-9.9,2.6-18.2,6.3-18.2,8.3c0,1.6,8.9,4.7,19.3,7.3c17.7,3.6,16.1,4.2-21.4,4.2l-40.6,0.5l9.9-8.3l9.9-8.3l-9.9,2.1
		c-5.7,1-19.8,3.6-31.8,5.2l-21.9,2.6l6.8-9.4c7.3-9.9,8.9-17.7,3.6-14.1c-1.6,1-12.5,5.7-23.4,9.9l-20.3,8.3l2.1-10.4l2.1-9.9
		l-17.2,8.9c-12.5,6.3-18.2,7.3-20.3,4.2s-4.7-2.1-9.4,4.2l-6.3,8.9l-3.1-8.9c-2.6-8.3-3.1-8.3-6.8-2.1c-3.6,6.8-4.2,6.8-9.4-0.5
		s-5.7-7.3-5.7,0.5c0,7.3-0.5,7.3-8.3,0.5c-7.8-7.3-8.3-7.3-8.3,3.1v10.9l-34.4-17.2c-18.8-9.4-33.9-17.7-33.3-18.2
		c0.5-0.5,10.9,1.6,22.9,4.7c29.7,7.8,29.7,7.8,26.6-6.8c-2.6-13-1-13.5,18.8-5.7c5.2,2.1,7.3,1,7.3-5.7c0-10.9,6.8-10.9,12.5,0.5
		c4.7,8.9,4.7,8.9,7.8,1c0.5-2.1,1.6-7.3,1.6-8.9c7.8-1,7.3,5.7,10.4,12c4.7,8.3,4.7,8.3,14.1-2.6L3211.1,2508.9z"/>
	<path id="path3160" class="st2" d="M2384.8,2343.8l14.1,13.5l14.1,13.5l1.6-11.5c1-10.9,1.6-9.9,8.3,7.8
		c4.7,13.5,5.2,19.3,2.1,19.3c-8.3,0-27.1-16.7-33.9-29.7L2384.8,2343.8z"/>
	<path id="path3158" class="st2" d="M2594.8,2357.3c1,0,1.6,1,1.6,3.1c0,5.2-9.9,20.8-19.3,31.3c-10.4,11.5-19.8,15.1-14.1,5.7
		C2578.6,2371.4,2591.1,2356.8,2594.8,2357.3z"/>
	<path id="path3156" class="st2" d="M2451.5,2357.8L2451.5,2357.8c1.6,1,4.2,8.9,6.8,17.2c3.6,14.1,3.6,19.3-0.5,12
		C2454.7,2382.8,2450,2358.9,2451.5,2357.8z"/>
	<path id="path3154" class="st2" d="M2435.4,2358.4c0.5,0,1.6,1,3.1,2.1c2.6,2.6,4.2,9.9,3.1,16.1c-1,8.3-2.1,8.9-2.1,2.6
		c-0.5-4.7-2.1-12-3.1-16.1C2434.3,2359.9,2434.3,2358.4,2435.4,2358.4z"/>
	<path id="path3152" class="st2" d="M2041,2431.8c2.6,0,8.9,2.6,21.9,9.4c21.4,10.9,24,11.5,25.5,4.7c3.1-12,27.1-7.8,55.2,8.9
		c13.5,8.3,25,16.7,25,18.8c0,5.7-12.5,4.2-24.5-2.1c-13-7.3-16.1-7.3-16.1,0c0,3.6-2.1,5.2-6.3,3.6c-3.6-1.6-7.8,0-9.4,2.6
		c-2.6,4.2-8.3,3.1-26-3.6c-26-9.9-28.1-9.9-24.5-4.2c3.6,5.7,0.5,5.2-31.3-4.2c-31.3-9.4-37.5-7.8-22.9,4.2l9.9,7.8l-16.1-3.6
		c-22.9-5.2-24.5-4.7-16.7,4.2c6.8,7.8,6.3,7.8-32.8,5.2c-36.5-2.1-39.6-2.1-34.4,4.2c4.7,5.7,3.1,7.3-13,11.5
		c-15.1,3.6-17.7,5.7-14.1,10.4c3.6,4.7,2.1,5.7-8.9,5.7c-7.3,0-26,1-41.2,2.6c-15.1,1.6-27.1,1.6-27.1,0c0-1.6,9.9-5.7,22.4-9.4
		c12.5-3.6,22.4-8.3,22.4-9.4c0-1.6-4.2-4.7-8.9-7.3c-8.3-3.6-7.3-4.7,8.9-4.7h17.7l-20.8-21.9c-11.5-12-20.8-24-20.8-26.6
		c0-2.1,12,2.6,26.6,10.4c33.9,18.2,60.4,26.6,77.6,23.4c18.2-3.6,16.7-8.9-3.6-12.5c-15.1-2.6-16.1-3.1-7.3-5.7
		c5.7-1.6,16.1-3.1,23.4-3.1c10.9-0.5,13-1.6,10.9-6.8c-2.1-5.7,1-6.3,29.2-3.6c17.2,1.6,35.4,3.6,40.6,5.2c7.3,1.6,8.9,0.5,8.9-6.3
		C2038.9,2434.4,2038.9,2432.3,2041,2431.8z"/>
	<path id="path3150" class="st2" d="M2913.1,2489.1c1,0,0.5,1-0.5,2.6c-5.2,6.3-4.2,6.8,10.9,6.8c11.5,0,17.2,2.1,18.8,6.8
		c2.1,5.2,5.7,6.3,16.7,4.2c8.3-1.6,13.5-1,12,1.6c-1,2.1,0,3.6,3.1,4.2c3.1,0,12.5,3.1,21.4,7.3l16.1,7.3l-26.6-1.6
		c-18.8-1-33.3,0.5-48.4,5.2c-12,4.2-24,7.8-27.1,8.9c-4.7,1.6-4.7,0.5-1-6.8c4.2-8.3,3.6-8.9-10.4-8.9c-12,0-14.1-1-9.4-4.2
		c5.7-4.2,2.6-3.6-32.3,3.1c-9.9,2.1-6.3-0.5,44.3-30.2C2907.4,2491.2,2911.5,2489.1,2913.1,2489.1z"/>
	<path id="path2212" class="st3" d="M3280.4,2515.2c-6.3,0-12.5,0-17.2,0.5c-9.4,1-1.6,1.6,17.2,1.6c18.8,0,26.6-0.5,17.2-1.6
		C3292.9,2515.2,3286.6,2515.2,3280.4,2515.2z"/>
	<g>
		<path d="M2580.7,1551.4c2.6,0,3.1-1.6,1.6-4.2c-1.6-2.6-3.1-4.2-4.2-4.2s-2.1,1.6-2.1,4.2
			C2576,1549.3,2578.1,1551.4,2580.7,1551.4z"/>
		<path d="M2556.2,1563.9c7.8,5.2,12,4.7,12,0c0-4.2-6.3-7.8-11.5-7.8c-1.6,0-3.1,0.5-4.2,1
			C2551.6,1558.7,2552.6,1561.8,2556.2,1563.9z"/>
		<path d="M2484.9,2061.4c1.6-2.1-0.5-4.2-3.6-4.2c-3.6,0-6.3,1.6-6.3,4.2C2475,2066.6,2481.7,2066.6,2484.9,2061.4z"/>
		<path d="M2507.3,2055.1c5.2-3.1,5.2-9.9,0-9.9c-2.1,0-4.2,2.6-4.2,6.3C2503.1,2054.6,2505.2,2056.7,2507.3,2055.1z"/>
		<circle cx="2450.5" cy="2069.7" r="4.2"/>
		<path d="M2562.5,1592.5c-0.5,0-1,0.5-1,0.5c-1,1-1,4.2,0.5,6.3c3.1,5.2,10.4,5.7,10.4,0.5c0-3.6-4.7-7.3-8.3-7.8
			C2563.5,1592,2563,1592,2562.5,1592.5z"/>
		<path d="M2507.3,2069.7c0,2.1,1.6,4.2,4.2,4.2c2.1,0,4.2-2.6,4.2-6.3c0-2.6-1-4.2-2.6-4.2c-0.5,0-1,0-1.6,0.5
			C2509.4,2065,2507.3,2067.7,2507.3,2069.7z"/>
		<path d="M2615.1,1587.8c3.6,0,5.2-1.6,3.6-4.2s-4.2-4.2-6.3-4.2c-2.1,0-4.2,1.6-4.2,4.2
			C2608.3,1585.8,2611.5,1587.8,2615.1,1587.8z"/>
		<path d="M2483.3,2076c0,3.1,4.2,5.7,9.9,5.7c13,0,13-6.8,0-8.9c-2.6-0.5-4.7-0.5-6.3-0.5C2484.4,2072.3,2483.3,2073.9,2483.3,2076
			z"/>
		<path d="M2579.7,1582.1c-5.7,3.6-4.2,8.9,3.6,10.9c9.9,2.1,10.9,0.5,5.2-6.8c-2.6-3.1-5.7-4.7-7.8-4.2
			C2580.2,1581.6,2580.2,1581.6,2579.7,1582.1z"/>
		<path d="M2612.5,1604c0-4.2-4.2-7.3-7.3-6.8c-1,0-2.1,0.5-2.6,1.6c-1,2.1-1,4.7,0.5,6.3C2607.3,1609.2,2612.5,1608.7,2612.5,1604z
			"/>
		<path d="M2886.5,1807.2c1-3.1,1-6.3,0-7.8c-0.5-0.5-0.5-0.5-1,0c-1,0.5-1,2.6-1,5.7C2884.5,1809.3,2885.5,1810.3,2886.5,1807.2z"
			/>
		<path d="M2920.4,1782.2c2.1,0,4.2-2.6,4.2-6.3c0-2.6-1-4.2-2.6-4.2c-0.5,0-1,0-1.6,0.5c-2.1,1.6-4.2,4.2-4.2,6.3
			C2916.2,1780.1,2917.8,1782.2,2920.4,1782.2z"/>
		<path d="M2892.3,1787.9c2.1-1.6,3.1-4.2,1.6-6.3c-1-2.1-2.6-3.1-3.6-3.6h-0.5c-1,0-2.1,2.1-2.1,6.3
			C2888.1,1787.9,2889.7,1789.5,2892.3,1787.9z"/>
		<circle cx="2920.4" cy="1753.5" r="4.2"/>
		<path d="M2944.4,1788.4c0-8.3-4.7-18.2-8.3-18.2c-4.7,0-8.3,11.5-5.2,18.2C2933.9,1795.7,2944.4,1796.2,2944.4,1788.4z"/>
		<path d="M2865.2,1779.6c2.6-6.3,1.6-8.9-2.1-8.9c-1.6,0-3.1,0.5-5.2,1.6c-3.6,1.6-6.8,5.2-6.8,8.3
			C2851.6,1788.4,2862,1787.4,2865.2,1779.6z"/>
		<path d="M2878.7,1790.5c1.6-4.2-0.5-8.3-3.1-8.9c-1,0-1.6,0-2.6,1c-1.6,1.6-1,4.7,0.5,7.8
			C2876.6,1794.7,2877.7,1794.7,2878.7,1790.5z"/>
		<ellipse cx="2859.4" cy="2217.2" rx="4.2" ry="6.3"/>
		<path d="M2860.5,1799.4c-0.5,0-0.5,0-1,0c-2.6,0-4.2,3.1-4.2,9.4c0,6.8,2.1,10.4,5.2,8.9
			C2867.3,1815.5,2867.3,1801.4,2860.5,1799.4z"/>
		<path d="M2761.5,1750.4c1-2.6-1-4.7-4.7-4.7s-6.3-2.1-6.3-4.7c0-2.1-0.5-2.6-1-2.6s-2.1,1-3.6,2.6c-3.6,3.6-3.1,6.3,0.5,10.9
			C2752.1,1758.7,2758.9,1758.2,2761.5,1750.4z"/>
		<path d="M2772.4,1738.9c3.6-1.6,6.3-5.2,6.3-8.3c0-3.1-1-4.2-3.6-4.2c-1,0-1.6,0-2.6,0.5c-3.6,1.6-7.3,2.6-8.3,2.6
			s-1.6,2.6-1.6,6.3C2762.5,1742.6,2763.1,1742.6,2772.4,1738.9z"/>
		<ellipse cx="2744.3" cy="1770.2" rx="6.3" ry="4.2"/>
		<path d="M2863.6,1960.3c-2.1,0-3.6,5.2-3.6,10.9c0,9.9,0.5,10.4,3.6,3.1C2868.3,1963.5,2868.3,1960.3,2863.6,1960.3z"/>
		<path d="M2840.7,1960.3c-7.8,0-17.7,5.7-17.7,13.5c0,2.1,2.1,2.1,4.7-0.5c3.6-3.6,6.3-3.6,10.4,0c6.8,5.2,15.6-1.6,11.5-8.3
			C2848,1961.4,2844.3,1960.3,2840.7,1960.3z"/>
		<path d="M2882.9,1954.6c2.6-2.6-3.1-10.4-7.8-10.4c-0.5,0-0.5,0-0.5,0c-1.6,0.5-1,2.6,1.6,6.3
			C2878.7,1953.6,2881.8,1955.6,2882.9,1954.6z"/>
		<path d="M2883.9,1968.1c-2.1,0-4.2,1.6-4.2,4.2s1.6,3.1,4.2,2.1C2889.1,1971.3,2889.1,1968.1,2883.9,1968.1z"/>
		<path d="M2904.8,2130.2c1.6-4.7,4.7-7.3,6.8-6.3c4.2,2.6,10.4-13,6.8-16.7c-0.5-0.5-1-0.5-1.6-0.5c-2.6,0-6.8,2.1-10.9,4.7
			c-9.9,6.3-13.5,18.2-7.3,24.5C2900.6,2137.5,2903.2,2134.9,2904.8,2130.2z"/>
		<path d="M2357.8,2092.1c0,3.6,1.6,5.2,4.2,4.2c5.2-3.1,5.2-9.9,0-9.9C2359.3,2085.9,2357.8,2088.5,2357.8,2092.1z"/>
		<path d="M2549.5,1577.9c8.9,6.8,14.6,7.8,14.6,2.1c0-3.6-9.9-8.3-17.7-8.3C2543.7,1571.7,2545.3,1574.3,2549.5,1577.9z"/>
		<path d="M2373.9,2075.5c2.1-1.6,3.1-4.2,1.6-6.3c-1-2.1-2.6-3.1-3.6-3.6h-0.5c-1,0-2.1,2.1-2.1,6.3
			C2369.7,2074.9,2371.8,2077,2373.9,2075.5z"/>
		<path d="M2910.5,2152c-1.6-3.6-2.6-7.3-2.6-8.3c0-0.5-0.5-0.5-1-0.5s-1.6,0.5-3.1,1c-2.1,1.6-4.2,5.2-4.2,8.3
			c0,3.1,3.1,5.7,6.8,5.7C2911,2158.3,2912.1,2156.2,2910.5,2152z"/>
		<path d="M2426.5,1800.4c-0.5-0.5-1-0.5-1.6-0.5c-4.2-0.5-7.3,5.7-4.7,10.4c1.6,2.1,4.2,4.2,6.3,4.2
			C2431.7,1814.5,2431.7,1803.5,2426.5,1800.4z"/>
		<path d="M2922.5,2162.5c1.6,2.1,5.7,1,10.4-3.1c7.8-6.8,9.4-10.4,5.7-10.9c-1.6,0-3.1,0-5.7,0.5
			C2923,2151.5,2918.8,2156.7,2922.5,2162.5z"/>
		<path d="M2914.7,2142.7c1,2.1,3.6,3.6,5.7,3.6c4.2,0,9.4-12.5,6.3-15.6c-0.5-0.5-1-0.5-1.6-0.5
			C2920.9,2130.7,2912.6,2139,2914.7,2142.7z"/>
		<path d="M2458.8,1751.9c5.2-3.1,5.2-9.9,0-9.9c-2.1,0-4.2,2.6-4.2,6.3C2454.7,1751.4,2456.7,1753,2458.8,1751.9z"/>
		<path d="M2350.5,2045.3c-1.6,0.5-3.6,2.1-4.2,4.7c-1,2.6,0.5,3.6,3.1,3.1c2.6-1,4.7-3.1,4.7-4.7
			C2353.6,2045.8,2352,2044.7,2350.5,2045.3z"/>
		<path d="M2400.5,1790c-7.3,0-12,6.8-8.9,14.1c3.6,9.9,14.6,6.8,14.6-4.2C2406.2,1794.1,2404.1,1790,2400.5,1790z"/>
		<path d="M2442.7,1743.6c0-3.1-1.6-6.3-3.6-6.3c-5.2,0-8.9,6.3-5.7,9.4C2438,1751.4,2442.7,1749.9,2442.7,1743.6z"/>
		<path d="M2363,2168.7c-1-3.1-3.1-4.7-5.2-4.2c-0.5,0-0.5,0-1,0.5c-2.1,1-2.6,4.2-1,6.3C2359.8,2177.1,2365.6,2175.5,2363,2168.7z"
			/>
		<path d="M2359.3,2069.2c-1-2.1-2.6-3.1-3.6-3.6h-0.5c-1,0-2.1,2.1-2.1,6.3c0,3.6,2.1,5.2,4.2,3.6
			C2359.8,2073.9,2360.9,2071.3,2359.3,2069.2z"/>
		<circle cx="2774.5" cy="2093.7" r="4.2"/>
		<path d="M2404.6,1191.4c-0.5-9.9-4.2-15.1-7.8-15.1c-2.6,0-5.2,3.1-6.3,10.4c-0.5,5.7-3.1,12-5.2,14.6c-2.6,3.1-2.1,5.2,1.6,6.3
			C2399.4,1212.2,2405.7,1206.5,2404.6,1191.4z"/>
		<ellipse cx="2936.5" cy="2116.1" rx="4.2" ry="6.3"/>
		<path d="M3021.5,2096.3c-0.5,0-1,0.5-1.6,1.6c-4.2,6.8,0.5,16.1,7.8,16.1c3.6,0,6.3,2.6,6.3,6.3c0,3.1,1.6,6.3,4.2,6.3
			c7.8,0,4.2-14.6-5.7-24c-4.2-4.2-7.8-6.3-9.9-6.3C3022,2096.3,3021.5,2096.3,3021.5,2096.3z"/>
		<path d="M3036.6,2132.3c-1.6,0-3.1,1.6-5.2,4.7c-3.1,4.2-5.7,10.4-5.7,14.1c0,9.4,5.2,8.9,14.1-1c5.7-6.8,6.3-8.9,2.1-14.1
			C3039.2,2133.3,3038.1,2132.3,3036.6,2132.3z"/>
		<path d="M2444.2,1193c-1.6,0-2.6,1-3.6,2.1c-1.6,2.1-0.5,6.8,2.1,9.9c5.2,6.8,12,4.2,12-4.2
			C2454.7,1196.1,2448.4,1192.4,2444.2,1193z"/>
		<path d="M2459.3,1188.8c4.7-3.1-12.5-26-19.3-26c-2.6,0-6.3-4.2-7.8-8.9c-1-3.6-2.6-5.7-4.2-5.7c-1,0-2.1,0.5-3.1,1.6
			c-2.6,2.6-8.9,4.7-13.5,4.7c-11.5,0-12.5,6.8-1.6,9.9c4.2,1.6,8.3,6.3,8.9,11.5c1.6,11.5,15.6,14.6,15.6,3.6
			c0-4.7-2.1-8.9-5.2-9.9c-2.6-1-3.6-3.1-2.1-5.2c1.6-2.1,8.9,3.6,15.6,11.5C2450,1184.6,2457.3,1189.8,2459.3,1188.8z"/>
		<path d="M2420.3,1190.9c-3.1,0-5.7,1.6-5.7,4.2c0,2.1,3.6,4.2,8.3,4.2c4.7,0,7.3-1.6,5.7-4.2
			C2427,1192.4,2423.4,1190.9,2420.3,1190.9z"/>
		<circle cx="2997" cy="2118.2" r="4.2"/>
		<circle cx="2916.2" cy="2170.8" r="4.2"/>
		<path d="M3001.1,2093.7c8.3,0,10.9-9.9,4.2-19.8c-1.6-2.1-2.6-3.1-3.6-2.6s-2.6,2.1-4.2,5.7c-2.6,4.7-4.7,10.4-4.7,12.5
			C2993.3,2091.6,2997,2093.7,3001.1,2093.7z"/>
		<path d="M3017.3,2061.4c2.1,0,4.2-2.6,4.2-6.3c0-2.6-1-4.2-2.6-4.2c-0.5,0-1,0-1.6,0.5c-2.1,1.6-4.2,4.2-4.2,6.3
			C3013.1,2059.3,3015.2,2061.4,3017.3,2061.4z"/>
		<path d="M3019.9,2085.9c3.6,0,5.7-2.1,4.7-4.7c-1.6-4.2-4.7-6.3-7.3-6.3c-0.5,0-1,0-1,0c-1.6,0.5-3.1,2.1-3.1,4.7
			C3013.1,2082.8,3016.3,2085.9,3019.9,2085.9z"/>
		<path d="M3010.5,2127.6c5.2,11.5,15.1,15.1,15.1,5.2c0-3.1-2.6-7.8-6.3-10.4s-6.3-7.8-6.3-10.4c0-3.1-1.6-5.7-4.2-5.7
			c-0.5,0-0.5,0-1,0C3003.8,2106.7,3004.8,2115.1,3010.5,2127.6z"/>
		<path d="M2904.2,2100c2.1-1.6,4.2-4.2,4.2-6.8c0-1.6-1-2.6-2.6-2.1c-0.5,0-1,0.5-1.6,0.5c-2.1,1.6-4.2,4.2-4.2,6.3
			C2900.1,2100.5,2901.6,2101,2904.2,2100z"/>
		<path d="M2531.8,2140.6c-0.5-0.5-1-0.5-1.6-0.5c-1.6,0-2.6,1.6-2.6,4.2c0,3.6,1.6,6.3,4.2,6.3
			C2537,2150.5,2537,2143.7,2531.8,2140.6z"/>
		<path d="M2623.4,2207.8c1-3.1,1-6.3,0-7.8c-0.5-0.5-0.5-0.5-1,0c-1,0.5-1,2.6-1,5.7C2621.4,2209.9,2622.4,2210.9,2623.4,2207.8z"
			/>
		<path d="M2573.4,2131.2c2.6-2.1,9.9-5.2,15.6-6.3c6.3-1.6,10.9-5.2,10.9-8.9c0-3.6-1-4.7-3.6-4.7c-1,0-2.1,0.5-3.1,1
			c-3.6,1.6-10.9,4.2-16.1,5.2c-10.4,2.1-14.6,7.3-10.9,13C2567.7,2132.8,2570.8,2133.3,2573.4,2131.2z"/>
		<path d="M2791.2,2130.2c0,3.1-1.6,10.4-2.6,15.1c-1.6,5.2-0.5,8.9,1.6,8.9c6.3,0,8.9-11.5,5.2-21.4c-1.6-3.1-2.6-5.2-3.1-5.2
			C2791.2,2128.1,2791.2,2129.1,2791.2,2130.2z"/>
		<path d="M2793.3,1920.2c-1,0-2.1,0-3.6,0c-18.2,1-19.3,2.1-14.1,13.5c5.2,12,13,13.5,9.9,2.1c-2.1-8.3,2.6-10.9,7.3-4.2
			c4.2,6.8,9.9,4.2,9.9-4.2C2802.7,1921.8,2801.1,1920.2,2793.3,1920.2z"/>
		<path d="M2568.7,2208.3c-1.6-0.5-3.1-1-4.2-0.5c-1.6,0-2.6,0.5-3.1,1c-1.6,1.6,1,2.1,5.2,2.1
			C2571.4,2210.4,2571.9,2209.9,2568.7,2208.3z"/>
		<path d="M2592.2,2134.3c-6.8,0.5-13.5,3.1-16.1,7.8c-2.1,4.2-4.2,10.9-4.2,14.6c0,9.9,9.9,5.2,11.5-5.2c1.6-9.9,8.3-11.5,16.1-4.2
			c5.7,5.7,10.9,1.6,7.8-6.8C2605.2,2135.9,2599,2133.8,2592.2,2134.3z"/>
		<path d="M2754.2,2091.6c-0.5-0.5-1-0.5-1.6-0.5c-1.6,0-2.6,1.6-2.6,4.2c0,3.6,1.6,6.3,4.2,6.3
			C2759.4,2102,2759.4,2094.7,2754.2,2091.6z"/>
		<path d="M2739.1,2067.7c-5.2-1-8.9-1.6-11.5-1c-4.2,0-5.7,1.6-5.7,4.7c0,3.6,3.1,6.3,7.8,6.3c4.2,0,8.9,1.6,10.4,4.2
			c3.6,6.3,14.1,4.7,16.7-2.1C2759.9,2071.3,2759.4,2070.8,2739.1,2067.7z"/>
		<path d="M2723,2089.5c-3.1,0-4.7-1.6-3.1-4.2c1.6-2.6,0-3.6-2.6-4.2c-2.6,0-6.8,1-10.9,3.6c-3.1,2.1-4.7,6.3-3.1,10.4
			c2.1,5.7,3.6,5.7,8.9,2.1c4.7-4.2,5.7-3.6,5.7,1c0,3.6,4.2,6.3,12.5,6.3c12,0.5,12.5,0,5.2-7.3
			C2731.8,2093.2,2726.1,2089.5,2723,2089.5z"/>
		<path d="M2687.5,2089.5c-6.3,0-7.8,4.7-3.1,9.4c4.7,4.7,9.4,3.1,9.4-3.1C2693.8,2092.7,2690.7,2089.5,2687.5,2089.5z"/>
		<path d="M2590.1,2163c-1,0-2.1,1.6-2.1,4.2c0,2.1,2.1,4.2,4.2,4.2c2.1,0,3.1-1.6,1.6-4.2C2592.7,2164,2591.1,2163,2590.1,2163z"/>
		<path d="M2818.8,1914c3.1-3.6,3.6-6.3,0.5-8.3c-1.6-1-3.1-1.6-4.2-1c-4.2,0-8.3,4.2-8.3,9.4
			C2806.8,1921.3,2812.6,1921.3,2818.8,1914z"/>
		<path d="M2390.1,1860.3c10.9-3.1,9.9-5.2-2.1-5.2c-5.7,0-9.4,1.6-8.3,3.6C2380.7,1860.8,2385.4,1861.4,2390.1,1860.3z"/>
		<path d="M2637,1830.6c2.1,0,4.2-2.1,4.2-4.2c0-1.6-1-2.6-2.6-2.6c-0.5,0-1,0.5-1.6,0.5c-2.1,1.6-4.2,3.1-4.2,4.2
			S2634.9,1830.6,2637,1830.6z"/>
		<circle cx="2584.4" cy="1761.8" r="4.2"/>
		<path d="M2565.6,1838.9c-6.8,0-6.8,0.5-1.6,4.2c3.1,2.1,9.9,3.1,14.1,2.1c4.7-1,9.4-2.1,10.9-2.1c1.6,0,3.1-4.7,3.1-10.9v-10.9
			l-9.4,8.9C2577.6,1834.8,2570.3,1838.9,2565.6,1838.9z"/>
		<path d="M2380.7,1883.2c5.2,0,8.9-1.6,8.9-4.2s-1-3.6-3.1-3.6c-2.1,0-5.2,1-8.9,3.6C2372.9,1882.2,2373.4,1883.2,2380.7,1883.2z"
			/>
		<path d="M2413.5,1867.1c4.7,0,10.4-2.6,13-6.3c4.2-5.2,3.6-6.3-3.1-6.3c-4.7,0-10.4,2.6-13,6.3
			C2406.2,1866,2406.7,1867.1,2413.5,1867.1z"/>
		<path d="M2390.1,1844.7c5.2-3.1,5.2-6.3,0-6.3c-2.1,0-4.2,1.6-4.2,4.2S2388,1846.2,2390.1,1844.7z"/>
		<circle cx="2612.5" cy="1761.8" r="4.2"/>
		<path d="M2651.1,1883.2c-1,0-2.1,1.6-2.1,4.2c0,2.1,2.1,4.2,4.2,4.2c2.1,0,3.1-1.6,1.6-4.2
			C2653.7,1884.8,2652.1,1883.2,2651.1,1883.2z"/>
		<path d="M2604.7,1772.8c0-2.6-1.6-3.1-3.1-3.1c-1.6,0.5-3.6,2.1-4.2,4.7c-1,2.6,0.5,3.6,3.1,3.1
			C2602.6,1777,2604.7,1774.9,2604.7,1772.8z"/>
		<path d="M2695.9,1882.7c3.1-5.2-5.7-13-12-13c-1.6,0-2.6,0.5-3.6,1c-2.1,2.1-2.6,6.8-1.6,9.9
			C2681.8,1888.4,2691.7,1889.5,2695.9,1882.7z"/>
		<circle cx="2717.7" cy="1911.9" r="4.2"/>
		<path d="M2684.4,1891.6c-2.1,0-2.1,2.1,1,5.7c2.6,3.1,7.8,6.3,11.5,5.7c5.7,0,5.2-1-1-6.3
			C2690.7,1893.7,2686.5,1891.6,2684.4,1891.6z"/>
		<path d="M2604.2,1822.8c-1.6,3.1-2.6,6.8-1,8.3c1,1.6,6.8,3.1,12.5,3.1c7.3,0,9.9-2.1,8.9-7.3c-1-5.2-6.8-8.9-12-8.9
			C2608.9,1819.2,2605.7,1820.2,2604.2,1822.8z"/>
		<path d="M2710.4,1894.2c7.3-2.6,8.9-10.9,1.6-10.9c-3.6,0-6.3,2.6-6.3,6.3C2705.8,1893.1,2707.8,1895.2,2710.4,1894.2z"/>
		<path d="M2902.2,2280.2c-3.6,0-6.3,2.6-6.3,6.3c0,3.6,2.1,5.7,4.7,4.7C2908.4,2288.5,2909.5,2280.2,2902.2,2280.2z"/>
		<path d="M2907.9,2312.5c-2.1,0-4.2,1.6-4.2,4.2c0,2.6,1.6,3.1,4.2,2.1C2913.1,2315.1,2913.1,2312.5,2907.9,2312.5z"/>
		<path d="M2920.9,2290.1c-0.5,0-1.6,0-2.6,0.5c-3.1,1-6.3,4.7-6.3,7.8s2.6,5.7,6.3,5.7c3.1,0,6.3-3.6,6.3-7.8
			C2924,2292.2,2923.5,2290.1,2920.9,2290.1z"/>
		<path d="M2956.9,2344.8c-8.3,0-9.9,6.3-5.7,17.7c4.2,11.5,13.5,7.3,13.5-5.7C2964.7,2347.4,2963.1,2344.8,2956.9,2344.8z"/>
		<path d="M2695.3,2443.8c-1.6,0-3.6,1-7.3,2.6c-5.7,2.6-9.4,6.3-8.3,8.3c3.6,5.7,15.6,1.6,17.2-5.7
			C2697.4,2444.8,2697.4,2443.3,2695.3,2443.8z"/>
		<path d="M2883.9,2301c-2.1-0.5-2.6-3.6-1.6-7.3c1-3.6-0.5-5.7-3.6-5.7c-4.2,0-5.7,5.2-5.7,17.7c0,12.5,1.6,17.2,4.7,15.6
			C2884.5,2319.3,2889.1,2302.6,2883.9,2301z"/>
		<path d="M2904.2,2255.2c0,2.6,3.6,4.2,8.3,4.2c11.5,0,9.9-7.8-2.6-12.5c-4.7-1.6-8.3-2.6-12-2.6c-5.7,0-9.4,2.6-9.4,6.8
			c0,2.6,3.1,3.6,8.3,2.1C2900.6,2252.1,2904.2,2252.6,2904.2,2255.2z"/>
		<path d="M3088.1,2375.5c3.6,0,6.3-2.6,6.3-5.7c0-3.1-2.1-4.2-4.7-4.2c-2.6,0.5-5.2,2.1-6.3,5.7
			C3082.4,2374,3084.5,2375.5,3088.1,2375.5z"/>
		<path d="M3072,2380.8c3.6-5.7-5.7-16.1-14.6-16.1c-9.4,0-9.4,3.1-1,13C3064.2,2386,3068.4,2387,3072,2380.8z"/>
		<circle cx="2960.5" cy="2316.7" r="4.2"/>
		<path d="M3110.5,2389.6c5.2-9.9,5.7-20.3,0.5-20.3c-4.7,0-16.7,22.9-13.5,26C3101.7,2399.5,3106.4,2397.4,3110.5,2389.6z"/>
		<path d="M3096.5,2415.1c-3.6-1.6-8.3-6.8-10.4-12c-2.1-5.2-6.3-9.4-9.9-9.4c-9.4,0-7.3,7.3,4.7,20.3c12,12.5,15.1,14.1,19.3,7.8
			C3101.7,2419.3,3100.1,2416.2,3096.5,2415.1z"/>
		<path d="M2981.3,2328.7c-2.1,0-5.2,1.6-6.8,4.2c-1.6,2.1-0.5,4.2,1.6,4.2c2.1,0,5.2-1.6,6.3-4.2
			C2984.5,2330.2,2984,2328.7,2981.3,2328.7z"/>
		<path d="M3107.9,2403.7c-1.6,0-2.6,1-3.6,2.1c-1.6,2.1,0.5,7.8,4.7,12c8.9,9.9,17.7,9.9,17.7,0.5
			C3126.7,2411,3114.7,2403.2,3107.9,2403.7z"/>
		<path d="M3048.6,2384.9c-1.6,0.5-5.2-4.2-7.3-9.4c-2.1-5.7-6.8-9.9-9.9-9.9c-0.5,0-1,0-1.6,0c-8.3,1-4.2,10.4,10.9,22.9
			c17.7,15.1,21.4,16.1,21.4,5.2C3062.1,2386,3057.9,2383.4,3048.6,2384.9z"/>
		<path d="M2854.8,2308.3c-1.6,0-3.1,0.5-5.2,1c-3.6,1.6-6.3,6.3-6.3,10.4c0,10.9,10.9,10.4,14.1,0
			C2860,2312.5,2858.9,2308.3,2854.8,2308.3z"/>
		<path d="M2733.9,2403.7c4.2-5.2,3.6-6.3-3.6-6.3c-4.7,0-8.9,2.6-8.9,6.3C2721.9,2411.5,2727.6,2411.5,2733.9,2403.7z"/>
		<path d="M2739.1,2427.6c-0.5-3.1-3.1-4.2-5.7-3.6s-5.2,2.1-6.3,5.2c-1,3.6,1,4.7,5.7,4.2C2737,2432.3,2739.6,2429.7,2739.1,2427.6
			z"/>
		<path d="M2739.6,2523.5c-0.5,0-1,0-2.1,0.5c-3.1,1-6.3,4.2-7.3,7.3c-1,3.1,0.5,4.7,3.6,3.6c3.1-1,6.3-4.2,7.3-7.3
			C2742.2,2525.1,2741.7,2523.5,2739.6,2523.5z"/>
		<path d="M2703.2,2415.1c-0.5,0-1,0.5-1.6,0.5c-2.1,1.6-4.2,3.1-4.2,4.2c0,1,1.6,2.1,4.2,2.1c2.1,0,4.2-2.1,4.2-4.2
			C2705.8,2415.7,2704.7,2414.6,2703.2,2415.1z"/>
		<path d="M2779.7,2511c3.6-3.6,2.6-7.8-1-7.8c-1,0-2.6,0.5-4.2,1.6c-2.6,1.6-3.1,4.7-2.1,6.8
			C2774.5,2514.1,2777.1,2514.1,2779.7,2511z"/>
		<path d="M2823,2332.8c-2.1,0-4.2,1.6-4.2,4.2c0,2.6,1.6,3.1,4.2,2.1C2828.2,2335.4,2828.2,2332.8,2823,2332.8z"/>
		<path d="M2719.3,2450.6c-1,0.5-1,2.6-1,5.7c0,4.7,1,5.7,2.6,2.6c1-3.1,1-6.3,0-7.8C2719.8,2450.6,2719.8,2450.6,2719.3,2450.6z"/>
		<circle cx="2709.9" cy="2527.1" r="4.2"/>
		<path d="M2756.8,2499.5c1-3.1,1-6.3,0-7.8c-0.5-0.5-0.5-0.5-1,0c-1,0.5-1,2.6-1,5.7C2754.7,2501.6,2755.8,2502.7,2756.8,2499.5z"
			/>
		<path d="M2782.9,2358.9c-0.5-0.5-1-0.5-1.6-0.5c-1.6,0-2.6,1.6-2.6,4.2c0,3.6,1.6,6.3,4.2,6.3
			C2788.1,2369.3,2788.1,2362,2782.9,2358.9z"/>
		<path d="M2752.6,2401.6c-6.8,0-11.5,5.7-7.3,9.4c4.2,4.2,8.3,3.1,10.9-3.6C2757.3,2403.7,2755.8,2401.6,2752.6,2401.6z"/>
		<path d="M2763.1,2413.6c-1,3.1,0.5,4.7,3.6,3.6c3.1-1,6.3-4.2,7.3-7.3c0.5-2.1,0-3.6-1.6-4.2c-0.5,0-1,0-2.1,0.5
			C2767.2,2407.3,2764.1,2410.4,2763.1,2413.6z"/>
		<path d="M2739.1,2514.6c-0.5,2.1,1.6,4.2,5.2,4.2c3.6,0,5.7-2.1,5.2-5.2c-1-3.1-3.1-4.2-5.2-4.2
			C2741.7,2510,2739.6,2511.5,2739.1,2514.6z"/>
		<path d="M2738.1,2456.3c-2.6,0.5-4.2,2.6-4.2,5.7c0,2.1,3.6,4.2,8.9,4.2c7.3,0,7.8-1,3.6-6.3
			C2743.8,2457.3,2740.7,2455.8,2738.1,2456.3z"/>
		<path d="M2865.2,2329.2c-1,0.5-1,2.6-1,5.7c0,4.7,1,5.7,2.6,2.6c1-3.1,1-6.3,0-7.8C2865.7,2329.2,2865.2,2329.2,2865.2,2329.2z"/>
		<path d="M2711.5,1691.5c-1-1-2.1-1.6-3.1-1.6c-3.1,0-5.7,4.2-3.6,8.9c1,3.1,4.2,5.7,5.7,5.7
			C2714.6,1705.1,2715.1,1695.7,2711.5,1691.5z"/>
		<path d="M2705.8,1717.6c0,2.6,1.6,3.1,4.2,2.1c5.2-3.1,5.2-6.3,0-6.3C2707.3,1713.4,2705.8,1715,2705.8,1717.6z"/>
		<path d="M2721.4,1452.9c2.1-8.9-1-17.2-4.7-17.7c-1,0-2.1,0.5-3.1,1.6c-3.1,3.1-2.6,7.3,1,13.5
			C2718.8,1459.2,2719.8,1459.2,2721.4,1452.9z"/>
		<path d="M2685.4,1365.9c-0.5,0-1,0-1,0c-1.6,0.5-3.1,2.1-3.1,4.7c0,3.6,3.1,6.3,6.3,6.3c3.6,0,5.7-2.1,4.7-4.7
			C2691.2,1368.5,2688,1365.9,2685.4,1365.9z"/>
		<path d="M2706.3,1398.7c-1.6-3.1-2.6-4.7-3.6-4.7c-0.5,0-1,1-1,3.6c0,3.6,1,7.8,2.6,8.9
			C2709.4,1411.8,2710.4,1406.5,2706.3,1398.7z"/>
		<path d="M2736,1583.7c1.6,2.1,4.2,3.1,6.3,1.6c4.7-3.1,4.7-14.1,0-14.1C2737,1571.7,2733.4,1579,2736,1583.7z"/>
		<path d="M2687.5,1395.1c-0.5,0-1,0-1.6,0.5c-2.6,1.6-2.1,6.3,1,13c3.6,8.3,5.2,9.4,6.3,3.6
			C2694.8,1403.9,2691.7,1395.1,2687.5,1395.1z"/>
		<path d="M2673.5,1369c0-2.6-1.6-4.2-3.6-4.2s-4.7,1.6-6.3,4.2c-1.6,2.1,0.5,4.2,3.6,4.2C2670.3,1373.2,2673.5,1371.6,2673.5,1369z
			"/>
		<path d="M2728.7,1414.9c5.2,5.2,13,2.6,10.9-3.6c-1-3.1-3.6-6.3-5.7-6.3C2729.2,1405.5,2725.6,1412.3,2728.7,1414.9z"/>
		<path d="M2726.6,1436.2l5.2,12l1.6-12c1-6.8-0.5-13-3.6-15.1c-2.1-1-3.1-1.6-4.2-1.6C2721.9,1420.1,2722.4,1425.8,2726.6,1436.2z"
			/>
		<path d="M2752.6,1416.4c2.6-2.6-3.1-15.1-7.3-15.1c-2.1,0-1.6,3.6,0.5,8.3C2749,1414.4,2751.6,1417.5,2752.6,1416.4z"/>
		<path d="M2751.6,1561.3c3.6-6.8,0-13.5-4.7-13.5c-1.6,0-3.6,0.5-5.2,2.6c-3.6,3.6-3.1,6.3,0.5,10.9
			C2747.4,1567.5,2748,1567.5,2751.6,1561.3z"/>
		<path d="M2729.7,1385.7c-3.1,0-4.7,4.2-2.1,10.4c2.1,5.2,3.6,5.7,7.3,2.1c3.6-3.6,3.6-5.7,0-9.4
			C2732.8,1386.8,2731.3,1385.7,2729.7,1385.7z"/>
		<path d="M2766.2,1569.6c5.2-3.1,5.2-14.1,0-14.1c-2.1,0-4.2,3.6-4.2,8.3C2762.5,1568,2764.1,1571.2,2766.2,1569.6z"/>
		<path d="M2464.6,1160.1c-1.6,0-3.1,1-3.6,2.1c-1,2.1-1,6.3,0.5,9.9c3.6,8.9,13.5,7.8,13.5-1
			C2475,1165.3,2469.2,1160.1,2464.6,1160.1z"/>
		<path d="M3227.2,2464.1c-3.6-1.6-5.7-5.2-4.7-8.3c1-3.1,0.5-5.7-1-5.7c-5.7,0-17.7,10.4-17.7,15.1c0,9.4-8.9,8.9-18.2-1
			c-9.9-10.4-21.9-12.5-24.5-4.2c-0.5,2.1,4.7,7.3,12,10.9c13.5,6.8,42.7,6.3,55.7-0.5C3233,2467.2,3233,2466.2,3227.2,2464.1z"/>
		<path d="M2538,1227.9c1,2.1,3.6,3.6,5.7,3.6c5.7,0,8.9-7.3,4.2-9.9c-1.6-1-3.1-1-4.2-1C2539.6,1220.6,2535.9,1224.2,2538,1227.9z"
			/>
		<path d="M2552.1,1215.4c2.6,0,3.1-1.6,1.6-4.2c-1.6-2.6-3.1-4.2-4.2-4.2c-1,0-2.1,1.6-2.1,4.2
			C2547.9,1213.8,2550,1215.4,2552.1,1215.4z"/>
		<path d="M2469.8,1193.5l-4.2,9.4c-3.1,7.3-2.6,10.4,1.6,13c8.9,5.2,13-2.1,7.8-13L2469.8,1193.5z"/>
		<path d="M2483.3,1197.1c4.7-3.1,4.7-14.1,0-14.1c-5.2,0-9.4,7.3-6.3,12C2478.6,1197.6,2481.2,1198.2,2483.3,1197.1z"/>
		<path d="M2657.3,1340.4c0-2.1-2.6-3.6-6.3-3.6c-6.3,0-7.8,4.7-3.6,9.4C2651.1,1349.2,2657.3,1345.6,2657.3,1340.4z"/>
		<path d="M2512.5,1208.6c-5.2,3.1-9.4-1-9.4-9.9c0-4.2-1.6-8.3-4.2-9.4c-0.5,0-0.5-0.5-1-0.5c-4.2,0-4.2,22.9,1,30.7
			c3.1,5.2,5.2,5.2,12,1s8.9-4.2,10.4,1c1,3.6,4.2,6.3,5.7,6.3c2.1,0,2.6-2.6,1-6.3c-1.6-3.6,0-6.3,4.2-6.3c3.6,0,6.3-2.6,6.3-5.7
			C2539.6,1203.9,2521.3,1203.4,2512.5,1208.6z"/>
		<path d="M3514.3,2300c-8.3-3.6-13.5-3.1-28.7,3.6c-10.4,4.7-18.8,9.9-18.8,12c0,2.1-15.1,19.3-33.3,38
			c-50.5,52.1-81.3,63.6-158.4,61.5c-36.5-1-42.2-2.6-62.5-14.1c-31.3-17.7-91.2-63-126.1-95.9l-29.2-27.6l7.8-20.3
			c6.3-16.1,7.8-30.2,7.8-70.3c0-83.4-20.3-151.6-64.6-216.2c-22.9-33.9-24.5-38-21.4-51.1c5.7-23.4,5.2-89.1-0.5-113
			c-13.5-56.3-45.3-106.3-100.5-158.4l-35.9-33.9l-2.6-38.6c-13-200.6-142.2-376.1-316.7-430.3c-23.4-7.3-53.7-13.5-80.2-16.7
			l-2.1,8.9l-21.4,5.7c2.1,1,4.2,2.6,6.3,4.2c8.9,6.8,12,7.3,16.7,3.6c8.3-6.8,18.8-1.6,49.5,26c25.5,22.9,32.8,25.5,63,23.4
			c6.3-0.5,15.1,2.1,19.3,6.3c6.3,5.7,8.3,5.7,10.9,1.6c2.6-4.7,6.3-4.2,18.2,1.6c14.1,6.8,14.6,7.3,8.9,15.6
			c-5.2,7.8-5.2,10.4,1.6,23.4c4.2,8.3,9.4,16.1,11.5,17.7s4.2,9.9,4.2,18.2s1.6,16.7,4.2,18.2c7.8,5.2,3.6,10.9-6.3,8.9
			c-9.4-2.1-9.9-1.6-3.6,5.2c3.6,4.2,13,8.9,21.4,10.9c13,3.1,15.1,5.2,16.1,16.7c1,8.3,3.6,13,7.8,13c3.6,0,5.2-2.1,4.2-5.7
			c-1-3.1-0.5-7.3,2.1-8.9c5.2-3.1,27.6,22.4,27.6,31.8c0,9.9,6.8,8.9,9.4-1.6c3.1-11.5,16.7-8.9,18.2,3.6c1,5.7,4.2,8.9,8.9,8.9
			c4.2,0,10.4,4.7,14.1,9.9c3.6,5.2,9.4,9.9,12.5,9.9c3.1,0,5.7,2.1,5.7,4.7c0,2.6,3.1,7.8,6.8,12c6.3,6.8,6.3,7.8,0,9.9
			c-3.6,1.6-9.4,0-12.5-2.6c-4.7-4.2-6.3-4.2-6.3,0c0,3.1-3.1,4.2-9.9,2.6c-8.3-2.1-10.4-0.5-14.6,13c-2.6,8.3-7.3,18.2-10.4,21.4
			c-4.2,4.7-4.2,7.3-1,10.9c5.7,5.7-2.1,17.2-12,17.2c-5.2,0-4.2,2.1,2.6,9.4c4.7,5.2,8.9,12,8.9,15.6c0,6.8,16.2,15.6,28.7,15.6
			c5.2,0,10.9,5.7,16.1,15.6c11.5,22.9,16.1,24,16.1,3.6c0-16.1-5.2-71.4-9.9-104.2c-4.7-34.4,6.8,7.8,14.1,52.1
			c10.4,60.4,10.4,73.5,0,73.5c-8.3,0-15.1,6.8-10.4,10.9c1.6,1.6,4.7,0,7.3-2.6c6.8-6.8,23.4-5.7,23.4,1.6c0,3.1,2.6,6.3,6.3,6.3
			c8.3,0,7.8,5.2-1.6,16.7l-7.3,9.4l-6.8-13c-5.2-9.9-8.9-12.5-13.5-10.4c-12.5,4.7-14.6,4.2-16.1-5.2c-2.1-13-14.6-9.9-16.1,4.2
			c-0.5,6.3-3.6,10.9-6.8,10.9s-6.3,5.2-6.8,10.9c-1,7.8-3.1,10.9-8.3,9.9c-3.6-0.5-7.3,1-7.3,4.2c0,3.1-3.6,12.5-8.3,21.4
			c-4.7,8.9-8.3,16.1-8.3,17.2c0,1,4.7,3.1,9.9,5.2c10.4,4.2,12.5,10.4,6.3,20.3c-2.6,3.6-2.1,7.8,0.5,10.9c3.1,3.6,2.6,5.2-2.1,5.2
			c-3.6,0-6.8,2.6-6.8,6.3c0,3.6,2.6,6.3,6.3,6.3c3.1,0,6.3,2.1,6.3,4.2c0,6.3-12,9.4-17.2,4.2c-2.6-2.6-8.9-4.7-14.1-4.7
			c-5.7,0-9.4-2.6-9.4-6.8c0-5.2-1-5.7-5.7-1.6c-8.9,7.3-28.7,3.6-28.7-5.7c0-10.9,9.4-13,13.5-2.6c3.1,8.3,3.1,8.3,13-1.6l9.4-10.4
			h-10.9c-14.1,0-14.1-7.3,0-8.9c13-1.6,22.9-18.8,22.4-38.6c0-8.9,3.1-15.6,9.4-21.9c12-10.9,12-18.2,1.6-24
			c-4.7-2.6-7.3-6.3-5.7-8.3c3.6-6.3,9.9-4.2,9.9,3.1c0,5.2,1,5.7,4.7,2.1c3.6-3.6,3.6-7.8,0-17.7c-4.2-10.9-3.6-13.5,1.6-17.7
			c7.3-5.2,4.7-18.8-3.6-17.2c-3.1,0.5-4.7-2.6-4.2-8.9c1-13.5-6.3-31.3-13.5-34.4c-5.7-2.1-5.7-3.1,0.5-9.9
			c5.7-6.3,6.3-8.9,2.1-15.6c-2.6-4.7-7.3-7.3-10.4-6.3s-5.2-0.5-5.2-4.2s-1-8.9-2.1-12.5c-1.6-4.7-0.5-5.7,5.7-4.2
			c7.8,2.1,7.8,1.6,3.6-10.4c-4.2-10.9-5.2-12-9.4-6.8c-4.2,5.2-5.2,5.2-9.4-3.1c-6.8-23.4-14.6-44.8-29.2-63.6l-8.9-12.5
			c0.5,0.5-8.9-15.1-8.9-15.1c-7.8-15.6-8.3-11.5-19.8-24.5c-5.7-8.9-17.2-18.8-25-22.9s-14.1-8.9-14.1-10.4
			c0-4.2-36.5-26-54.2-32.3c-8.3-3.1-16.7-7.8-17.7-10.4c-1-2.6-9.9-6.3-19.8-7.8c-9.9-1.6-17.7-4.2-17.7-6.3
			c0-2.1-8.3-3.6-17.7-3.6c-9.9,0-19.3-2.1-20.8-4.2c-1.6-2.6-5.2-3.6-7.8-2.1s-6.3,1-7.8-0.5c-1.6-1.6-10.9-2.6-21.4-3.1l30.2,12.5
			l-3.6,3.6c16.1,1.6,30.2,3.6,40.1,6.3c54.7,13,102.6,38.6,141.7,75c13.5,12.5,31.8,33.3,40.1,42.7l0,0
			c6.3,9.9,11.5,20.3,18.2,30.2c-3.6,0.5,9.9,23.4,13,31.3c1.6,2.6,2.6,3.6,3.1,3.6c6.8,29.7,14.6,58.9,18.2,89.1
			c0,10.4-1,11.5-10.9,8.9c-77.1-19.8-99-22.9-163.1-25c-52.6-1.6-73.5-1-99,4.2c-57.3,14.6-69.3,24.5-102.1,42.2
			c-25.5,21.4-35.9,25.5-50,55.7c-25,53.1-17.2,119.3,19.8,159.9l9.4,10.4l-24.5,15.1c-29.2,18.2-59.9,46.9-75,71.4
			c-34.9,55.2-33.9,130.2,2.6,187.5l12.5,19.8l-13,10.4c-65.1,51.1-108.4,103.7-129.7,157.9c-12.5,32.8-13,94.8,0,126.1
			c4.7,12.5,8.9,25,8.9,28.1c0,11.5,39.6,59.9,67.2,81.8c79.2,63,156.3,89.1,323.5,110.4c69.8,8.9,190.2,5.2,246.4-7.3
			c52.6-12,74-19.3,117.2-42.2c37.5-19.8,98.5-64.6,112-82.3c5.2-6.8,18.2-22.9,28.7-36.5l19.3-24.5l16.1,14.6
			c48.4,43.8,140.1,99,175.6,105.8c7.8,1.6,14.1,4.2,14.1,5.7c0,5.7,39.6,12,74,12c75-4.7,149-30.2,198-90.1
			c42.7-47.9,47.9-58.3,50.5-94.8C3524.2,2305.7,3524.2,2304.2,3514.3,2300z M2545.3,1174.7c-2.1-2.1-13.5-5.2-25.5-6.8
			c-25-3.6-32.3-12-13-13c1,0,2.6,0,4.2,0c18.2,0,44.8,9.4,44.8,15.6C2555.7,1176.3,2549.5,1178.9,2545.3,1174.7z M2741.7,1353.9
			c-5.2-8.3-29.7-35.9-54.2-61.5c-41.2-42.7-57.3-63-53.7-67.2c1-1,18.8,14.6,40.1,34.4c39.1,36.5,63,66.7,74.5,94.3
			C2756.3,1373.2,2753.7,1373.2,2741.7,1353.9z M2981.3,2101.5c2.1-3.1,3.6-9.4,3.6-14.1s4.7-13,10.4-18.2
			c9.9-9.4,10.4-11.5,7.8-35.9c-1.6-13.5-1.6-20.8,0-21.9c0,0,0.5,0,1,0c2.6,1,7.8,9.9,16.7,28.1c8.9,17.7,11.5,28.1,9.9,37.5
			c-1.6,10.9-1,13,5.7,13s8.3,3.6,10.4,21.4c4.2,34.4,3.1,72.4-1.6,69.8c-3.1-1.6-3.1,2.1-1.6,12c3.1,16.7-1,18.8-11.5,4.7
			c-9.4-12.5-8.9-13,3.6-24c7.3-6.3,9.4-10.4,6.3-12c-2.6-1.6-4.7-0.5-4.7,3.1c0,3.6-2.1,5.2-6.3,3.6c-3.6-1.6-6.3,0-6.3,3.1
			c0,3.1-3.6-2.1-7.8-11.5c-4.2-9.4-10.9-18.8-15.6-21.4C2990.7,2132.8,2977.2,2108.3,2981.3,2101.5z M3049.6,2230.7
			c0,6.8-5.2,18.2-13,28.1c-11.5,15.1-19.3,20.8-19.3,14.6c0-1,4.7-8.9,9.9-17.2c5.2-8.3,10.9-20.3,12.5-26
			c1.6-7.3,4.2-10.9,6.3-10.9C3048,2219.8,3049.6,2223.4,3049.6,2230.7z M2901.6,2171.3c-4.7-3.1-14.1-38.6-15.6-58.9
			c-0.5-9.9,1-16.7,6.3-21.4c4.2-3.6,7.3-9.4,7.3-12.5c0-2.1,0.5-3.1,1.6-3.6c1,0,3.6,0.5,6.8,2.6c4.7,2.6,10.9,3.6,14.1,2.1
			s13.5,2.6,22.9,8.9c16.1,9.9,17.2,12,17.2,28.1c-0.5,14.1-3.1,20.8-16.1,36.5c-8.9,10.4-21.4,27.1-28.1,37
			c-6.8,9.9-14.6,18.8-17.2,19.8c-6.3,2.1-6.8-11.5,0-25.5C2903.7,2178.1,2904.2,2172.9,2901.6,2171.3z M2276,2121.3
			c5.2-5.2,21.4-0.5,20.3,5.7c-0.5,2.6,1,5.2,4.2,6.3c2.6,1,5.2-1,5.2-5.2c0-5.7,1-5.7,6.3-1.6c5.2,4.2,6.3,3.6,6.3-1.6
			s4.2-6.8,20.3-6.8c10.9,0,20.3-1.6,20.3-3.1s-3.6-10.4-8.3-19.3c-4.7-8.9-7.3-19.3-6.3-23.4c1-4.2-0.5-12-3.6-18.2
			c-7.8-15.1-7.3-24,2.6-27.1c1.6-0.5,3.1-0.5,4.2-0.5c4.2,0,8.3,3.1,13.5,8.9c5.2,5.7,9.4,13,8.9,15.6c-0.5,2.6,3.1,5.2,8.3,6.3
			c5.2,0.5,8.9,4.2,8.9,7.3s5.7,7.8,12.5,10.4c6.8,2.6,14.1,7.8,16.7,12c2.1,4.2,7.3,7.3,10.9,6.8c8.9-1.6,29.2,12,29.2,19.3
			c0,9.9-8.3,10.9-17.7,2.1c-10.4-9.9-20.8-10.9-24-2.6c-3.6,9.4-29.7,7.8-32.8-2.1c-1.6-4.7-4.2-8.3-6.3-8.3
			c-5.2,0-4.7,6.8,0.5,9.9c5.7,3.6,1,10.4-5.2,7.8c-2.6-1-7.3-0.5-9.9,1c-6.3,4.2,0,29.7,8.9,37.5c3.1,2.6,5.7,7.3,5.7,9.9
			c0,2.6,4.7,9.9,9.9,15.6c11.5,12.5,6.3,13-14.1,2.1c-7.8-4.2-21.4-10.9-30.2-14.6c-16.1-7.3-26-20.3-11.5-14.6
			c4.2,1.6,8.9,4.7,10.4,6.8s4.2,2.6,5.7,1c1.6-1.6,1-4.2-1-5.7c-6.3-4.2-4.7-25,1.6-25c6.3,0,4.2-8.9-2.6-11.5
			c-2.6-1-4.7,1-4.7,4.2c0,8.9-14.1,19.8-21.9,16.7c-3.6-1.6-6.8-0.5-6.8,2.1c0,2.6-2.6,4.7-6.3,4.7c-3.1,0-6.3-2.6-6.3-6.3
			c0-3.1-5.7-8.9-12.5-12.5C2276,2127.6,2272.8,2123.9,2276,2121.3z M2253.6,1999.4c-0.5-6.3-1-9.9-0.5-10.4c0,0,0,0,0.5,0
			c1,0.5,4.7,7.8,12,24c17.2,38.6,30.7,56.3,55.7,73.5c10.9,7.3,19.8,15.6,19.8,18.8c0.5,13.5-27.6-2.1-50-27.6
			C2272.3,2055.7,2256.2,2022.3,2253.6,1999.4z M2368.2,1859.3c-8.3,0-8.3-7.8-0.5-10.9c4.7-1.6,5.2-4.2,2.1-9.9
			c-5.2-9.9-5.2-13,1-9.4c2.6,1.6,7.8,3.6,10.9,3.6c22.9,2.1,35.9,6.8,33.9,12c-1,3.1,0,5.7,2.1,5.7c2.6,0,4.2-1.6,4.2-4.2
			s2.6-4.2,6.3-4.2c7.3,0,15.1,17.2,11.5,26c-1.6,4.2,0,6.3,6.3,6.3c9.4,0,10.9-4.2,4.2-10.9c-3.1-3.1-2.1-5.7,4.2-9.4
			c8.9-4.7,8.9-4.7-4.2-14.6c-7.3-5.2-16.7-10.9-21.4-12.5c-27.6-8.3-81.8-35.9-96.4-49c-7.3-6.8-9.4-17.2-3.1-17.2
			c9.9,0,15.6,5.2,13.5,12.5c-1.6,5.2,0,7.8,4.7,7.8c3.6,0,6.3-2.6,6.3-6.3c0-4.7,2.6-5.7,10.9-3.6c6.3,1.6,13,4.2,15.6,6.3
			c2.6,2.1,10.4,1.6,18.2-1c20.8-6.8,26-10.4,24.5-16.1c-7.8-27.1-9.9-35.9-7.8-38c0,0,0.5-0.5,1.6-0.5
			c10.9-0.5,70.9,19.8,69.3,24.5c-1,2.6-6.8,5.7-13,7.3c-17.2,3.6-40.6,14.6-47.9,21.9c-5.7,5.7-5.7,7.3-1,11.5
			c3.1,2.6,16.1,16.1,29.2,29.7c19.8,21.4,22.9,26,18.2,31.3c-4.2,5.2-3.1,6.3,10.4,6.8c10.9,0.5,12.5,1,5.7,2.6
			c-13.5,2.6-18.8,7.8-13,13.5c3.1,3.1,7.8,2.6,16.7-2.6c7.8-4.7,15.6-6.3,22.4-4.2c10.9,2.6,15.1,10.4,5.2,10.4
			c-3.1,0-7.3,2.1-9.9,4.2c-2.6,2.6-19.3,5.2-37.5,6.3c-28.7,1.6-33.9,1-39.1-5.2c-5.2-6.8-6.3-6.8-13,2.1
			c-5.7,7.3-9.9,9.4-17.7,7.3c-6.8-1.6-13.5,0-20.3,5.2c-13.5,10.9-17.7,10.4-15.1-2.1c0.5-2.1-2.6-6.3-6.3-8.9s-6.3-5.7-5.2-6.3
			s5.2-3.1,9.4-5.2C2373.4,1867.1,2376.5,1859.3,2368.2,1859.3z M2323.9,1787.4c8.9,7.8,10.4,11.5,7.3,14.6c-3.1,3.1-5.2,3.6-7.3,0
			c-1.6-2.6-7.3-3.1-13-1.6c-9.4,2.6-9.9,1.6-7.3-7.3c2.6-8.9,5.2-13,8.9-13C2314.5,1780.6,2318.2,1782.7,2323.9,1787.4z
			 M2322.9,1681.1c0.5,0,0.5,0,1,0c1.6,0,20.3,18.2,42.2,40.6c21.4,22.4,38.6,40.6,38,40.6s-12-7.8-25-17.7
			C2347.3,1720.7,2314.5,1683.2,2322.9,1681.1z M2619.3,1751.9c1,3.1-1,15.6-4.7,28.1c-6.8,21.9-6.8,22.9,0.5,28.1
			c4.2,3.1,10.9,5.7,14.6,5.7c3.6,0,9.9,3.1,13,6.8c6.3,6.3,20.3,6.3,35.4,0c5.2-2.1,7.3-1,7.3,3.1c0,8.3-4.2,10.4-29.2,15.1
			c-11.5,2.1-35.9,6.8-53.7,9.9c-42.7,7.8-54.2,7.8-57.3-0.5c-2.6-7.3,0.5-10.4,32.3-29.7c11.5-7.3,19.3-14.6,19.3-19.3
			c0-9.9-18.8-27.1-37.5-33.9c-14.6-5.2-26-14.1-22.4-17.7c1-1,8.9,0.5,17.7,2.6c14.6,3.6,19.3,3.1,41.7-6.8
			c12-5.2,20.8-8.3,25.5-8.3c4.7-0.5,5.2,2.1,0.5,6.8C2619.3,1744.7,2618.2,1749.3,2619.3,1751.9z M2700,1841
			c-1.6-6.8,0-10.4,3.1-10.4c3.1,0,7.3,3.6,10.4,10.9c4.2,8.9,3.6,12-2.1,18.2c-5.7,6.3-5.7,7.8-1,7.8c3.1,0,11.5,6.3,18.8,14.1
			c10.9,12,12,16.1,8.9,25.5c-2.1,6.3-4.2,14.1-4.7,17.7c-1,6.3-4.7,5.2-26.6-6.3c-13.5-7.3-32.8-14.6-42.2-15.6
			c-13-1.6-20.8-6.3-32.8-18.8c-15.1-15.6-23.4-20.3-23.4-13c0,2.1,2.6,5.7,6.3,8.9c8.9,7.3,7.3,12-4.2,12
			c-12.5,0-16.7-9.4-10.4-22.9c4.7-9.9,5.7-10.4,32.8-7.8c19.3,1.6,28.1,1,29.2-2.1c1-3.6,4.2-3.1,10.9,0.5
			c11.5,6.3,14.6,3.6,8.9-7.8c-3.6-6.8-3.6-8.3,1.6-8.3c3.1,0,7.3,1.6,8.3,4.2C2696.4,1855.1,2702.6,1850.9,2700,1841z M2576,1803
			c0,5.7-68.8,3.1-95.3-3.1c-13.5-3.1-26.6-8.3-29.7-11.5c-2.1-2.1-3.1-3.6-1-3.6c1.6,0,6.3,1.6,13,4.2c9.9,3.6,39.1,7.3,65.1,8.3
			C2554.7,1798.3,2576,1800.9,2576,1803z M2509.4,1897.8c70.9,0,111.5,5.2,167.8,21.9c49.5,14.6,113.6,50,113.6,62.5
			c0,5.7-25.5,27.6-58.9,51.1c-10.9,7.8-21.9,15.1-24.5,16.7c-2.1,1-12-1-21.4-5.7c-44.8-20.3-172.4-33.9-268.8-29.7l-59.9,3.1
			l-7.8-17.7c-4.2-9.9-8.9-25.5-10.4-35.4c-2.6-15.1-1.6-18.8,6.8-27.6C2372.3,1908.8,2418.7,1897.8,2509.4,1897.8z M2801.6,1956.2
			c2.1,8.9-4.7,10.9-8.3,2.6c-1-3.1-8.9-6.8-16.7-8.3c-9.9-2.1-16.1-5.7-19.3-13c-4.2-8.9-3.1-11.5,9.4-21.9
			c7.8-6.8,18.2-12,22.9-12c11.5,0,31.8-10.4,34.4-17.2c0.5-2.1,1.6-3.1,2.6-3.1s2.6,1,4.7,3.1c4.2,3.6,4.2,7.3,0.5,15.1
			c-2.6,5.7-4.7,14.1-4.7,18.2c0,4.2-1.6,7.8-3.6,7.8c-2.1,0-4.2,4.2-5.2,8.9c-1,5.7-4.7,9.4-9.9,10.4
			C2802.1,1947.8,2800.1,1950.4,2801.6,1956.2z M2842.3,2065.6c-18.8,18.8-27.1,24-27.1,17.2c0-1.6,10.4-14.6,23.4-29.2
			c13-14.6,27.6-32.8,32.8-40.1c4.7-6.3,8.9-10.9,10.9-11.5h0.5C2887.1,2006.2,2861,2046.3,2842.3,2065.6z M2879.2,2127.6
			c-1,9.4-2.1,9.9-9.4,4.2c-7.3-5.2-7.3-6.3-1-12.5c2.6-2.6,5.7-4.7,7.8-4.7c0.5,0,1,0,1.6,0.5
			C2879.2,2116.1,2879.8,2121.8,2879.2,2127.6z M2827.7,2105.7c10.4,0,20.3-1.6,21.4-4.2c1.6-2.1,6.3-3.6,10.4-4.2
			c4.2,0,7.8,0.5,7.8,3.1c0,7.8-28.1,21.4-44.8,21.4c-15.1,0-16.1,1-8.9,4.2c13,5.2,11.5,15.1-4.7,24.5
			c-7.8,4.7-14.6,10.9-16.1,14.1c-1,3.1-9.4,9.4-17.7,13.5c-8.9,4.2-18.2,10.9-20.8,14.1c-3.1,3.6-9.4,6.3-14.1,6.3
			c-7.3,0-6.3-2.1,7.3-13.5c8.9-7.3,17.2-13,18.8-12s4.7-1,7.3-4.2c3.6-4.7,3.6-6.3-1.6-7.3c-5.7-1-5.2-4.7,4.7-23.4
			C2790.7,2113,2801.1,2106.2,2827.7,2105.7z M2691.7,2169.8c-29.7,7.3-54.7,9.4-54.7,5.2c0-2.6,5.2-4.2,11.5-4.2
			c18.2,0,70.9-14.6,93.3-26c8.3-4.2,15.6-7.3,18.8-7.3c1,0,1.6,0,1.6,0.5C2762.5,2142.2,2712.5,2164.6,2691.7,2169.8z
			 M2791.7,2036.9c8.9,0,9.4,5.7,1,12.5c-7.3,6.3-7.8,12-1,12c13.5,0,3.6,46.9-10.4,52.6c-4.7,2.1-32.3,1.6-61,0l-52.1-3.6
			l-14.6,15.6c-7.8,8.9-14.6,18.2-14.6,21.4c0,3.1-4.7,6.3-9.9,6.8c-5.2,0.5-15.6,7.3-22.4,15.1l-12.5,13.5l9.4,6.3
			c5.2,3.6,13.5,6.3,18.8,6.3s11.5,3.6,14.6,8.3c4.7,7.3,7.8,7.8,22.9,5.7c17.7-2.6,29.7,3.6,15.6,7.8
			c-10.9,3.1-140.1,0.5-145.9-3.1c-2.6-1.6-5.2-1-5.2,1c0,2.6-8.3,4.2-19.3,4.2c-15.1,0-17.7-1-12.5-4.2
			c14.6-8.3,39.6-15.6,41.7-11.5c3.6,6.3,9.9,4.7,13-3.1c1.6-3.6,6.3-10.4,10.9-14.1c8.9-7.3,9.9-6.8-21.4-17.7
			c-2.6-1-7.3-6.3-9.4-10.9c-2.1-4.7-12.5-16.1-22.9-24.5c-15.1-13-20.3-15.1-30.7-13l-12.5,2.6l12-10.9c9.9-9.4,12.5-9.9,16.1-4.7
			c3.1,4.7,6.3,5.2,11.5,1.6c5.7-3.6,8.3-3.1,10.9,1c2.6,3.6,7.8,4.7,17.2,3.1c13.5-2.6,13.5-2.6,13.5,12.5
			c0,10.9,1.6,15.1,6.3,15.1s6.3-4.7,5.7-16.7l-0.5-16.7l35.4-2.6c41.2-3.1,44.8-4.2,52.1-15.6c4.7-7.8,4.7-8.3-2.1-5.7
			c-7.3,2.6-7.3,2.6-0.5-4.2c5.7-5.7,7.8-6.3,12-2.1c3.6,3.6,3.6,5.7,0,9.9c-2.6,2.6-4.7,7.8-4.7,11.5c0,3.6-4.7,8.9-9.9,11.5
			c-8.3,3.6-14.1,13-8.3,13c9.4,0,22.4-9.4,22.4-15.6c0-6.8,7.8-13.5,17.7-14.6c2.1,0,5.7-3.6,8.9-7.8c3.1-4.7,8.9-6.8,13-5.7
			c8.9,2.6,17.7-3.6,24.5-16.1c2.6-5.2,8.3-8.9,12.5-8.9c8.9,0,35.4,10.9,45.3,19.3c4.2,3.6,7.8,4.2,9.4,1.6
			c1.6-2.1,0.5-5.2-1.6-6.8c-2.1-1.6-4.2-6.3-4.2-10.4c0-5.2-2.6-7.8-8.3-7.8c-10.4,0-10.4-10.9-0.5-14.1
			c4.2-1.6,10.9-6.8,14.1-12.5c4.2-5.7,10.4-9.4,15.6-9.9c4.2,0,6.8,1.6,6.8,5.7c0,3.1-4.2,8.3-8.9,12
			C2786,2035.9,2786,2036.9,2791.7,2036.9z M2465.1,2171.8c-25-6.3-72.4-25.5-69.3-28.7c1-1,23.4,5.7,50.5,14.6s52.1,16.7,56.3,16.7
			c4.2,0,9.9,2.1,13,4.2c3.1,2.1,4.2,3.6,2.1,3.1C2494.2,2179.1,2485.9,2177.6,2465.1,2171.8z M2459.9,2083.8
			c-11.5,2.1-17.2,1-20.8-4.2c-7.8-9.4-2.6-17.7,15.6-22.9c12-3.6,17.2-7.8,20.3-16.7c2.6-7.3,6.3-11.5,10.9-11.5
			c2.6,0,5.2,1,8.3,3.6c2.1,2.1,8.3,4.2,14.1,5.2c7.8,1,13,7.3,24,28.7c13,26.6,14.1,27.6,26,25c8.9-2.1,11.5-1.6,9.9,2.6
			c-1,3.1-6.8,5.2-13.5,4.7c-6.3-0.5-13.5-1-15.6-1c-2.1,0-7.8,1-12.5,2.1c-5.7,1.6-9.4,0.5-10.9-3.6c-2.1-5.2-5.7-6.3-18.2-4.2
			s-16.1,1-18.2-4.2C2476,2082.8,2471.8,2082.2,2459.9,2083.8z M2620.3,2085.4c0.5,0,1,0,1.6,0s1,0.5,1.6,0.5c1,1,0,4.2-1.6,6.8
			c-2.1,3.6-4.2,3.6-5.7,1C2613,2091.6,2616.7,2086.4,2620.3,2085.4z M2294.2,2195.3l21.4-16.7l22.9,12.5
			c29.2,15.6,101.1,33.9,159.9,40.1c77.6,8.3,188.1,1,231.8-15.6c13-5.2,46.9,5.2,81.8,25c42.7,24,42.7,20.8-8.9,70.9
			c-44.8,43.2-49.5,46.9-77.1,57.3c-84.4,30.2-168.8,46.9-258.9,29.7c-76.1-15.1-178.7-38-218.3-112c-2.6-8.3-3.6-20.3-2.1-26.6
			C2250.4,2241.1,2271.3,2213.5,2294.2,2195.3z M2823,2227.6c-4.7-4.7-12.5-8.3-18.2-8.3s-13-3.6-17.2-8.3c-3.6-4.7-9.4-8.3-13-8.3
			c-5.2,0,22.4-27.6,28.1-28.1c1.6,0,4.2,4.2,6.8,9.9c4.2,8.9,3.6,9.9-3.1,9.9c-12.5,0-9.4,7.8,5.2,14.1c7.3,3.1,15.6,8.3,18.8,12
			c5.7,6.8,16.2,8.3,16.2,2.6c0-2.1-2.6-6.3-5.7-9.4c-5.2-5.2-4.2-6.3,8.9-8.3c8.3-1.6,20.3-3.6,26.6-5.2l11.5-2.6l-8.3,15.6
			c-4.7,8.9-9.4,20.8-10.4,27.1c-2.6,12.5-14.1,15.1-14.1,3.1c0-6.3-2.6-8.3-12-8.3C2836.5,2235.4,2827.7,2231.8,2823,2227.6z
			 M2967.3,2248.9c6.8-20.3,12-46.4,14.1-74l3.6-42.7l-1.6,52.6c-1,35.9-3.6,58.3-8.3,71.4c-3.6,10.4-9.4,21.4-12.5,24
			C2954.8,2286.5,2954.8,2284.9,2967.3,2248.9z M2972,2060.9c-1,9.4-2.1,8.9-6.8-7.3c-3.1-9.9-8.9-25-13-33.3
			c-4.2-8.3-7.8-17.2-7.8-20.3c0-1,0.5-2.1,1-2.1c4.2-1,19.3,21.4,23.4,35.9C2971.5,2042.6,2973,2054.6,2972,2060.9z M2970.9,1890.5
			c1.6,5.2,0,17.7-4.2,30.2c-8.3,25-30.7,72.9-35.4,75c-1.6,0.5-3.1,4.2-3.1,7.3c0,3.1-4.7,12.5-10.4,19.8
			c-5.7,7.8-12.5,14.1-14.6,14.1c-2.1,0-3.6-8.9-3.1-19.3c1.6-38,1-38.6-8.9-31.8c-5.2,3.6-17.7,6.3-30.7,6.3
			c-15.6,0-25,2.6-32.8,8.3c-7.8,5.7-14.1,7.3-21.9,5.7l-10.4-2.6l9.9-14.6c5.2-7.8,9.9-16.7,9.9-19.3c0-2.6,7.3-15.6,16.1-28.7
			c10.4-15.6,16.2-28.7,16.2-36.5c0-7.3,1-15.6,2.6-19.3c1-2.6,2.1-4.2,4.2-3.6c2.1,0.5,5.2,2.1,9.9,5.7
			c14.1,9.9,40.1,55.2,40.1,69.8c0,12,4.7,13.5,12,4.7c2.6-3.1,10.4-6.3,16.7-6.3c9.9,0,11.5-1.6,11.5-11.5c0-6.3,3.6-16.1,8.3-22.4
			c4.7-6.3,7.3-13.5,6.3-17.7s0-10.9,3.1-15.1C2967.8,1882.2,2967.8,1882.2,2970.9,1890.5z M2911.5,1962.4l2.1-22.4
			c1-12.5,2.6-47.9,2.6-79.2s1.6-46.4,3.1-46.4c2.1,0,5.2,24.5,7.3,70.3c2.6,54.7,2.1,57.3-6.3,66.7L2911.5,1962.4z M2843.3,1751.9
			c0,12.5,5.2,13,12.5,1.6c5.7-8.3,5.7-8.3,22.9,4.2c9.9,6.8,18.8,11.5,20.3,9.9c1.6-1.6,2.6-17.2,2.6-34.9c0-17.7,0.5-31.8,1-31.8
			c1.6,0,38.6,58.3,40.6,64.6c1,3.6,4.7,9.4,7.8,13c3.1,3.6,6.8,16.1,8.3,28.1l2.6,21.9l-13.5-15.6c-24.5-28.1-50-32.3-53.1-8.9
			c-0.5,4.7-6.3,10.9-12.5,14.1c-6.3,3.1-13.5,11.5-17.2,19.3c-3.1,7.8-6.8,14.1-7.8,14.1s-3.6-9.9-6.3-21.9
			c-5.2-26.6-29.7-76.1-43.2-88c-15.6-14.1-12-20.8,4.7-8.9c8.3,5.7,18.2,9.9,22.4,9.9C2841.2,1741.5,2843.3,1744.7,2843.3,1751.9z
			 M2824,1813.9c-6.3-0.5-59.9-27.6-55.2-27.6c2.6,0,8.9-8.3,14.1-18.2c5.2-9.9,11.5-17.7,13.5-17.2c5.2,1.6,24.5,38,28.1,52.6
			C2826.1,1809.3,2826.1,1814.5,2824,1813.9z M2802.7,1687.9c4.7-11.5,11.5-31.3,14.6-44.3c3.6-13,8.3-23.4,10.4-23.4
			c8.9,0,7.3,14.6-5.2,53.1c-7.8,22.9-15.6,42.2-18.2,42.7C2794.8,1719.1,2794.3,1708.2,2802.7,1687.9z M2756.3,1694.6
			c12.5-16.1,24-46.9,32.3-83.9c1.6-6.8,5.2-11.5,7.8-11.5c1.6,0,2.6,1.6,2.6,5.2c0,11.5-17.2,65.6-26.6,83.9
			c-5.7,10.9-13.5,21.4-17.7,24C2738.1,1721.7,2738.1,1718.6,2756.3,1694.6z M2733.9,1757.7l7.3-30.2l18.8-5.2
			c7.3-2.1,12.5-3.1,16.1-3.1c3.6,0,6.3,0.5,8.9,2.6c8.9,7.3,7.3,13-6.8,26.6c-6.8,6.8-15.1,16.7-18.2,22.9
			c-3.1,6.3-9.4,10.9-13.5,10.9c-4.2,0-8.9,1.6-10.4,4.2c-2.1,3.6-10.4,5.7-9.9,3.1C2726.1,1788.4,2729.7,1774.3,2733.9,1757.7z
			 M2728.7,1820.2c42.7,7.8,106.8,37,106.8,49c0,7.8-2.6,7.3-24.5-5.2c-9.9-5.7-35.4-16.7-56.8-24c-32.8-11.5-48.4-20.8-37.5-20.8
			C2719.3,1818.6,2723,1819.2,2728.7,1820.2z M2689.6,1761.3c12-7.8,22.9-13.5,26-14.1c0.5,0,1,0,1,0c4.7,4.7-9.4,15.1-40.6,30.7
			c-27.6,14.1-51.6,20.3-51.6,14.6c0-1,8.9-4.7,19.8-8.3C2655.7,1780.6,2676.1,1770.2,2689.6,1761.3z M2620.3,1717
			c-32.8,11.5-106.8,14.6-143.3,6.3c-73.5-16.7-115.7-68.8-72.4-89.1c16.1-7.8,43.8-11.5,76.1-11.5c54.2-0.5,120.9,9.4,170.4,26.6
			c19.8,7.3,25,10.9,26.6,18.2C2678.7,1682.1,2651.1,1706.6,2620.3,1717z M2482.3,1524.8c13.5-0.5,25-1,33.3-1
			c14.1,0,20.3,1,20.3,2.6c0,2.6-9.4,5.2-21.4,6.3c-50.5,5.2-100,6.3-100,2.6C2414,1529.5,2425,1527.4,2482.3,1524.8z
			 M2358.8,1533.1c7.8,2.1,10.4,0.5,12-5.7c1.6-6.8,5.2-8.3,16.7-8.3c16.1,0,17.7,2.6,7.3,10.4c-6.8,5.2-5.7,6.8,8.3,18.8
			c8.3,7.3,15.1,16.1,15.1,19.3c0,9.4,4.7,12.5,10.9,7.3c4.2-3.1,7.8-3.1,14.6,1.6c10.4,6.8,56.8,23.4,65.6,23.4
			c3.1,0,9.4-6.8,13.5-15.1c4.2-8.3,16.7-24,28.1-34.4c17.7-16.7,19.3-19.3,12.5-21.4c-9.9-3.1-9.9-14.1,0-14.1
			c22.4,0,121.9,39.6,121.9,48.4c0,3.1-2.6,3.6-7.3,1.6c-17.2-7.3-57.3-21.9-77.1-27.6l-21.4-6.3l10.4,13.5
			c5.7,7.3,13,14.6,16.1,15.6c5.7,2.1,38.6,49.5,38.6,55.7c0,4.2-5.7,4.2-32.3-0.5c-9.9-1.6-48.4-5.2-85.4-8.3
			c-50-3.6-67.2-6.8-66.7-10.4c1-9.4-7.8-7.8-8.9,1.6c-1,6.8-4.2,8.9-11.5,8.9c-8.9,0-9.4-1-5.2-8.3c7.3-13.5,1-14.1-12,0
			c-11.5,12.5-22.4,15.6-30.7,9.4c-5.7-4.2-14.1-32.8-14.1-48.4c0-10.9-1.6-12.5-13-13.5c-8.9-1-13.5-3.6-14.6-8.9
			C2348.9,1532.1,2351,1531.1,2358.8,1533.1z M2325.5,1596.2c9.4-17.2,31.8-40.1,37.5-40.1c0.5,0,0.5,0,1,0.5
			c1.6,1.6-4.2,8.9-12,16.7s-17.7,19.8-21.4,26.6C2319.7,1618.1,2315,1614.9,2325.5,1596.2z M2291.1,1737.4c-1,0-7.3-10.4-15.1-23.4
			c-12-20.8-13.5-26-12.5-49.5c1-33.3,8.9-62,15.6-59.4c7.8,3.1,10.4-2.1,3.6-7.3c-5.7-4.2-5.7-5.2,0-9.9c1.6-1,2.1-1.6,3.1-1.6
			c3.1,0,5.2,4.7,9.4,19.3c9.4,32.8,26,38,69.3,21.9c16.1-6.3,24-7.3,27.1-4.2c3.1,3.1,1,5.7-6.3,8.3c-9.4,3.6-10.9,6.3-10.9,20.3
			c0,19.3-5.2,23.4-18.2,14.6c-11.5-7.8-48.4-8.9-53.1-1.6c-3.6,6.3-10.4,45.8-9.9,61C2292.6,1732.7,2291.6,1737.4,2291.1,1737.4z
			 M2284.8,1794.1c2.1,0,4.2,1.6,4.2,3.6c0,2.1-1.6,4.7-4.2,6.3c-2.1,1.6-4.2-0.5-4.2-4.2
			C2280.7,1796.8,2282.7,1794.1,2284.8,1794.1z M2285.3,1840.5c15.6-14.1,46.4-30.7,57.8-31.8c1.6,0,3.1,0,3.6,0.5
			c4.2,2.6,3.1,3.6-35.4,27.6c-20.3,12.5-29.7,21.9-41.7,41.7c-14.6,23.4-25.5,32.3-25.5,19.8
			C2244.2,1889.5,2267.6,1856.7,2285.3,1840.5z M2199.9,2027c0-4.7-4.2-16.7-8.3-26.6c-11.5-25-13-92.7-2.1-104.7
			c4.2-4.7,6.3-10.9,4.7-15.6c-1.6-5.7,2.6-14.1,14.1-28.7s17.7-20.3,23.4-20.3c2.6,0,5.7,1.6,8.9,3.6c5.2,3.6,5.2,4.7-2.1,10.9
			c-4.7,3.6-8.3,12.5-8.9,19.3c-0.5,6.8-1.6,22.4-3.1,35.4c-1.6,13-1,23.4,0.5,23.4c5.2,0,83.9-16.7,96.9-20.8
			c17.2-5.2,26-4.7,26,1.6c0,7.3-8.3,15.1-16.7,15.1c-6.3,0-6.8,3.1-4.7,26c2.1,22.4,1,28.1-7.3,41.2c-8.9,14.1-8.9,15.1-1.6,12
			c13-5.2,16.1-4.7,16.1,1.6c0,3.1-3.1,6.8-6.8,7.3c-8.3,1.6-50.5-19.3-67.2-33.3l-12.5-10.4l-14.6,20.3
			c-7.8,11.5-16.1,19.3-18.2,18.2c-2.1-1-5.2-8.9-6.3-16.7c-2.1-10.4-4.7-14.1-10.4-14.1c-7.8,0-7.8,0,0.5,10.4
			c4.7,5.7,8.3,15.6,8.3,22.4c0,7.8,2.1,11.5,6.3,11.5c6.3,0,7.8,6.8,3.6,17.7C2212.9,2046.8,2199.9,2041.6,2199.9,2027z
			 M2173.3,2106.7c1.6-3.1,12-9.4,23.4-15.1c9.4-4.7,15.1-6.8,18.8-7.3c0.5,0,1,0,1.6,0c2.1,0,4.2,1,5.7,3.1
			c4.7,4.7,4.7,6.3-2.1,9.9c-4.2,2.1-15.1,4.2-23.4,4.2c-8.9,0-18.2,2.1-21.4,5.2C2171.3,2110.9,2170.7,2110.9,2173.3,2106.7z
			 M2115.5,2253.1c-1.6,1.6-3.1,9.4-3.6,17.2c-1,17.2-5.7,22.9-15.1,19.3c-7.8-3.1-7.3-20.3,0.5-18.8c2.6,0.5,4.7-0.5,4.7-2.6
			s1-6.8,2.6-9.9c4.7-13-9.9-6.3-18.2,7.8c-9.9,16.7-11.5,32.3-3.1,29.2c3.1-1,7.3,2.1,10.4,7.8c3.6,8.3,3.1,13-1.6,22.4
			c-3.6,6.8-6.3,15.6-6.3,19.8c0,4.2-1.6,7.3-4.2,7.3c-2.1,0-4.2-5.2-4.2-11.5s-2.6-13.5-5.7-16.1c-7.3-6.3-10.9-25.5-6.3-31.3
			c2.1-2.6,4.7-12.5,5.2-21.9c1-9.9,4.7-18.8,7.8-20.8c4.7-2.6,5.2-5.2,1.6-13c-3.6-7.8-2.6-13,4.7-28.1c8.9-18.8,17.2-25,13.5-10.9
			c-1.6,5.2,1.6,9.9,8.3,14.6c10.9,7.3,18.8,5.2,18.8-4.7c0-22.9,50-79.2,88.6-100c8.9-4.7,14.6-7.3,17.7-7.3
			c6.8-0.5,0,8.3-19.3,21.9c-22.9,15.6-52.1,49.5-68.8,80.2l-11.5,20.8l11.5-3.1c6.3-1.6,16.1-6.3,21.4-9.9c8.3-6.3,12-6.3,29.2-2.1
			c10.9,2.6,22.9,6.8,27.1,9.4c8.9,4.7,17.2-1,17.2-12.5c0-4.2,4.2-11.5,8.9-16.1l8.9-8.9l-11.5-8.9c-11.5-8.9-11.5-8.9-4.7-22.9
			c3.6-7.8,6.8-19.3,6.8-25.5c0-9.9,0.5-10.4,5.2-4.2c2.6,3.6,9.4,9.4,14.6,12c15.6,7.8,25.5,24,22.4,37c-2.1,9.4-4.2,10.9-12.5,8.9
			c-8.9-2.1-9.4-1.6-6.8,8.3c2.1,9.4,1.6,10.4-4.7,8.3c-11.5-3.6-38,54.2-38,81.8c0,35.4-14.6,40.1-45.3,15.6
			c-17.2-13.5-20.8-25.5-6.8-20.8c6.3,2.1,7.8,1,6.8-2.6c-2.6-7.8-16.1-9.4-21.4-2.6c-2.6,3.1-10.4,6.8-17.7,8.3
			c-10.9,2.1-13,1.6-13-4.7C2131.1,2259.9,2120.2,2248.9,2115.5,2253.1z M2127,2288c2.1,0,4.2,2.6,4.2,5.2
			c0,12.5,30.2,64.6,49.5,85.4c20.8,22.9,23.4,29.2,9.4,21.4c-21.4-11.5-41.2-37-54.2-70.9C2124.9,2302.1,2121.8,2288,2127,2288z
			 M2260.3,2504.7c-5.7-3.1-13-6.3-17.2-7.8c-4.2-1-8.9-5.7-10.4-10.4c-2.6-7.3-3.6-7.8-14.1-2.6c-10.9,5.7-10.9,5.7-10.9-7.8
			c0-17.2-6.8-22.4-10.4-7.8c-2.6,10.4-3.1,10.4-8.3,3.1c-3.1-4.2-5.2-12-4.2-16.7c1-6.8,0-8.9-5.7-8.9c-4.2,0-8.3,2.1-9.9,4.2
			c-1.6,2.6-5.7,3.1-9.4,1.6c-3.6-1.6-9.4-3.1-12.5-3.6c-10.9-2.1-8.9-9.9,2.6-9.4c6.3,0,17.2-2.6,24.5-6.3
			c14.1-7.3,39.6-8.9,35.4-2.6c-1.6,2.1-7.8,4.2-14.6,4.2s-12,1.6-12,4.2c0,2.6,5.2,4.2,12,4.2s12-1.6,12-4.2
			c0-2.6,5.7-4.2,12.5-4.2c9.4,0,12-1.6,10.4-5.7c-1-2.6-0.5-4.2,1-4.2c0.5,0,1,0.5,2.1,0.5c3.1,1,6.8,6.3,7.8,11.5
			c1,5.2,7.8,16.1,14.6,24.5c7.8,9.9,11.5,18.2,9.9,22.9c-1,4.2,0,11.5,2.1,16.1C2274.4,2510,2272.8,2511.5,2260.3,2504.7z
			 M2252.5,2421.9c-3.1-2.1-9.9-4.2-15.1-4.2c-9.4,0-10.4-2.6-15.1-45.3c-2.1-17.2-1.6-19.3,6.8-20.3c12-1.6,11.5-13,0-14.6
			c-9.9-1.6-12-12-4.2-20.3c3.1-3.1,6.3-4.7,8.3-4.7s3.1,2.1,3.1,5.7c0,3.6,3.6,6.3,8.9,6.3c6.8,0,8.3,1.6,6.3,8.3
			c-3.1,12.5,4.7,35.4,14.1,42.2c12,8.3,13.5,4.7,3.1-8.9c-9.4-13-9.4-27.1,0-27.1c3.6,0,6.3,4.2,6.8,12c0.5,6.8,1,14.1,1,16.1
			c0,2.1,3.1,0.5,6.3-4.2c5.7-7.8,6.3-7.8,8.3,0.5c1.6,5.2,6.8,9.4,14.1,10.9c8.3,1.6,10.9,4.2,9.4,8.9c-1.6,3.6-0.5,6.3,2.1,6.3
			c2.6,0,4.2-2.1,4.2-4.7c0-2.6,3.1-2.1,7.3,2.1c4.2,3.6,13,6.8,19.8,6.8s15.6,1,18.8,2.6c10.9,4.2,6.8,9.9-7.8,9.9
			c-7.8,0-15.1,2.1-16.7,4.2c-1.6,2.6-5.2,3.1-8.3,2.1c-3.1-1-6.3-0.5-7.8,1c-4.2,6.8-36.5,8.3-43.2,1.6c-6.3-5.7-7.3-5.2-11.5,2.1
			C2268.2,2426.6,2261.9,2427.6,2252.5,2421.9z M2276.5,2443.8c6.3,0,21.9,3.6,45.3,9.9c75,20.3,108.9,32.8,108.9,39.1
			c0,3.1-1.6,5.7-3.1,5.2c-8.3-1-126.6-39.6-140.1-45.3C2272.8,2446.4,2269.7,2443.8,2276.5,2443.8z M2288.5,2483.4
			c-6.3,1.6-7.8,0.5-6.8-4.7c1-4.7,5.2-7.8,9.4-8.3c0.5,0,1,0,1.6,0c2.6,0,4.2,1.6,4.2,4.7
			C2296.8,2478.7,2293.2,2482.3,2288.5,2483.4z M2557.3,2561c-12.5,4.7-47.9,2.1-57.3-4.2c-7.3-5.2-10.9-5.7-17.2-2.1
			c-15.6,9.4-27.6,1-27.6-19.3c0-5.7-2.6-8.3-8.3-8.3c-8.9,0-10.4,7.8-3.1,15.6c10.9,10.9-18.8,14.6-37.5,4.2
			c-5.2-2.6-4.7-3.1,1-3.6c9.4,0,8.9-6.8-0.5-12c-5.7-3.1-10.9-3.1-18.2,0.5c-8.9,4.2-11.5,3.6-17.2-2.1c-8.9-8.9-3.6-13.5,8.3-7.8
			c6.8,3.1,15.6,2.6,33.3-1.6c18.2-4.7,25.5-5.2,31.3-1.6c6.3,3.6,7.3,3.1,7.3-5.2c0-5.2,2.6-10.9,6.3-12
			c8.9-3.6-8.3-27.6-27.1-38.6c-15.6-8.9-18.8-15.6-10.9-23.4c3.1-3.1-0.5-5.2-11.5-6.8c-26-4.2-33.9-23.4-11.5-27.6
			c1.6-0.5,3.1-0.5,4.7-0.5c10.9-0.5,17.2,4.7,8.9,9.9c-14.1,8.3-2.6,12,32.3,9.9c22.4-1,37-0.5,40.1,2.6c3.1,2.6,9.9,3.1,16.1,1.6
			c8.9-2.1,9.9-1.6,6.3,3.1c-5.7,7.3-2.1,10.9,10.4,10.9c7.3,0,9.4-1.6,7.3-6.3c-3.1-8.3,8.9-12.5,18.2-6.3
			c7.3,4.7,17.2,2.6,14.1-3.1c-1-1.6,5.7-3.1,14.1-3.6c18.8-1,24.5,7.3,13,19.8c-5.7,6.3-11.5,7.8-25,6.8
			c-18.2-1.6-21.9,4.7-5.2,8.9c12,2.6,15.6,12,4.7,12c-4.7,0-12.5,4.2-17.7,9.9c-12.5,13.5-29.7,19.3-47.4,16.1
			c-14.6-2.1-14.1-2.1,7.3,9.9C2527.6,2522.5,2565.1,2557.9,2557.3,2561z M2537.5,2507.9c-31.3-4.7-12.5-7.8,47.4-7.8
			c35.9,0,76.6-2.1,89.6-4.7c7.3-1.6,13-2.1,17.2-2.6c1,0,2.1,0,3.1,0c14.6,0,6.3,7.8-23.4,14.1
			C2653.7,2510.5,2563,2511.5,2537.5,2507.9z M2826.1,2447.4c-24,14.1-47.4,23.4-47.4,18.8c0-2.1,7.8-7.8,17.2-12.5
			c35.4-18.2,85.4-63,111-99c4.2-5.7,8.9-9.9,10.9-9.4c0.5,0,0.5,0,0.5,0.5C2927.2,2354.7,2862,2426.6,2826.1,2447.4z M2990.7,2337
			c-10.9,3.6-13,5.7-10.4,10.9c4.2,7.3-18.8,42.7-32.3,50c-4.2,2.1-7.8,8.3-7.8,14.1c0,5.7-2.1,9.9-5.2,9.9
			c-5.7,0-4.7-18.2,1.6-26.6c1.6-2.1,2.1-19.3,0.5-38.6c-2.6-33.9-2.6-34.4-13-33.3c-5.7,0.5-14.6,4.2-20.3,8.3
			c-14.6,10.4-52.1,18.2-59.4,12.5c-4.2-3.6-7.8-3.1-15.6,2.1c-5.7,3.6-9.9,8.9-9.9,11.5c0,2.6-3.6,0.5-7.8-4.7l-7.3-9.9l-6.8,22.9
			c-6.3,20.8-7.8,22.9-17.2,21.9c-14.1-1.6-16.1,6.3-3.6,12c10.9,5.2,13.5,14.6,5.2,19.8c-2.6,1.6-7.3,7.8-9.9,13.5l-4.7,9.9
			l-2.6-8.9c-5.2-17.2-10.4-9.9-7.8,10.4c2.1,16.7,1.6,20.8-5.7,27.6l-8.3,7.8l14.6,5.2c8.3,3.1,24,6.3,35.4,7.8
			c15.6,2.1,20.8,4.2,21.9,9.9c1,5.7-0.5,6.8-6.3,4.7c-4.7-1.6-9.9,0-13,3.6c-2.6,3.6-9.4,6.3-15.1,6.3c-5.2,0-19.8,6.3-32.3,14.6
			c-14.6,9.4-24,13-26.6,10.4c-2.6-2.6-9.9-0.5-20.8,5.7c-18.2,10.4-25,12-28.7,6.3c-2.1-3.6,22.4-28.1,35.4-35.4
			c3.6-2.1,8.9-10.4,12.5-18.8s8.3-15.1,10.4-15.1s4.2-2.1,4.2-4.2c0-6.8-26.6-16.1-45.3-16.1c-26,0-44.3-6.8-62-21.9l-15.6-13.5
			l15.1-5.2c12-3.6,16.7-3.6,20.8,0c4.7,3.6,8.3,2.6,18.2-5.7c7.3-6.3,17.7-10.4,24.5-10.4c6.3,0,15.6-3.6,19.8-8.3
			c4.7-4.7,11.5-8.3,15.6-8.3c4.2,0,9.9-2.6,12.5-6.3c3.6-4.2,6.8-4.7,12.5-2.1c12,6.3,16.1,4.7,16.1-6.3
			c0-11.5,28.1-40.6,45.8-47.4c3.6-1.6,10.4-8.9,15.1-17.2c5.2-9.4,11.5-14.1,17.2-14.1c11.5,0,17.7-4.2,19.3-13.5
			c1-4.2,7.3-9.4,14.6-12c7.3-2.6,15.1-6.8,17.7-9.4c4.2-4.2,2.6-5.2-7.8-5.2c-13,0-17.2-5.2-8.3-10.4c2.6-1.6,7.3-9.4,10.4-17.2
			l5.7-14.1l13,13c9.4,9.4,14.6,19.3,18.2,34.9c2.6,12,6.8,22.9,8.9,24.5c2.1,1,3.6,5.7,3.6,9.9c0,9.4,3.1,9.9,14.1,1.6
			c11.5-8.9,17.7-7.3,20.8,4.2c2.1,8.3,3.6,9.4,8.3,5.2c4.2-3.1,4.7-5.7,1.6-7.3c-7.3-4.2-0.5-13.5,14.6-20.8
			c10.9-5.2,13-5.2,9.4-0.5c-3.6,4.2-3.6,6.8,0,10.4c3.1,3.1,2.6,7.3-3.6,14.6c-9.4,12-9.9,17.7-1.6,14.6c4.2-1.6,5.2-0.5,3.6,4.2
			C3005.8,2329.2,2998.5,2334.4,2990.7,2337z M3243.9,2484.4c-3.1,7.8-3.6,7.8-6.3-1c-3.1-10.9-5.7-11.5-18.8-1
			c-12.5,9.9-15.1,9.9-47.4-4.2c-19.3-8.3-26.6-13-27.6-19.8c-1.6-9.9-19.8-26-25.5-22.4c-2.1,1-0.5,4.7,3.6,7.8
			c9.4,6.8,5.2,10.9-8.3,7.8c-9.9-2.6-18.2-8.9-65.6-51.1c-12-10.4-25-20.8-29.2-22.9s-9.9-9.9-12.5-16.7c-3.1-8.3-3.6-10.9-1-10.9
			c1,0,2.1,0.5,3.6,0.5c3.6,1,30.7,4.2,59.4,6.3c28.7,2.6,53.7,5.2,55.2,6.3s4.2,6.8,5.2,13c9.9,49.5,16.7,69.8,22.4,70.3
			c39.6,2.6,77.1,1.6,77.1-2.6c0-2.6,2.6-5.7,6.3-7.3c7.3-2.6,7.8,2.6,1,13.5c-4.2,6.8-3.6,9.4,3.6,17.2
			C3245,2473.5,3246,2478.7,3243.9,2484.4z M3262.7,2484.4c-6.8,15.6-17.2,19.8-12.5,4.7c1.6-5.2,3.6-20.3,4.7-34.4
			c1.6-17.7,3.6-25.5,7.8-25.5C3270.5,2429.7,3270.5,2466.2,3262.7,2484.4z M3299.1,2454.7c-1.6,10.9-4.7,24.5-7.3,29.7
			c-2.6,5.7-6.8,9.9-9.9,9.9c-4.2,0-4.7-6.8-3.1-29.2c2.1-26.6,3.6-34.4,9.9-34.4c1.6,0,3.1,0.5,5.2,1
			C3300.7,2434.4,3301.2,2438.1,3299.1,2454.7z M3324.1,2489.6c-4.7,5.7-9.9,6.8-12.5,2.1c-1-1.6-0.5-15.6,0.5-31.3
			c2.1-21.9,4.2-28.7,8.9-29.7c0.5,0,0.5,0,1,0C3334,2430.8,3335.6,2475,3324.1,2489.6z M3356.4,2454.2c-1.6,35.4-9.9,35.9-12.5,1
			c-1.6-20.8,0-32.8,4.2-33.3c0.5,0,0.5,0,1,0c1,0,2.6,1,4.2,2.6C3355.9,2426.6,3357.5,2439.6,3356.4,2454.2z M3379.4,2468.8
			c-6.3,2.1-9.9-2.6-9.9-13c0-5.2-2.1-14.1-4.7-19.3c-3.6-7.8-3.6-11.5,0.5-16.7c2.1-2.6,4.2-3.6,5.7-3.6c5.7,0,9.4,10.9,10.9,29.7
			C3383,2458.4,3382,2467.8,3379.4,2468.8z M3400.2,2457.9c-4.2,0-6.3-3.6-6.3-10.4c0-5.7-2.6-15.6-6.3-22.4
			c-6.8-12.5-5.2-19.8,4.2-19.8c7.8,0,8.9,2.6,12,29.2C3406.5,2454.7,3405.9,2457.9,3400.2,2457.9z M3413.2,2428.7
			c-3.1-9.4-7.3-20.8-9.4-25c-2.1-4.7-2.1-6.3,1-6.3c1,0,2.1,0,3.6,0.5c4.7,1,8.3,5.7,8.9,11.5c0.5,5.7,3.1,12,5.2,14.1
			s3.6,7.8,3.6,13C3426.3,2451.6,3419.5,2447.4,3413.2,2428.7z M3429.4,2408.4c-4.2-9.4-7.8-17.7-8.3-18.8s1-2.6,3.6-3.1
			c3.6-1,17.7,27.6,17.7,36.5C3442.4,2431.3,3435.6,2423.5,3429.4,2408.4z M3450.2,2402.6c-2.1-6.3-7.3-14.1-10.4-18.2
			c-5.7-6.3-4.7-17.7,0.5-18.8c0.5,0,1.6,0,2.6,0c3.6,1,10.9,17.2,18.2,40.6C3465.3,2418.3,3454.9,2414.6,3450.2,2402.6z
			 M3481,2393.8c-5.2,8.9-12.5,3.1-24-19.8c-5.2-10.4-5.7-17.7-2.1-17.2c1.6,0.5,3.6,2.1,6.3,6.3c3.1,4.7,9.4,12.5,14.1,17.7
			C3479.4,2385.4,3482,2391.7,3481,2393.8z M3492.9,2373.5c-3.6,6.3-7.3,4.2-21.4-12.5c-14.6-17.2-15.6-20.3-7.3-20.3
			C3471.6,2340.6,3496.1,2368.2,3492.9,2373.5z M3489.3,2349c-1.6-4.2-6.3-8.9-10.4-10.4c-8.3-2.6-10.9-14.1-3.6-14.1
			c5.7,0,28.1,22.4,28.1,28.1C3503.4,2359.9,3491.9,2357.3,3489.3,2349z M3494,2325.5c-13-6.3-14.6-17.2-3.1-17.2
			c7.8,0,20.3,9.9,20.3,16.1C3511.2,2330.7,3505.4,2331.3,3494,2325.5z"/>
		<path d="M2557.8,1256c3.1,5.2,6.3,5.2,6.3,0c0-2.1-2.1-4.2-4.2-4.2C2557.3,1251.8,2556.8,1253.4,2557.8,1256z"/>
		<path d="M2603.1,1215.4c-3.6,0-6.3,3.1-6.3,7.3s-2.1,9.4-4.7,12c-3.6,3.6-3.6,6.3,0,10.4c2.6,3.1,3.6,6.8,2.1,8.3
			c-1.6,1.6-0.5,2.6,1.6,2.6c6.3,0,8.9-5.2,11.5-24C2608.9,1218.5,2607.8,1215.4,2603.1,1215.4z"/>
		<path d="M2607.8,1291.9c2.6-1,4.7-3.1,4.7-4.7c0-2.6-1.6-3.1-3.1-3.1c-1.6,0.5-3.6,2.1-4.2,4.7
			C2604.2,1291.4,2605.7,1292.5,2607.8,1291.9z"/>
		<path d="M2606.3,1267.5c-1-2.1-2.6-3.1-3.6-3.6h-0.5c-1,0-2.1,2.1-2.1,6.3c0,3.6,2.1,5.2,4.2,3.6
			C2606.8,1272.7,2607.8,1269.5,2606.3,1267.5z"/>
		<path d="M2568.2,1239.3c0-1.6-1-2.6-2.6-2.6c-0.5,0-1,0.5-1.6,0.5c-2.1,1.6-4.2,3.1-4.2,4.2c0,1,1.6,2.1,4.2,2.1
			C2566.7,1243.5,2568.2,1241.9,2568.2,1239.3z"/>
		<path d="M2584.4,1221.6c0-5.2-5.7-10.9-8.9-9.9c-0.5,0-1,0.5-1.6,0.5c-1,1-0.5,4.7,0.5,8.3
			C2577.6,1228.9,2584.4,1229.4,2584.4,1221.6z"/>
		<path d="M2331.7,2401.6c3.6,0,5.2-1.6,3.6-4.2c-1.6-2.6-4.2-4.2-6.3-4.2c-2.1,0-4.2,1.6-4.2,4.2
			C2325.5,2399.5,2328.1,2401.6,2331.7,2401.6z"/>
		<path d="M2197.8,1956.2c3.6,0,5.2-2.1,3.6-4.2s0-6.8,2.6-10.4c4.2-5.2,4.2-7.3-2.6-12c-5.2-3.6-8.3-5.2-10.9-5.2
			c-2.1,0-3.6,2.1-3.6,5.7c0,3.1,2.1,6.3,4.7,6.3s3.6,3.6,2.1,9.9C2192.1,1953.6,2193.1,1956.2,2197.8,1956.2z"/>
		<path d="M2276.5,2166.6c2.1,0,4.2-2.6,4.2-6.3c0-2.6-1-4.2-2.6-4.2c-0.5,0-1,0-1.6,0.5c-2.1,1.6-4.2,4.2-4.2,6.3
			C2272.8,2165.1,2274.4,2166.6,2276.5,2166.6z"/>
		<path d="M2203.6,1913.4c5.2-3.1,5.2-6.3,0-6.3c-2.1,0-4.2,1.6-4.2,4.2C2199.4,1914,2201.5,1915,2203.6,1913.4z"/>
		<path d="M2268.7,2144.2c0-3.1-3.1-6.3-6.8-6.3c-5.2,0-5.7,1-1.6,6.3C2266.6,2152,2268.7,2152,2268.7,2144.2z"/>
		<path d="M2223.9,1976.5c2.1,0,4.2-2.6,4.2-6.3c0-2.6-1-4.2-2.6-4.2c-0.5,0-1,0-1.6,0.5c-2.1,1.6-4.2,4.2-4.2,6.3
			C2220.2,1974.4,2221.8,1976.5,2223.9,1976.5z"/>
		<circle cx="2216.1" cy="1944.2" r="4.2"/>
		<path d="M2203.6,1875.4c2.1,0,4.2-2.1,4.2-4.2c0-1.6-1-2.6-2.6-2.6c-0.5,0-1,0.5-1.6,0.5c-2.1,1.6-4.2,3.1-4.2,4.2
			C2199.9,1874.4,2201.5,1875.4,2203.6,1875.4z"/>
		<ellipse cx="2195.7" cy="2257.8" rx="4.2" ry="6.3"/>
		<circle cx="2189.5" cy="2281.8" r="6.3"/>
		<path d="M2256.7,2152.6c-0.5-0.5-1-0.5-1.6-0.5c-4.2-0.5-7.3,5.7-4.7,10.4c1.6,2.1,4.2,4.2,6.3,4.2
			C2261.4,2166.6,2261.4,2155.7,2256.7,2152.6z"/>
		<path d="M2231.2,1949.4c11.5,3.1,12,3.1,24-2.1l11.5-4.7l-14.1-3.1c-7.8-1.6-17.2-4.2-21.4-5.7c-2.1-1-3.6-1-4.7-1
			c-1.6,0.5-2.6,2.6-2.6,6.3C2223.9,1943.7,2227,1948.4,2231.2,1949.4z"/>
		<path d="M2176.5,2242.7c-1,2.6,1,4.7,4.7,4.7s6.3-3.1,6.3-6.3c0-3.6-2.1-5.2-4.7-4.7C2180.6,2237,2177.5,2239,2176.5,2242.7z"/>
		<ellipse cx="2207.7" cy="2262" rx="4.2" ry="6.3"/>
		<path d="M2206.2,2237c4.2-1.6,6.8,0.5,8.3,6.3c2.6,10.4,9.4,11.5,9.4,1.6c0-10.9-12.5-22.4-20.3-22.4c-2.6,0-4.7,1-5.7,3.6
			C2194.7,2234.4,2198.9,2239.6,2206.2,2237z"/>
		<path d="M2214,2279.2c-2.1,0-4.2,2.1-5.2,5.2c-0.5,2.1,1.6,4.2,5.2,4.2s5.7-2.1,5.2-5.2C2218.1,2280.2,2216.1,2278.6,2214,2279.2z
			"/>
		<path d="M2278,1649.8c-0.5,0-1,0-1.6,0.5c-2.1,1.6-4.2,4.2-4.2,6.3c0,2.1,1.6,4.2,4.2,4.2s4.2-2.6,4.2-6.3
			C2280.7,1651.9,2279.6,1649.8,2278,1649.8z"/>
		<circle cx="2329.1" cy="1648.3" r="4.2"/>
		<path d="M2364,1655c7.3-14.1,7.3-14.6-0.5-14.6c-0.5,0-1,0-1.6,0c-6.8,1-10.4,10.4-6.8,18.8
			C2357.8,1664.9,2358.8,1664.4,2364,1655z"/>
		<path d="M2274.4,1668.6c-7.3,0-7.8,5.7-2.1,16.7c5.7,10.9,7.8,9.9,7.8-4.2C2280.7,1672.8,2278.6,1668.6,2274.4,1668.6z"/>
		<path d="M2177.5,2229.7c7.8-5.7,6.8-11.5,1.6-11.5c-2.6,0-5.7,1-9.4,3.6c-5.2,3.6-9.9,7.8-9.9,9.9
			C2159.3,2237,2168.6,2235.9,2177.5,2229.7z"/>
		<path d="M2402,1598.3c0,3.6,1.6,5.2,4.2,4.2c5.2-3.1,5.2-9.9,0-9.9C2404.1,1592,2402,1594.6,2402,1598.3z"/>
		<circle cx="2392.1" cy="1553.5" r="6.3"/>
		<path d="M2396.8,1576.9c4.7,4.7,9.4,2.6,9.4-3.6c0-3.1-1.6-6.3-3.6-6.3C2397.3,1567.5,2393.7,1573.8,2396.8,1576.9z"/>
		<path d="M2280.7,1956.2c0-4.7-1.6-8.3-3.6-8.3c-8.3,0-16.7,5.2-16.7,10.4c0,3.1,4.2,5.7,9.9,5.7
			C2278,1964.5,2280.7,1961.9,2280.7,1956.2z"/>
		<path d="M2306.2,1953c12.5,2.1,16.7-2.6,11.5-12.5c-2.6-5.2-5.2-7.8-8.3-8.3c-0.5,0-0.5,0-1,0c-2.1,0.5-4.7,3.1-7.3,7.3
			C2295.2,1950.4,2295.8,1951.5,2306.2,1953z"/>
		<path d="M2299.4,1988.5c4.7,0,6.3-3.6,5.2-13s-3.6-14.1-6.3-14.6c-2.6-0.5-5.2,3.6-5.2,13
			C2292.6,1984.3,2294.7,1988.5,2299.4,1988.5z"/>
		<ellipse cx="2286.9" cy="1632.1" rx="6.3" ry="8.3"/>
		<path d="M2277,1970.2c-0.5,0-0.5,0-1,0.5c-2.1,1-2.6,4.2-1,6.3c3.6,6.3,9.9,4.2,7.3-2.1C2281.2,1971.3,2279.1,1969.7,2277,1970.2z
			"/>
		<path d="M2272.8,1935.8c5.2,1.6,10.4,0.5,11.5-1c2.1-5.7-7.8-14.1-15.1-14.1c-0.5,0-1,0-1.6,0s-1,0-1.6,0.5
			C2257.2,1924.4,2260.9,1933.2,2272.8,1935.8z"/>
		<path d="M2307.7,1645.7c-1-1-2.6-1.6-4.2-1.6c-4.7,0.5-10.9,5.2-10.9,9.9c0,3.6,1.6,6.3,3.6,6.3
			C2301.5,1660.8,2310.9,1648.8,2307.7,1645.7z"/>
		<path d="M2436.4,2450c-1,0-2.1,1.6-2.1,4.2c0,2.1,2.1,4.2,4.2,4.2c2.1,0,3.1-1.6,1.6-4.2C2439,2451.6,2437.5,2450,2436.4,2450z"/>
		<circle cx="2454.7" cy="2457.9" r="4.2"/>
		<path d="M2479.1,2475.6c0-3.1-2.6-5.2-5.7-5.2c-6.3,0-11.5,5.7-8.3,8.9C2469.2,2483.4,2479.1,2480.8,2479.1,2475.6z"/>
		<path d="M2454.7,2438.1c-2.1-3.6-4.7-5.7-7.8-6.3c-1,0-2.1,0-3.1,0.5c-11.5,4.2-13.5,5.7-10.9,9.4c1,2.1,7.8,3.6,14.1,3.6
			C2457.8,2445.9,2458.8,2444.8,2454.7,2438.1z"/>
		<path d="M2525.5,2450c1-2.1-1.6-3.6-5.7-3.1c-4.7,0.5-8.3,2.1-8.3,3.6C2511.4,2455.2,2522.4,2454.7,2525.5,2450z"/>
		<path d="M2503.6,2490.7c2.6,0,3.1-1.6,1.6-4.2c-1.6-2.6-3.1-4.2-4.2-4.2c-1,0-2.1,1.6-2.1,4.2
			C2499.5,2488.6,2501,2490.7,2503.6,2490.7z"/>
		<path d="M2495.3,2466.2c2.1,0,4.2-2.6,4.2-6.3c0-2.6-1-4.2-2.6-4.2c-0.5,0-1,0-1.6,0.5c-2.1,1.6-4.2,4.2-4.2,6.3
			S2493.2,2466.2,2495.3,2466.2z"/>
		<path d="M2673.5,2426.1c-2.1,0-4.7,1.6-6.3,4.2c-1.6,2.1,0.5,4.2,3.6,4.2c3.6,0,6.3-1.6,6.3-4.2
			C2677.6,2427.1,2675.5,2426.1,2673.5,2426.1z"/>
		<path d="M2477.1,2450c3.6,0,5.7-2.1,5.2-5.2c-1-3.1-3.1-4.2-5.2-4.2c-2.1,0-4.2,2.1-5.2,5.2C2470.8,2448,2473.4,2450,2477.1,2450z
			"/>
		<path d="M2519.8,2530.8c-4.2,0-8.3,15.1-5.2,17.7c4.7,4.7,6.8,2.1,7.8-7.8C2522.4,2535.5,2521.3,2530.8,2519.8,2530.8z"/>
		<circle cx="2641.2" cy="2438.1" r="4.2"/>
		<path d="M2663.6,2445.9c-3.6,0-6.3,1.6-6.3,4.2c0,5.2,6.8,5.2,9.9,0C2668.8,2448,2666.7,2445.9,2663.6,2445.9z"/>
		<path d="M2479.1,2535c-2.1,0-4.2,1.6-5.7,3.6c-1,2.1-1,4.7,0.5,6.3c5.2,5.2,17.2,2.6,15.1-3.6
			C2487,2537,2482.8,2534.4,2479.1,2535z"/>
		<path d="M2501,2523c-3.6,0-5.2,1.6-3.6,4.2c1.6,2.1,4.2,3.1,6.3,1.6C2509.4,2525.1,2508.3,2523,2501,2523z"/>
		<path d="M2479.1,2514.6c0-4.7-2.6-8.3-6.3-8.3c-0.5,0-0.5,0-1,0c-5.2,1-6.8,8.9-2.1,13.5C2475,2525.1,2479.1,2523,2479.1,2514.6z"
			/>
		<ellipse cx="2294.7" cy="2405.2" rx="6.3" ry="4.2"/>
		<ellipse cx="2124.9" cy="2243.7" rx="6.3" ry="4.2"/>
		<ellipse cx="2570.3" cy="2433.9" rx="6.3" ry="4.2"/>
		<path d="M2220.7,2450.6c-1.6,0-2.6,0-3.6,0c-7.3,0-6.8,3.6,1,12.5c8.9,9.9,14.6,9.4,13-1.6
			C2230.6,2455.2,2227,2451.6,2220.7,2450.6z"/>
		<path d="M2147.3,2251.6c0-3.6-4.7-7.3-8.3-7.8c-0.5,0-1,0-1.6,0c-0.5,0-1,0.5-1,0.5c-1,1-1,4.2,0.5,6.3
			C2140,2256.8,2147.3,2256.8,2147.3,2251.6z"/>
		<circle cx="2248.4" cy="2470.4" r="4.2"/>
		<path d="M2075.9,2316.2c4.2,6.3,14.1,5.2,14.1-1.6c0-3.1-2.1-6.8-4.2-8.3c-1-0.5-2.1-1-3.1-1
			C2078,2305.2,2073.3,2311.5,2075.9,2316.2z"/>
		<path d="M2092.1,2216.1c-1,0.5-1,2.6-1,5.7c0,4.7,1,5.7,2.6,2.6c1-3.1,1-6.3,0-7.8C2092.6,2216.1,2092.1,2216.1,2092.1,2216.1z"/>
		<path d="M2102.5,2227.6c-2.1,0-4.2,3.6-4.2,8.3c0,4.7,1.6,7.3,4.2,5.7C2107.7,2238.5,2107.7,2227.6,2102.5,2227.6z"/>
		<ellipse cx="2244.2" cy="2367.2" rx="4.2" ry="6.3"/>
		<path d="M2258.3,2397.4c-3.6,0-5.2,1.6-3.6,4.2c1.6,2.6,4.2,3.1,6.3,1.6C2266.1,2399.5,2265,2397.4,2258.3,2397.4z"/>
		<path d="M2240,2381.3c-4.2,0-4.7,5.7-1,9.4c4.7,4.7,9.4,3.1,6.8-3.1C2244.7,2383.9,2241.6,2381.3,2240,2381.3z"/>
		<path d="M2295.2,2393.3c3.6,0,5.7-2.1,4.7-4.7c-1.6-4.2-4.7-6.3-7.3-6.3c-0.5,0-1,0-1,0c-1.6,0.5-3.1,2.1-3.1,4.7
			C2289,2390.6,2291.6,2393.3,2295.2,2393.3z"/>
		<circle cx="2143.1" cy="2231.2" r="4.2"/>
		<circle cx="2539.6" cy="1592" r="4.2"/>
	</g>
	<path class="st4" d="M2153.5,991.3c0,0,29.2,0,43.8,12c-0.5-10.9-13.5-27.6-13.5-27.6h-20.3L2153.5,991.3z"/>
	<polygon class="st4" points="2248.4,988.2 2290.6,984.6 2283.3,968.4 2269.7,967.4 2256.7,968.9 2248.4,982 	"/>
	<g>
		<path d="M2388.5,1137.2c-3.6-15.1,7.3-26,3.1-40.6c-2.1-5.7,2.6-14.6,6.3-20.8c3.1-5.2,3.6-7.3,0-12c-3.1-3.1-3.6-8.3-5.7-12.5
			c-1.6-3.1-4.7-6.3-8.9-2.6c-1,0.5-2.6,0.5-3.6,0.5c0.5-1.6,0.5-4.7,1-4.7c12.5-1.6,9.4-13.5,13.5-20.3c4.7-6.8,7.8-14.1,7.8-22.9
			c0-7.3-3.1-11.5-7.8-15.6c-3.6-3.1-7.8-3.1-11.5,0.5c-1.6,1-2.6,2.6-4.2,4.2c-2.6,3.6-6.3,6.8-10.9,4.7c-5.2-2.1-6.3-7.8-7.3-12.5
			c-1-9.4,1.6-18.8-3.6-28.1c-1.6-3.1,2.6-8.3,3.1-13c2.1-12-2.1-23.4-5.7-34.9c-3.6-13-5.2-14.1-16.7-24.5
			c-7.8-6.8-17.2-9.4-28.1-13c-9.9-3.6-19.8-3.6-30.2-3.1c-7.3,0.5-13.5-3.1-21.4-0.5c-7.3,2.1-16.1,0-24,0.5
			c-6.8,0.5-13.5,2.6-20.8,3.6c-7.3,0.5-15.1-0.5-22.4,0.5c-8.9,1-14.1,7.8-16.7,14.6c-4.2,10.9-9.4,22.4-13,33.3
			c-3.1,9.4-4.7,18.2-13,24.5c-1,1,0,4.7,0,7.3c1.6-0.5,3.6-1.6,5.2-1.6c8.9-1,17.7-0.5,25,6.3c1.6,1.6,3.6,3.6,5.7,4.7
			c3.6,1,9.4-2.1,8.3,5.7c-3.6-0.5-7.3-0.5-10.4-2.1c-4.7-2.1-9.4-4.7-13.5-7.3c-8.3-5.7-18.2-1.6-20.3,7.8c-0.5,2.6,0,4.7,0,7.3
			c0.5,13-2.6,25.5-6.8,38c-0.5,1-0.5,2.1-0.5,3.6c-1,25.5-6.8,51.1-3.6,76.1c2.1,17.2,8.3,33.9,21.4,46.4
			c7.8,7.3,15.6,14.6,19.3,25.5c2.6,7.3,10.4,9.9,17.2,9.9c14.1,0.5,28.7,0.5,42.7,0c2.6,0,5.7-1.6,7.8-3.1c2.6-2.1,4.7-6.3,8.9-3.1
			c-2.1,2.6-3.6,6.8-6.3,7.8c-6.8,2.6-13.5,6.8-21.4,6.3c-9.9-0.5-19.8,0-29.7,0c14.6,18.8,30.2,28.1,54.7,33.3
			c4.7,1,7.8,3.6,13.5,3.6c21.4-0.5,43.2,0,64.6-0.5c1,0,3.1-3.1,3.1-4.7c-0.5-2.6-2.1-5.2-3.1-7.8c-0.5-1,0-2.6,0-3.6
			c1,0,10.4,10.9,11.5,11.5c7.3,5.2,5.2,5.2,12.5,10.9c3.1-4.7,7.8-9.4,11.5-15.1c6.3,9.4,14.1,4.7,24.5,6.3
			c16.7,2.1,33.9,1,49,10.4c1,0.5,2.1,3.1,2.1,4.7c0,1-2.6,3.1-3.6,2.6c-10.4-1.6-21.4,2.6-32.3-3.1c-6.8-3.6-17.2,0-25.5-0.5
			c-11.5-1-22.9,3.6-33.9-3.6c-0.5-0.5-1,0-1.6,0c-6.8,3.1-14.1,1.6-20.8,0c-7.8-1-16.1,1-24-0.5c-5.2-1-7.8,8.3-13,2.6
			c-3.6-3.6-7.8-2.1-12-2.6c-4.7-0.5-10.4,1-14.6-0.5c-16.7-6.3-33.9-10.9-49-20.8c-6.3-4.2-13.5-7.3-18.8-12.5
			c-7.8-7.8-15.6-16.7-20.8-26c-4.7-7.8-9.4-15.1-16.1-21.4c-19.8-18.8-30.2-41.7-28.7-69.8c0.5-6.3,0-12.5,0-18.8
			c0-12.5,3.1-24.5,6.8-35.9c0.5-1.6,0.5-3.6,1-5.2c0.5-19.3,6.3-38.6,3.6-57.8c-1-6.8,2.1-12.5,5.2-16.1c6.3-6.8,7.8-14.6,9.4-22.4
			c2.6-11.5,10.9-20.3,11.5-32.3c15.1-18.2,28.7-39.1,51.6-47.9c13.5-5.2,27.6-9.4,42.2-9.9c13.5-0.5,27.1,0,40.6,0
			c5.7,0,11.5,1.6,17.2,3.1c25,7.8,46.9,20.3,65.6,38c8.3,7.8,17.2,15.1,23.4,25.5c7.8,14.1,14.1,28.7,18.2,44.3
			c5.2,18.8,11.5,65.1,6.8,78.1c-2.6,7.3-0.5,15.1-4.2,20.3c-5.2,7.8-6.8,17.2-10.4,25.5c-3.6,7.8-8.9,15.1-10.4,23.4
			c-2.1,8.3-8.3,17.2-0.5,26.6c2.6,3.1,0.5,9.4,0.5,15.1c10.9,0,20.8-1.6,30.2,0.5s17.7,0.5,33.9,5.2c0,6.3-1.6,13-1.6,20.3
			c-10.9-7.3-13-2.6-15.6-1c-9.9,5.7-16.1,1.6-24.5-6.3c-3.1-2.6-8.3-3.1-13-3.6C2407.8,1139.8,2392.1,1143.5,2388.5,1137.2z"/>
		<g id="XMLID_00000128477407738165890370000006501463205557890722_">
			<g>
				<path class="st5" d="M2411.4,934c3.6,12.5,9.4,25.5,7.8,39.6c-0.5,4.7,1,9.9-3.6,13c4.7,2.6,4.2,7.3,3.1,11.5
					c-2.6,17.7-3.6,35.9-10.9,52.6c-0.5,1.6-2.6,2.6-4.2,4.2c-1-1-2.1-2.6-3.1-3.6c-4.2-6.8-5.7-13-0.5-21.4
					c4.7-6.8,6.3-15.6,9.9-23.4c1.6-3.1-4.2-6.8,1-9.4c-3.6-4.7-6.8-9.9-10.4-14.1c-1.6-1.6-5.2-2.6-8.3-2.6
					c-5.7,0-12.5-0.5-17.7,1.6c-5.7,2.6-6.3-2.1-7.3-4.2c-1.6-2.1-0.5-5.7-0.5-8.9c0-12.5-1-25,0.5-37c1.6-13.5-2.6-26.6-8.3-37.5
					c-6.3-11.5-16.7-21.9-30.7-25.5c-12.5-3.6-25-5.7-37.5-8.3c-15.1-2.6-30.2-2.1-44.8-2.6c-7.3,0-15.1,2.6-22.4,3.6
					c-7.8,1-15.6,1.6-23.4,2.1c-1.6,0-3.6-0.5-5.2-1.6c-3.1-2.6-0.5-2.6,1.6-4.2c13.5-10.4,29.7-15.1,45.3-20.8c2.6-1,5.7-1,8.9-1
					c9.9,0,19.8,0,29.7,0c5.7,0,10.9,0,16.7,0c8.3,0,16.1,1,24.5,3.1s14.6,7.3,21.4,10.9c15.1,7.3,27.6,17.2,39.6,29.2
					C2398.4,895,2406.2,914.2,2411.4,934z"/>
			</g>
		</g>
		<path d="M2207.2,1062.7c5.7,2.1,14.6-3.6,21.4,3.6c14.6,0.5,19.3,12,24,22.4c1,2.6,2.1,5.2,2.6,8.3c0.5,2.6,1,6.3,0.5,8.9
			c-0.5,1-4.7,0.5-6.3,1.6c-9.9,9.4-18.8-3.1-28.7-0.5c-4.2-7.3-13.5,0-17.7-6.3c-0.5-0.5-4.7,0-6.3,1c-6.3,5.2-10.9-1-16.1-2.1
			c-4.2-1,0-3.1,0.5-4.7c2.1-6.3,7.3-11.5-1.6-18.2c-5.2-4.2-0.5-13,7.3-13.5C2193.7,1062.2,2199.9,1062.7,2207.2,1062.7z"/>
		<g id="XMLID_00000111875642524426818620000017371779933229316483_">
			<g>
				<path class="st4" d="M2244.7,1096.6c0,0.5,0,1.6,0,2.1c-4.7,0.5-8.9,0.5-13.5,1c0-1,0-2.1,0-3.1
					C2235.9,1096.6,2240,1096.6,2244.7,1096.6z"/>
			</g>
		</g>
		<g id="XMLID_00000170992387286558123720000006424314933950446489_">
			<g>
				<path class="st4" d="M2227,1092.9c0,0.5,0,1,0,2.1c-3.6,0-7.3,0-10.9,0c0-0.5,0-1,0-2.1
					C2219.7,1092.9,2223.3,1092.9,2227,1092.9z"/>
			</g>
		</g>
		<g id="XMLID_00000041979318807255030360000002350721974076080299_">
			<g>
				<path class="st4" d="M2194.2,1069.5c1.6,1,2.1,1.6,3.1,2.1c-1.6,0.5-3.1,1.6-4.7,1.6c-1,0-2.1-1-2.6-1.6
					C2191,1071,2192.6,1070.5,2194.2,1069.5z"/>
			</g>
		</g>
		<g id="XMLID_00000049204716378084826900000015083967817280574855_">
			<g>
				<path class="st4" d="M2231.7,1070c1,0,2.6,2.6,2.6,3.6c0,1-2.1,3.6-2.6,3.6c-4.7-1.6-8.9-3.6-15.1-1c-4.2,1.6-10.4-2.6-15.1-4.2
					c0-0.5,0-1.6,0-2.1C2211.4,1070,2221.3,1070,2231.7,1070z"/>
			</g>
		</g>
		<path d="M2173.3,973.6c2.1,0,3.6,0,5.7,0c9.9,0,11.5-0.5,14.1,8.9c2.1,7.8,3.6,3.6,7.3,2.1c3.6-1,6.8,2.6,4.2,5.2
			c-2.6,3.1-3.6,6.3-3.6,9.9c0,1-2.1,2.1-3.1,3.1c-1.6-1.6-3.6-2.6-4.2-4.2c-1-7.3-8.3-10.4-9.9-17.7c-1.6-6.3-17.2-5.7-21.9,0.5
			c-1.6,2.1-2.6,5.2-4.2,7.3c-0.5,1-2.6,1.6-3.6,2.1c-0.5-1-1-2.1-1-3.1c1-10.9,4.2-14.1,14.6-14.1
			C2169.7,973.6,2171.3,973.6,2173.3,973.6z"/>
		<path d="M2280.1,935.6c2.6,1,4.2,1.6,5.7,2.1c0.5,0.5,0.5,2.1,0.5,3.1c0,1-2.1,2.1-2.1,2.1c-9.9-7.8-14.6,1.6-20.3,6.3
			c-5.2,4.7-9.9,9.9-17.7,10.4c-1.6,0-2.6,0.5-3.6,0.5c0.5-1.6,0.5-4.7,1-4.7c10.4-1.6,15.6-9.9,22.9-15.6
			C2269.7,937.7,2275.4,937.2,2280.1,935.6z"/>
		<path d="M2378.6,1026.2c0-9.4,0-17.2,0-25c0-2.1,1-4.7,2.6-6.3c1.6-1.6,4.2-3.1,6.3-2.6c2.1,0.5,3.6,3.1,5.2,4.7
			c-1.6,1-3.6,1.6-5.2,2.6c-2.6,2.6-6.3,3.6-2.1,9.4C2388.5,1013.2,2388,1021,2378.6,1026.2z"/>
		<path d="M2229.6,1032.5c-9.9,4.7-15.6,8.3-22.4,10.4c-4.2,1-10.4,1.6-13-1c-4.7-4.2-9.4-5.7-15.6-6.8c6.8-2.6,13-3.6,17.7,2.6
			c2.1,2.6,5.2,4.7,7.3,1.6C2209.8,1030.4,2218.1,1033.5,2229.6,1032.5z"/>
		<path d="M2264,967.9c-1,1-1.6,1.6-2.1,2.1c-6.3,3.6-11.5,7.8-9.4,16.1c0,0.5-2.6,2.1-4.2,2.1c-1,0-2.6-0.5-3.1-1.6
			c-2.6-7.8,6.3-20.3,14.1-20.3C2260.9,966.3,2262.4,967.4,2264,967.9z"/>
		<path d="M2268.2,966.3c2.1,0,4.7,0,6.8,0c4.2,0.5,8.9-2.1,12,2.6c2.6,4.2,4.7,9.4,6.8,14.1c0,0-1.6,1.6-2.6,2.1
			c-0.5,0-1.6,0-1.6,0c-1-0.5-2.1-1-2.6-2.1c-2.1-4.2-2.6-9.4-5.7-12c-2.6-2.1-7.8-1-12-1C2268.2,968.4,2268.2,967.4,2268.2,966.3z"
			/>
		<path d="M2265.5,990.3c-2.1-4.7-4.7-7.8-5.2-10.9c0-1.6,3.1-3.6,4.7-5.2c1.6,3.1,4.2,6.3,5.2,9.4
			C2270.8,985.1,2267.6,987.2,2265.5,990.3z"/>
		<path d="M2178.5,986.1c-2.1,2.6-4.2,4.2-5.7,5.7c-2.1-2.6-3.6-5.7-5.2-8.3c0,0,2.6-2.6,3.1-2.6
			C2173.9,982.5,2175.9,984.6,2178.5,986.1z"/>
		<path d="M2190.5,1111.2c5.7,0,11.5,0,17.7,0c-0.5,1.6-1,3.1-1.6,3.1c-5.2,0-10.9,0-16.1,0
			C2190.5,1113.2,2190.5,1112.2,2190.5,1111.2z"/>
		<path d="M2383.8,969.5c-0.5-0.5-1-1-1.6-1.6c1-0.5,1.6-1,2.6-1c0.5,0,1,0.5,1,1C2385.4,968.4,2384.8,968.9,2383.8,969.5z"/>
	</g>
</g>
<g id="i_dont_know_you">
	<path d="M1199.1,2984.5c2.1,0,3.1,1.6,3.1,2.6c0,1.6-1,3.1-3.1,3.1c-15.6-0.5-28.7-1-44.3-1c-19.3,0-40.6,1-46.4,1
		c-2.1,0-3.1-1.6-3.1-3.1c0-1,1-2.6,3.1-2.6h30.2v-210.5h-30.2c-2.1,0-3.1-1.6-3.1-3.1s1-2.6,3.1-2.6c15.6,0.5,28.7,1,44.3,1
		c19.3,0,40.6-1,45.8-1c2.1,0,3.1,1,3.1,2.6s-1,3.1-3.1,3.1h-29.2v210.5H1199.1z"/>
	<path d="M1337.7,2774.1h-30.2c-2.1,0-3.1-1.6-3.1-3.1s0.5-2.6,3.6-2.6c2.6,0,43.2,1,53.1,1c9.4,0,35.4-1,45.8-1
		c26,0,119.8,5.2,119.8,109.9c0,111-104.7,111.5-131.8,111.5c-18.8,0-29.7-0.5-41.7-0.5c-20.3,0-40.6,1-46.4,1
		c-2.1,0-3.1-1.6-3.1-3.1c0-1,1-2.6,3.1-2.6h30.2v-210.5H1337.7z M1369,2983.5c45.3,0,126.1,0,126.1-104.7
		c0-104.7-79.7-104.7-126.1-104.7V2983.5z"/>
	<path d="M1559.1,2877.8c0-60.4,45.3-115.1,108.4-115.1c63,0,108.9,55.2,108.9,115.1c0,60.4-45.8,115.1-108.9,115.1
		C1604.4,2993.4,1559.1,2938.2,1559.1,2877.8z M1744.1,2877.8c0-55.2-18.8-109.4-76.6-109.4c-57.3,0-76.6,54.2-76.6,109.4
		c0,55.2,18.8,109.4,76.6,109.4C1725.3,2987.7,1744.1,2933,1744.1,2877.8z"/>
	<path d="M1837.3,2791.8v161.5c0,27.6,8.9,30.7,26,30.7h5.2c2.1,0,3.1,1.6,3.1,2.6c0,1.6-1,3.1-3.1,3.1c-16.1-0.5-18.2-1-33.3-1
		c-18.2,0-26.6,1-34.9,1c-2.1,0-3.1-1.6-3.1-3.1c0-1,1-2.6,3.1-2.6h5.2c14.1,0,26-3.6,26-22.9V2784c-5.2-9.4-8.9-10.4-12.5-10.4
		h-16.7c-2.1,0-3.1-1.6-3.1-3.1c0-1,0.5-2.6,3.1-2.6c10.9,0.5,20.3,1,27.1,1c11.5,0,23.4-1,30.2-1l113,171.4v-142.7
		c0-19.8-12-22.9-26-22.9h-5.2c-2.1,0-3.1-1.6-3.1-3.1s1-2.6,3.1-2.6c16.2,0.5,18.2,1,33.3,1c18.2,0,26.6-1,34.9-1
		c2.1,0,3.1,1,3.1,2.6c0,2.1-1,3.1-3.1,3.1h-5.2c-17.2,0-26,3.1-26,30.7v186c0,3.6-0.5,5.2-3.1,5.2c-2.1,0-4.2-1-7.3-5.7
		L1837.3,2791.8z"/>
	<path d="M2041,2839.7c0-3.1,3.6-3.1,7.3-4.2c23.4-5.2,32.3-25.5,32.3-33.9c0-4.2-2.1-8.9-4.2-8.9c-4.2,0-5.2,10.9-17.7,10.9
		c-9.9,0-17.2-6.3-17.2-17.2c0-12,9.4-17.7,19.3-17.7c12.5,0,26,9.4,26,29.2c0,29.2-31.3,44.3-41.7,44.3
		C2043.1,2842.8,2041,2842.3,2041,2839.7z"/>
	<path d="M2244.7,2984.5c2.1,0,3.1,1.6,3.1,2.6c0,1.6-1,3.1-3.1,3.1c-15.6-0.5-28.7-1-44.3-1c-19.3,0-40.6,1-45.8,1
		c-2.1,0-3.1-1.6-3.1-3.1c0-1,1-2.6,3.1-2.6h30.2v-210.5h-14.1c-51.6,0-54.2,26-57.3,51.6c-0.5,4.2-1,4.7-3.1,4.7
		c-2.6,0-2.6-2.1-2.6-4.7l3.6-57.3c14.6,0.5,23.4,1,47.9,1h81.8c25,0,33.9-0.5,47.9-1l3.6,57.3c0,3.1,0,4.7-2.6,4.7
		c-2.6,0-3.1-1.6-3.1-4.7c-2.6-25-5.7-51.6-57.3-51.6H2215v210.5H2244.7z"/>
	<path d="M2603.7,2984.5c2.1,0,3.1,1.6,3.1,2.6c0,1.6-1,3.1-3.1,3.1c-18.2-0.5-29.7-1-50.5-1c-26,0-43.8,1-46.9,1
		c-4.2,0-4.7-1.6-4.7-2.6c0-1.6,1-3.1,3.6-3.1h15.1c8.9,0,15.6-0.5,15.6-5.7c0-3.1-2.1-5.7-4.2-8.3l-69.3-89.1l-7.3,9.9v93.3h29.2
		c2.1,0,3.6,1.6,3.6,2.6c0,1.6-1,3.1-3.6,3.1c-15.6-0.5-28.7-1-44.3-1c-19.3,0-40.6,1-45.8,1c-2.1,0-3.6-1.6-3.6-3.1
		c0-1,1-2.6,3.6-2.6h30.2v-210.5h-30.2c-2.1,0-3.6-1.6-3.6-3.1s1-2.6,3.6-2.6c15.6,0.5,28.7,1,44.3,1c19.3,0,40.6-1,45.8-1
		c2.1,0,3.6,1,3.6,2.6c0,1.6-1,3.1-3.6,3.1h-29.2v107.8l59.4-78.1c6.8-8.9,10.4-14.6,10.4-21.4c0-5.7-2.6-8.3-9.9-8.3h-7.8
		c-2.1,0-3.6-1.6-3.6-3.1s1-2.6,3.6-2.6c15.6,0.5,17.7,1,32.8,1c18.8,0,33.9-1,40.6-1c2.1,0,3.6,1,3.6,2.6s-1,3.1-3.6,3.1h-5.2
		c-29.2,0-35.4,7.3-48.4,24.5l-43.8,56.8l85.4,110.4c10.4,13.5,15.1,18.8,22.4,18.8L2603.7,2984.5L2603.7,2984.5z"/>
	<path d="M2652.1,2791.8v161.5c0,27.6,8.9,30.7,26,30.7h5.2c2.1,0,3.1,1.6,3.1,2.6c0,1.6-1,3.1-3.1,3.1c-16.1-0.5-18.2-1-33.3-1
		c-18.2,0-26.6,1-34.9,1c-2.1,0-3.1-1.6-3.1-3.1c0-1,1-2.6,3.1-2.6h5.2c14.1,0,26-3.6,26-22.9V2784c-5.2-9.4-8.9-10.4-12.5-10.4
		h-16.7c-2.1,0-3.1-1.6-3.1-3.1c0-1,0.5-2.6,3.1-2.6c10.9,0.5,20.3,1,27.1,1c11.5,0,23.4-1,30.2-1l113,171.4v-142.7
		c0-19.8-12-22.9-26-22.9h-5.2c-2.1,0-3.1-1.6-3.1-3.1s1-2.6,3.1-2.6c16.1,0.5,18.2,1,33.3,1c18.2,0,26.6-1,34.9-1
		c2.1,0,3.1,1,3.1,2.6c0,2.1-1,3.1-3.1,3.1h-5.2c-17.2,0-26,3.1-26,30.7v186c0,3.6-0.5,5.2-3.1,5.2c-2.1,0-4.2-1-7.3-5.7
		L2652.1,2791.8z"/>
	<path d="M2845.4,2877.8c0-60.4,45.3-115.1,108.4-115.1c63,0,108.9,55.2,108.9,115.1c0,60.4-45.8,115.1-108.9,115.1
		C2891.2,2993.4,2845.4,2938.2,2845.4,2877.8z M3030.3,2877.8c0-55.2-18.8-109.4-76.6-109.4s-76.6,54.2-76.6,109.4
		c0,55.2,18.8,109.4,76.6,109.4S3030.3,2933,3030.3,2877.8z"/>
	<path d="M3217.3,2843.9l-42.2,141.2c-2.6,8.9-4.2,10.4-5.7,10.4c-2.1,0-3.1-1.6-4.7-5.7l-65.1-197.4c-5.7-16.1-9.4-18.8-14.1-18.8
		h-18.8c-2.1,0-3.1-1.6-3.1-3.1s1-2.6,3.1-2.6c17.7,0.5,26.6,1,46.9,1c25.5,0,35.4-1,40.6-1c2.1,0,3.6,1,3.6,2.6s-1,3.1-3.6,3.1h-12
		c-8.9,0-12,0.5-12,5.7c0,2.6,1,4.7,2.1,7.8l49,156.8l32.3-109.9l-14.1-42.2c-5.7-17.7-8.9-18.8-14.1-18.8h-10.9
		c-2.1,0-3.6-1.6-3.6-3.1s1-2.6,3.6-2.6c17.7,0.5,18.8,1,39.6,1c25.5,0,40.1-1,43.2-1c3.6,0,4.2,1,4.2,2.6c0,2.1-1,3.6-3.6,3.6
		h-15.1c-8.9,0-13,0.5-13,6.3c0,2.1,1,4.7,2.1,7.8l49.5,156.3l37-131.3c3.6-10.9,4.7-19.8,4.7-25.5c0-8.9-4.2-13-15.1-13h-16.7
		c-2.1,0-3.6-1.6-3.6-3.1s1-2.6,3.6-2.6c15.6,0.5,19.3,1,33.9,1c18.2,0,25-1,33.3-1c2.1,0,3.6,1,3.6,2.6s-1,3.1-3.6,3.1h-4.2
		c-7.8,0-19.3,0-26,24.5l-53.1,187c-2.1,7.8-3.6,10.4-5.7,10.4c-2.1,0-3.1-2.1-4.2-5.7L3217.3,2843.9z"/>
	<path d="M3573.2,2984.5c2.1,0,3.6,1.6,3.6,2.6c0,1.6-1,3.1-3.6,3.1c-15.6-0.5-28.7-1-44.3-1c-19.3,0-40.6,1-45.8,1
		c-2.1,0-3.6-1.6-3.6-3.1c0-1,1-2.6,3.6-2.6h30.2v-101.1l-42.7-90.6c-8.3-17.7-13.5-18.8-19.3-18.8h-14.6c-2.1,0-3.6-1.6-3.6-3.1
		s1-2.6,3.6-2.6c17.7,0.5,26,1,46.9,1c25,0,34.4-1,40.1-1c2.1,0,3.1,1,3.1,2.6c0,1.6-1,3.1-3.1,3.1h-11.5c-7.3,0-14.1,0-14.1,5.7
		c0,2.1,1,4.7,2.6,7.8l40.6,87l30.2-68.2c2.6-6.8,5.2-13.5,5.2-20.8c0-9.9-4.2-12-15.1-12h-6.3c-2.1,0-3.1-1.6-3.1-3.1
		s1-2.6,3.1-2.6c16.1,0.5,15.6,1,30.2,1c18.2,0,26.6-1,34.4-1c2.1,0,3.6,1,3.6,2.6c0,1.6-1,3.1-3.6,3.1h-5.2c-14.1,0-24,1-33.9,24.5
		l-38,84.9V2984h30.2V2984.5z"/>
	<path d="M3620.1,2877.8c0-60.4,45.3-115.1,108.4-115.1c63,0,108.9,55.2,108.9,115.1c0,60.4-45.8,115.1-108.9,115.1
		C3665.9,2993.4,3620.1,2938.2,3620.1,2877.8z M3805.5,2877.8c0-55.2-18.8-109.4-76.6-109.4c-57.8,0-76.6,54.2-76.6,109.4
		c0,55.2,18.8,109.4,76.6,109.4C3786.8,2987.2,3805.5,2933,3805.5,2877.8z"/>
	<path d="M4039.4,2797c0-19.8-12-22.9-26-22.9h-5.2c-2.1,0-3.1-1.6-3.1-3.1s1-2.6,3.1-2.6c16.1,0.5,17.7,1,33.9,1s17.7-0.5,34.4-1
		c2.1,0,3.1,1,3.1,2.6c0,2.1-1,3.1-3.1,3.1h-5.2c-17.2,0-26,3.1-26,30.7v109.9c0,48.4-11.5,78.7-66.2,78.7
		c-74.5,0-91.2-24.5-91.2-84.9v-134.4h-30.2c-2.1,0-3.6-1.6-3.6-3.1s1-2.6,3.6-2.6c16.1,0.5,29.2,1,45.3,1c16.1,0,29.2-0.5,45.3-1
		c2.1,0,3.6,1,3.6,2.6c0,1.6-1,3.1-3.6,3.1h-29.7v139.1c0,46.4,1,74,60.4,74c48.4,0,60.4-24,60.4-71.4L4039.4,2797L4039.4,2797z"/>
</g>
<g id="thats_my_purse">
	<path d="M1369.5,677.7c2.1,0,3.1,1.6,3.1,2.6c0,1.6-1,3.1-3.1,3.1c-15.6-0.5-28.7-1-44.3-1c-19.3,0-40.6,1-45.8,1
		c-2.1,0-3.1-1.6-3.1-3.1c0-1,1-2.6,3.1-2.6h30.2V467.3h-14.1c-51.6,0-54.2,26-57.3,51.6c-0.5,4.2-1,5.2-3.1,5.2
		c-2.6,0-2.6-2.1-2.6-5.2l3.6-57.3c14.6,0.5,23.4,1,47.9,1h81.8c25,0,33.9-0.5,47.9-1l3.6,57.3c0,3.1,0,5.2-2.6,5.2
		s-3.1-1.6-3.1-5.2c-2.6-25-5.7-51.6-57.3-51.6h-14.6v210.5H1369.5z"/>
	<path d="M1658.1,677.7c2.1,0,3.6,1.6,3.6,2.6c0,1.6-1,3.1-3.6,3.1c-15.6-0.5-28.7-1-44.3-1c-19.3,0-40.6,1-45.8,1
		c-2.1,0-3.6-1.6-3.6-3.1c0-1,1-2.6,3.6-2.6h30.2V575.6h-99.5v102.1h29.2c2.1,0,3.6,1.6,3.6,2.6c0,1.6-1,3.1-3.6,3.1
		c-15.6-0.5-28.7-1-44.3-1c-19.3,0-40.6,1-45.8,1c-2.1,0-3.6-1.6-3.6-3.1c0-1,1-2.6,3.6-2.6h30.2V467.3h-30.2
		c-2.1,0-3.6-1.6-3.6-3.1c0-1.6,1-2.6,3.6-2.6c15.6,0.5,28.7,1,44.3,1c19.3,0,40.6-1,45.8-1c2.1,0,3.6,1,3.6,2.6
		c0,1.6-1,3.1-3.6,3.1h-29.2v102.6h99.5V467.3H1568c-2.1,0-3.6-1.6-3.6-3.1c0-1.6,1-2.6,3.6-2.6c15.6,0.5,28.7,1,44.3,1
		c19.3,0,40.6-1,45.8-1c2.1,0,3.6,1,3.6,2.6c0,1.6-1,3.1-3.6,3.1h-29.2v210.5H1658.1z"/>
	<path d="M1885.8,677.7c2.1,0,3.1,1.6,3.1,2.6c0,1.6-1,3.1-3.1,3.1c-18.2-0.5-26-1-46.9-1c-26,0-43.8,1-46.9,1
		c-4.2,0-4.2-1.6-4.2-2.6c0-1.6,1-3.1,3.1-3.1h18.8c8.9,0,13-0.5,13-6.3c0-2.6-0.5-4.7-2.1-7.8l-22.4-62H1730l-12.5,37
		c-3.6,10.9-5.7,19.3-5.7,26c0,8.9,4.7,13,15.6,13h11.5c2.1,0,3.1,1.6,3.1,2.6c0,1.6-1,3.1-3.1,3.1c-15.6-0.5-20.8-1-35.9-1
		c-18.8,0-26.6,1-34.9,1c-2.1,0-3.6-1.6-3.6-3.1c0-1,1-2.6,3.6-2.6h5.2c18.2,0,28.1-6.8,33.9-24.5l63-187c2.1-6.3,3.6-10.4,6.3-10.4
		c1.6,0,2.6,0.5,4.2,5.7l72.4,197.4c5.7,16.1,8.9,18.2,14.1,18.8H1885.8z M1762.3,503.7l-30.2,92.2h64.1L1762.3,503.7z"/>
	<path d="M2012.4,677.7c2.1,0,3.1,1.6,3.1,2.6c0,1.6-1,3.1-3.1,3.1c-15.6-0.5-28.7-1-44.3-1c-19.3,0-40.6,1-45.8,1
		c-2.1,0-3.1-1.6-3.1-3.1c0-1,1-2.6,3.1-2.6h30.2V467.3h-14.1c-51.6,0-54.2,26-57.3,51.6c-0.5,4.2-1,5.2-3.1,5.2
		c-2.6,0-2.6-2.1-2.6-5.2l3.6-57.3c14.6,0.5,23.4,1,47.9,1h81.8c25,0,33.9-0.5,47.9-1l3.6,57.3c0,3.1,0,5.2-2.6,5.2
		s-3.1-1.6-3.1-5.2c-2.6-25-5.7-51.6-57.3-51.6h-13.5v210.5H2012.4z"/>
	<path d="M2087.4,532.9c0-3.1,3.6-3.1,7.3-4.2c23.4-5.2,32.3-25.5,32.3-33.9c0-4.2-2.1-8.9-4.2-8.9c-4.2,0-5.2,10.9-17.7,10.9
		c-9.9,0-17.2-6.3-17.2-17.2c0-12,9.4-17.7,19.3-17.7c12.5,0,26,9.4,26,29.2c0,29.2-31.3,44.3-41.7,44.3
		C2088.9,536,2087.4,535.5,2087.4,532.9z"/>
	<path d="M2172.3,676.7c0,3.6-1,5.2-3.6,5.2c-2.1,0-2.6-1.6-2.6-5.2v-63.6c0-2.6,0.5-4.7,2.6-4.7c2.1,0,3.6,0,3.6,4.7
		c0,39.1,37.5,67.7,66.7,67.7c31.8,0,54.2-17.7,54.2-51.6c0-71.9-125-30.7-125-114.1c0-39.1,29.2-58.9,61.5-58.9
		c15.6,0,30.7,4.7,45.8,14.6c7.3,4.2,7.8,4.7,9.4,4.7c2.1,0,2.1-1.6,2.1-4.2v-8.9c0-3.6,1-4.7,3.6-4.7c2.6,0,3.6,1.6,3.6,4.7
		c0.5,38,5.7,50,5.7,53.1c0,1,0,2.6-2.1,2.6c-1.6,0-3.6-0.5-4.7-5.2c-6.3-32.3-35.9-50.5-64.1-50.5c-24,0-49,14.6-49,40.1
		c0,59.9,130.8,19.3,130.8,113.6c0,25.5-19.3,70.3-71.4,70.3c-31.8,0-50-24.5-60.4-24.5c-3.6,0-5.7,6.3-5.7,12v2.6H2172.3z"/>
	<path d="M2658.9,677.7c2.1,0,3.6,1.6,3.6,2.6c0,1.6-1,3.1-3.6,3.1c-15.6-0.5-28.7-1-44.3-1c-19.3,0-40.6,1-45.8,1
		c-2.1,0-3.6-1.6-3.6-3.1c0-1,1-2.6,3.6-2.6h30.2V494.3l-62,184.4c-2.1,6.3-3.6,10.4-6.3,10.4c-1.6,0-2.6-1-4.2-5.7l-69.8-190.7
		v153.7c0,27.6,8.9,30.7,25.5,30.7h5.2c2.1,0,3.6,1.6,3.6,2.6c0,1.6-1,3.1-3.6,3.1c-15.6-0.5-18.2-1-33.3-1c-18.2,0-26.6,1-34.9,1
		c-2.1,0-3.6-1.6-3.6-3.1c0-1,1-2.6,3.6-2.6h5.2c13,0,26-3.6,26-22.9V477.1c-4.7-9.9-6.8-10.4-10.9-10.4h-18.2
		c-2.1,0-3.6-1.6-3.6-3.1c0-1,0.5-2.6,3.6-2.6c10.9,0.5,20.3,1,27.1,1c11.5,0,23.4-1,30.7-1l65.1,179.2l59.9-179.2
		c1,0,12.5,1,17.7,1c5.2,0,28.1-1,33.3-1c2.1,0,3.1,1,3.1,3.1c0,1-0.5,2.6-3.1,2.6h-25v210.5h28.7V677.7z"/>
	<path d="M2806.8,677.7c2.1,0,3.6,1.6,3.6,2.6c0,1.6-1,3.1-3.6,3.1c-15.6-0.5-28.7-1-44.3-1c-19.3,0-40.6,1-45.8,1
		c-2.1,0-3.6-1.6-3.6-3.1c0-1,1-2.6,3.6-2.6h30.2V576.7l-42.7-90.6c-8.3-17.7-13.5-18.8-19.3-18.8h-14.6c-2.1,0-3.6-1.6-3.6-3.1
		s1-2.6,3.6-2.6c17.7,0.5,26,1,46.9,1c25,0,34.4-1,40.1-1c2.1,0,3.1,1,3.1,2.6s-1,3.1-3.1,3.1h-10.9c-7.3,0-14.1,0-14.1,5.7
		c0,2.1,1,4.7,2.6,7.8l40.6,87l30.2-68.2c2.6-6.8,5.2-13.5,5.2-20.8c0-9.9-4.2-12-15.1-12h-6.3c-2.1,0-3.1-1.6-3.1-3.1
		s1-2.6,3.1-2.6c16.1,0.5,15.6,1,30.2,1c18.2,0,26.6-1,34.4-1c2.1,0,3.6,1,3.6,2.6s-1,3.1-3.6,3.1h-5.2c-14.1,0-24,1-33.9,24.5
		l-37.5,85.4v101.1C2777.7,677.7,2806.8,677.7,2806.8,677.7z"/>
	<path d="M3035.5,677.7c2.1,0,3.1,1.6,3.1,2.6c0,1.6-1,3.1-3.1,3.1c-15.6-0.5-28.7-1-44.3-1c-18.8,0-40.6,1-45.8,1
		c-2.1,0-3.1-1.6-3.1-3.1c0-1,1-2.6,3.1-2.6h30.2V467.3h-30.2c-2.1,0-3.1-1.6-3.1-3.1c0-1.6,1-2.6,4.2-2.6c2.6,0,42.7,1,53.1,1
		c8.9,0,19.3-0.5,29.2-0.5c33.3,0,84.9,6.3,84.9,55.2c0,61-79.7,59.9-107.3,60.4v100.5h29.2V677.7z M3008.4,571.4
		c30.2,0,73.5-0.5,73.5-51.6c0-51.6-44.3-52.6-75-52.6v103.7h1.6V571.4z"/>
	<path d="M3311.6,490.2c0-19.8-12-22.9-26-22.9h-5.2c-2.1,0-3.1-1.6-3.1-3.1c0-1.6,1-2.6,3.1-2.6c16.1,0.5,17.7,1,33.9,1
		s17.7-0.5,34.4-1c2.1,0,3.1,1,3.1,2.6c0,2.1-1,3.1-3.1,3.1h-5.2c-17.2,0-26,3.1-26,30.7v109.9c0,48.4-11.5,78.7-66.2,78.7
		c-74.5,0-91.2-25-91.2-84.9V467.3h-30.2c-2.1,0-3.6-1.6-3.6-3.1c0-1.6,1-2.6,3.6-2.6c16.1,0.5,29.2,1,45.3,1
		c16.1,0,29.2-0.5,45.3-1c2.1,0,3.6,1,3.6,2.6c0,1.6-1,3.1-3.6,3.1h-29.2v139.1c0,46.4,1,74,60.4,74c48.4,0,60.4-24,60.4-71.4V490.2
		H3311.6z"/>
	<path d="M3461.2,677.7c2.1,0,3.1,1.6,3.1,3.1s-1,2.6-3.1,2.6c-15.6-0.5-28.7-1-44.3-1c-18.8,0-41.7,1-44.8,1c-3.6,0-4.2-1-4.2-2.6
		c0-1.6,1-3.1,3.1-3.1h30.2V467.3H3371c-2.1,0-3.1-1.6-3.1-3.1c0-1.6,0.5-2.6,3.6-2.6c2.6,0,43.2,1,53.7,1c9.4,0,18.2-1,30.2-1
		c34.4,0,80.2,6.8,80.2,53.1c0,33.9-25.5,51.1-54.2,55.2c51.6,9.9,52.1,41.7,52.1,74.5c0,16.1,1.6,34.4,18.2,34.4
		c6.3,0,12-2.6,14.1-3.6c1-0.5,2.1-1,2.6-1c2.1,0,2.1,1,2.1,2.1s-0.5,2.1-1.6,2.6c-1,1-7.3,5.7-22.9,5.7
		c-40.6,0-43.8-27.6-44.3-51.6c-1-38.6-2.1-61-54.2-61H3432v104.7h29.2V677.7z M3443.4,567.3c25,0,59.9-2.6,59.9-48.4
		c0-46.9-35.9-51.6-71.4-51.6v100H3443.4z"/>
	<path d="M3598.2,676.7c0,3.6-1,5.2-3.6,5.2c-2.1,0-2.6-1.6-2.6-5.2v-63.6c0-2.6,0.5-4.7,2.6-4.7s3.6,0,3.6,4.7
		c0,39.1,37.5,67.7,66.7,67.7c31.8,0,54.2-17.7,54.2-51.6c0-71.9-125-30.7-125-114.1c0-39.1,29.2-58.9,61.5-58.9
		c15.6,0,30.7,4.7,45.8,14.6c7.3,4.2,7.8,4.7,9.4,4.7c2.1,0,2.1-1.6,2.1-4.2v-8.9c0-3.6,1-4.7,3.6-4.7c2.6,0,3.6,1.6,3.6,4.7
		c0.5,38,5.7,50,5.7,53.1c0,1,0,2.6-2.1,2.6c-1.6,0-3.6-0.5-4.7-5.2c-6.3-32.3-35.9-50.5-64.1-50.5c-24,0-49,14.6-49,40.1
		c0,59.9,130.2,19.3,130.2,114.1c0,25.5-19.3,70.3-71.4,70.3c-31.8,0-50-24.5-60.4-24.5c-3.6,0-5.7,6.3-5.7,12v2.1H3598.2z"/>
	<path d="M3875.3,677.7c45.8,0,52.1-25,55.7-51.6c0.5-2.6,0.5-5.2,3.1-5.2s2.6,2.1,2.6,4.7c-0.5,10.9-3.1,27.6-3.1,47.4
		c0,3.6,0,6.8,0.5,9.9c-2.6-0.5-23.4-1-123.5-1c-17.7,0-40.1,1-45.3,1c-2.1,0-3.6-1.6-3.6-3.1c0-1,1-2.6,3.6-2.6h30.2V467.3h-30.2
		c-2.1,0-3.6-1.6-3.6-3.1c0-1.6,1-2.6,3.6-2.6c16.1,0.5,28.1,1,45.3,1c101.6,0,115.1,0,123.5-1c0,5.7,0.5,18.8,1,25
		c1.6,19.3,1.6,26,2.1,31.3c0,2.6,0,4.7-2.6,4.7c-2.6,0-2.6-1.6-3.1-4.7c-2.1-25.5-4.2-50.5-58.9-50.5h-45.8v89.6h14.1
		c37.5,0,37-18.2,37-34.9c0-3.1,1-5.2,3.6-5.2c2.6,0,2.6,2.1,2.6,4.7c0,13.5-1.6,22.4-1.6,38.6c0,16.1,1.6,30.7,1.6,42.2
		c0,2.6,0,5.2-2.6,5.2c-3.1,0-3.1-3.6-3.1-5.2c-2.1-27.6-3.6-39.6-37.5-39.6h-14.1v114.6h48.4V677.7z"/>
</g>
</svg>
