<?xml version="1.0" encoding="utf-8"?>
<!-- Generator: Adobe Illustrator 26.4.1, SVG Export Plug-In . SVG Version: 6.00 Build 0)  -->
<svg version="1.1"
	 xmlns:cc="http://creativecommons.org/ns#" xmlns:sodipodi="http://sodipodi.sourceforge.net/DTD/sodipodi-0.dtd" xmlns:inkscape="http://www.inkscape.org/namespaces/inkscape" xmlns:dc="http://purl.org/dc/elements/1.1/" xmlns:rdf="http://www.w3.org/1999/02/22-rdf-syntax-ns#" xmlns:svg="http://www.w3.org/2000/svg" inkscape:output_extension="org.inkscape.output.svg.inkscape" inkscape:version="0.46" sodipodi:docname="Gadsden_flag.svg" sodipodi:version="0.32"
	 xmlns="http://www.w3.org/2000/svg" xmlns:xlink="http://www.w3.org/1999/xlink" x="0px" y="0px" viewBox="0 0 3456 5184"
	 style="enable-background:new 0 0 3456 5184;" xml:space="preserve">
<style type="text/css">
	.st0{fill:#F4DB09;}
	.st1{fill:#2C4933;}
	.st2{fill:#173421;}
	.st3{fill:#1E411E;}
	.st4{fill:#FFFFFF;}
	.st5{fill:#F47820;}
</style>
<rect id="bg" x="0" class="st0" width="3456" height="5184"/>
<g id="bobsnake">
	<path id="path6091" class="st1" d="M1729.1,3041.3c-1.7,0.8-9.7,11-18.5,24.4c-12.6,18.5-19.8,25.7-25.7,26.6
		c-4.6,0.4-9.7,2.5-11.4,4.2c-5.5,5.5-8,3.4-10.5-9.3c-1.3-6.7-3.8-15.2-5.5-19c-5.5-11-19.4-28.2-21.5-26.6c-0.8,0.8,0,3.8,2.1,6.3
		c5.1,6.3,3.4,38.8-2.1,40.5c-2.1,0.8-4.2-0.8-4.2-3.4s-2.1-6.7-5.1-8.9c-4.2-3.4-5.1-3-5.1,1.3c0,3-2.1,5.5-5.1,5.5
		c-3,0-5.1-3-5.1-7.6c0-10.5-6.3-16.4-12.2-11.4c-3.4,3-7.2,0.8-17.3-8.9c-13.5-13.5-14.8-12.6-10.1,4.2c2.5,8.9,2.1,11.4-3,13.9
		c-8,4.2-9.7,4.2-9.7-1.3c0-3.4-22.8-21.5-27.4-21.5c-0.4,0-0.4,4.2,0.4,9.3c2.1,13.9-4.6,15.6-16.4,4.6l-10.1-9.3l2.1,10.5
		l2.1,10.5l-9.7-5.1c-13.1-6.7-13.9-6.3-12.6,5.9c0.8,9.3,3.4,11.8,20.7,21.1c33.3,18.1,89.8,34.6,131.1,38.8l19,2.1l3.8,0.4
		c62,4.2,128.6-1.7,182.9-33.7c-2.5,0-3.4-2.5-2.1-5.5c1.7-4.6,0.4-5.1-8-3.4c-14.3,3-16-2.1-5.9-17.7l8.4-13.1l-22.8,11.4
		c-12.6,6.3-24,11.4-25.7,11c-1.3-0.4-5.9,0.4-10.1,2.1c-4.2,1.3-8.4,2.1-9.3,0.8c-2.5-2.5,10.1-25.7,20.7-38.8
		c10.5-13.1,5.5-9.3-24,15.6c-18.1,15.6-32.5,24-40.9,24c-4.2,0-3.8-24.9,0-39.2C1729.1,3047.6,1729.9,3042.2,1729.1,3041.3
		L1729.1,3041.3z"/>
	<path id="path6089" class="st2" d="M1762.8,3091.5c3.4,0,3.8-0.8,0,12.6c-3,9.7-2.5,10.5,2.5,8.4c19.8-8,14.3,4.2-16.4,16
		c0.4-0.8,0.8-2.1,0.8-3.4C1749.7,3115.5,1759,3091.5,1762.8,3091.5z"/>
	<path id="path3164" class="st2" d="M1697.9,3098.6c1.3,0,2.1,0,3.4,0l12.2,0.4l-8.9,15.6c-6.7,12.2-8.9,14.3-10.1,9.3
		c-1.7-5.9-2.1-5.5-10.5,1.7c-3.4,3-9.3,4.6-13.5,6.3l-6.3-7.6c-5.1-5.9-8.9-13.9-8.9-17.7c0-5.9,0.8-5.5,5.9,3.4l5.9,10.5l11-11.4
		C1686.1,3101.6,1690.3,3099.1,1697.9,3098.6z"/>
	<path id="path9992" class="st1" d="M1274.3,3068.7c-2.1,0-4.2,11-7.6,32.9s-7.2,42.1-8.4,44.7c-1.7,3.4-5.1,0-11-12.2
		c-4.6-9.3-11.4-21.5-14.8-27.4l-6.3-10.1l-3,17.3l-3,17.3l-13.1-17.7l-13.1-17.7l-1.7,14.3l-1.7,14.3l-14.3-11.8
		c-8-6.7-14.8-11.8-15.2-11.8s1.3,6.7,3.4,15.2c8,26.6,6.7,29.9-8,16.4c-7.2-6.3-16-13.1-19.8-15.2c-6.3-3.4-6.7-3-5.1,4.6
		c1.3,4.6,1.3,8.4,0,8.4s-11-8.4-21.5-18.5c-20.7-19.8-21.5-19.4-16,8.9c1.7,9.7,3,17.7,2.5,18.5c-0.4,0.4-8.4-1.3-17.3-3.8
		c-8.9-2.5-21.9-6.3-28.7-7.6l-12.6-3l8.4,8.9c4.6,5.1,8.4,9.7,8.4,11c0,1.3-13.1-1.7-28.7-5.9c-34.6-9.7-34.6-9.7-30.3-1.7
		c3.8,7.2,3,8-11.4,11.4l-9.7,2.5l16.4,6.3c24,9.7,25.3,12.6,4.6,12.6c-18.5,0-48.5,11-39.2,13.9c2.5,0.8,18.1,3.4,34.6,5.5
		c16.4,2.1,36.7,5.5,45.9,7.6l16.4,3.8l-15.6,0.8c-8.4,0.4-15.6,2.5-15.6,4.6c0,3.4-6.7,2.5-23.6-2.5c-3.8-1.3-5.9,0-5.9,3.4
		c0,4.6-3,5.1-21.5,3c-21.1-2.1-21.5-2.1-19.4,4.6c2.5,8,3,8-22.8,3.8c-10.5-1.7-24.4-4.2-30.8-5.1l-11.4-1.7l9.3,9.7l9.3,9.7
		l-12.6,3.4l-12.6,3.4l9.7,3.8c12.6,5.1,35.8,9.3,70.4,12.6l27.8,2.5l-11.4,5.5l-11.4,5.1l11.8,0.4c6.3,0,27.8-2.5,47.6-6.3
		c48.5-8.9,56.9-8.4,35.8,1.7c-20.7,9.7-15.6,9.7,27.8,0c19-4.2,35-7.2,35.8-6.7c0.8,0.8-0.8,3.4-3,6.3c-3.4,4.2-3.4,4.6,0.4,3.4
		c9.7-3.4,62.8-18.1,65.8-18.1c6.7,0,1.7,6.3-12.6,16c-8.4,5.5-13.5,10.1-11.4,10.1c8.9,0,69.1-20.7,84.3-29.5
		c8.9-5.1,20.7-10.1,26.1-11.4c5.5-1.3,12.2-3,15.6-3.8c4.2-1.3,5.9,0,5.9,5.1c0,3.8,0.4,6.7,1.3,6.7c0.8,0,13.1-2.1,27-5.1
		c29.1-5.5,37.1-5.9,37.1-2.5c0,4.2-19.8,14.3-43.8,22.3l-23.2,7.6l19.4-2.1c10.5-1.3,43-6.7,72.1-12.6c29.1-5.9,53.1-10.1,53.5-9.7
		c0.8,0.4-3.8,3.8-9.7,7.6l-11,6.7l26.1,0.8c28.2,1.3,28.2,0.4-3.4,14.3c-7.2,3-11.4,6.3-8.9,7.2c3.8,1.3,30.3-2.5,56.5-7.6
		c7.6-1.7,7.2-0.8-3.4,8.4c-11.4,9.7-11.4,10.1-3.4,10.1c4.6,0,19.8-2.1,33.7-4.6c33.3-6.3,48.1-6.3,48.1,0c0,2.5-4.2,6.7-8.9,9.7
		c-11,5.9-7.2,6.3,21.5,1.3c12.2-2.1,24.9-3,28.2-1.7c5.5,2.1,5.5,3,0.4,10.1l-5.1,8l15.6-4.6c8.4-2.5,16-4.6,16.4-4.6
		s0.8,3,0.8,6.7c0,8.4,0.4,8.4,21.5-5.1c20.7-13.1,24.4-13.9,24.4-5.1c0,8,0,7.6,11.8,1.7c5.1-2.5,10.5-3.8,11.8-3
		c5.9,3.8,1.7,11.4-14.3,25.3c-13.9,12.2-16,15.2-10.1,15.2c12.6,0,48.9-12.6,55.2-19.4c3.4-3.8,8.9-6.7,12.2-6.7s11.4-3.4,17.7-7.2
		c15.6-9.7,21.9-6.3,19.4,9.3l-2.1,12.2l7.6-8.4c4.2-4.6,10.1-11.8,13.1-16.4l5.5-8v8v8l8-7.6c8.4-8,14.8-6.7,14.8,2.5
		c0,4.2,1.3,3.8,5.1-1.7c5.1-7.2,5.5-7.2,13.9-1.7s8.4,5.5,6.3,0c-2.5-7.2,3.4-7.6,12.2-0.8c4.6,3.4,7.6,3.8,10.5,1.3s8-2.5,16,0
		c8,2.1,11.8,2.1,11.8,0c0-3.4,19-1.7,38.4,3c5.9,1.3,7.2,0.8,5.1-3.8c-2.1-5.1-0.4-5.5,13.9-3.4c8.9,1.3,19,3,22.8,4.2
		c5.9,1.7,5.9,1.3,1.7-3.8c-4.6-5.5-4.2-5.5,2.1-3.8c6.7,2.1,55.6,11.8,59.9,11.8c1.3,0-3.4-4.2-10.5-8.9
		c-14.8-10.5-11.4-12.2,15.6-8c16.4,2.5,19,2.1,21.9-3c3-5.9,3.8-5.5,18.5,0.4c11.4,4.6,16,5.5,17.7,2.5c1.7-2.5,8-0.4,21.1,7.2
		c17.3,9.7,18.5,10.1,16.4,3.8c-2.5-8,2.1-9.3,8-2.1c3,3.8,5.5,3.8,8.4,1.3c2.5-2.1,7.6-2.5,11.4-1.3c4.6,1.3,8,0.8,9.7-2.1
		c2.1-3.4,5.1-2.5,12.2,4.6c6.3,6.3,10.1,7.6,11,5.1c1.3-3.4,4.6-3,15.2,1.3c17.3,6.7,18.1,6.7,16-0.8c-2.1-7.6,0-8,12.2-3.4
		c5.9,2.1,10.5,2.1,14.8-0.8c5.1-3,7.2-3,10.5,0c5.5,5.5,9.3,5.1,9.3-0.8c0-3.8,1.7-4.2,8.9-1.3c5.9,2.1,9.3,2.1,11,0
		c3.4-5.1,71.7-5.9,74.6-0.8c6.3,10.1,45.1,19.4,41.3,10.1c-2.1-5.9,47.6-18.5,69.1-17.7c12.6,0.4,20.2-1.7,32-8.4
		c8.4-5.1,15.2-9.3,15.2-10.1s-5.5,0.8-12.2,3.4c-8.4,3-27.8,4.2-59.9,4.2h-47.6l24.4-4.6c13.5-2.5,33.3-7.6,44.3-11.4
		c20.7-7.6,58.2-26.1,56.5-28.2c-0.8-0.8-21.9,3.4-47.6,8.9c-25.7,5.5-49.7,9.7-53.5,9.7c-4.6,0,4.2-6.7,26.1-20.2
		c18.5-11,33.3-20.7,32.5-21.1c-0.4-0.4-11.4,1.7-24,5.5c-34.1,9.7-37.5,8-15.6-6.3c17.7-11.8,34.1-26.1,29.9-26.1
		c-0.8,0-16.9,4.6-35.4,10.1c-18.5,5.5-34.1,9.3-35,8.4s0.8-5.5,3.8-10.1c6.7-10.5,5.1-10.5-10.1,0c-6.7,4.6-13.9,8-16.4,8
		s-13.5,4.6-24.4,10.1c-43.4,11-87.3,16.9-131.5,15.6c-17.3-1.3-46.8-18.5-56.5-19.8c-0.8-3.8-16.4,3.8-19.4,3.8
		c-3,0-8-3.4-11.4-7.2l-5.9-7.2l-10.1,7.2c-12.6,9.3-13.1,8.9-15.6-3l-2.1-10.1l-5.9,9.7c-8.9,14.3-13.1,15.6-13.1,4.6
		c0-5.1-2.5-17.3-5.1-27l-5.1-17.7l-8,16c-4.6,8.9-10.1,18.1-12.6,21.1c-4.2,4.2-4.6,3.8-4.6-2.5s-1.3-7.2-8.9-5.1
		c-7.6,2.1-8.4,1.3-6.3-4.2c1.3-3.4,5.1-13.1,8.4-21.5l6.3-15.2l-21.5,14.8c-11.8,8.4-22.3,14.3-23.2,13.5c-0.8-0.8,0-5.9,2.1-10.5
		c3-7.6-0.4-5.5-18.5,11.4l-88.1,49.3l-64.5,29.5c-8,4.6-21.9,12.6-32.5,15.2c-21.5,4.6-42.1,5.9-104.1,5.5
		c-69.1,0-82.2-0.8-129-9.3c-28.7-5.1-65.8-12.6-82.6-16.9c-71.7-18.1-143.3-64.5-174.9-113.8c-11.8-18.5-12.2-18.5-18.1-12.2
		c-5.9,6.3-5.9,6.3-15.2-2.5c-8.9-8.4-9.3-8.4-9.3-1.7c0,3.8-1.3,7.6-3,8.9c-1.7,0.8-3.8-11-5.1-27
		C1277.7,3080.1,1276.4,3068.7,1274.3,3068.7z"/>
	<path id="path9990" class="st2" d="M1909.9,3236.5c-9.3,8.4-21.1,22.3-29.9,31.2c-12.2,11.8-23.2,20.2-24.4,19s5.9-9.7,15.6-18.1
		c6.7-5.9,15.2-17.7,19.8-24.9L1909.9,3236.5z"/>
	<path id="path4143" class="st2" d="M1878.3,3247.9c-8.9,8.4-19.4,19.4-26.1,27c-7.6,8-14.8,13.5-16.4,12.2c-1.7-1.7,3-8,10.1-14.3
		c5.1-4.6,11.4-11,13.5-15.2L1878.3,3247.9z"/>
	<path id="path3162" class="st2" d="M2229,3223.4l1.7,10.5v8.4l9.7-5.9c3.4-2.1,11.4,0.4,13.1-1.3c19,0.4,67.4-6.7,77.1-6.7
		l13.1,0.4l-13.9,7.2c-7.6,3.8-13.9,8-13.9,9.7c0,1.7,13.9,2.5,31.2,2.5c17.3,0,31.2,1.3,31.2,3c0,1.7-6.7,4.6-14.8,7.2
		c-8,2.1-14.8,5.1-14.8,6.7c0,1.3,7.2,3.8,15.6,5.9c14.3,3,13.1,3.4-17.3,3.4l-32.9,0.4l8-6.7l8-6.7l-8,1.7c-4.6,0.8-16,3-25.7,4.2
		l-17.7,2.1l5.5-7.6c5.9-8,7.2-14.3,3-11.4c-1.3,0.8-10.1,4.6-19,8l-16.4,6.7l1.7-8.4l1.7-8l-13.9,7.2c-10.1,5.1-14.8,5.9-16.4,3.4
		c-1.7-2.5-3.8-1.7-7.6,3.4l-5.1,7.2l-2.5-7.2c-2.1-6.7-2.5-6.7-5.5-1.7c-3,5.5-3.4,5.5-7.6-0.4c-4.2-5.9-4.6-5.9-4.6,0.4
		c0,5.9-0.4,5.9-6.7,0.4c-6.3-5.9-6.7-5.9-6.7,2.5v8.9l-27.8-13.9c-15.2-7.6-27.4-14.3-27-14.8c0.4-0.4,8.9,1.3,18.5,3.8
		c24,6.3,24,6.3,21.5-5.5c-2.1-10.5-0.8-11,15.2-4.6c4.2,1.7,5.9,0.8,5.9-4.6c0-8.9,5.5-8.9,10.1,0.4c3.8,7.2,3.8,7.2,6.3,0.8
		c0.4-1.7,1.3-5.9,1.3-7.2c6.3-0.8,5.9,4.6,8.4,9.7c3.8,6.7,3.8,6.7,11.4-2.1L2229,3223.4z"/>
	<path id="path3160" class="st2" d="M1560.5,3089.8l11.4,11l11.4,11l1.3-9.3c0.8-8.9,1.3-8,6.7,6.3c3.8,11,4.2,15.6,1.7,15.6
		c-6.7,0-21.9-13.5-27.4-24L1560.5,3089.8z"/>
	<path id="path3158" class="st2" d="M1730.3,3100.8c0.8,0,1.3,0.8,1.3,2.5c0,4.2-8,16.9-15.6,25.3c-8.4,9.3-16,12.2-11.4,4.6
		C1717.3,3112.1,1727.4,3100.3,1730.3,3100.8z"/>
	<path id="path3156" class="st2" d="M1614.4,3101.2L1614.4,3101.2c1.3,0.8,3.4,7.2,5.5,13.9c3,11.4,3,15.6-0.4,9.7
		C1617,3121.4,1613.2,3102,1614.4,3101.2z"/>
	<path id="path3154" class="st2" d="M1601.4,3101.6c0.4,0,1.3,0.8,2.5,1.7c2.1,2.1,3.4,8,2.5,13.1c-0.8,6.7-1.7,7.2-1.7,2.1
		c-0.4-3.8-1.7-9.7-2.5-13.1C1600.5,3102.9,1600.5,3101.6,1601.4,3101.6z"/>
	<path id="path3152" class="st2" d="M1282.3,3161c2.1,0,7.2,2.1,17.7,7.6c17.3,8.9,19.4,9.3,20.7,3.8c2.5-9.7,21.9-6.3,44.7,7.2
		c11,6.7,20.2,13.5,20.2,15.2c0,4.6-10.1,3.4-19.8-1.7c-10.5-5.9-13.1-5.9-13.1,0c0,3-1.7,4.2-5.1,3c-3-1.3-6.3,0-7.6,2.1
		c-2.1,3.4-6.7,2.5-21.1-3c-21.1-8-22.8-8-19.8-3.4c3,4.6,0.4,4.2-25.3-3.4c-25.3-7.6-30.3-6.3-18.5,3.4l8,6.3l-13.1-3
		c-18.5-4.2-19.8-3.8-13.5,3.4c5.5,6.3,5.1,6.3-26.6,4.2c-29.5-1.7-32-1.7-27.8,3.4c3.8,4.6,2.5,5.9-10.5,9.3
		c-12.2,3-14.3,4.6-11.4,8.4c3,3.8,1.7,4.6-7.2,4.6c-5.9,0-21.1,0.8-33.3,2.1c-12.2,1.3-21.9,1.3-21.9,0s8-4.6,18.1-7.6
		c10.1-3,18.1-6.7,18.1-7.6c0-1.3-3.4-3.8-7.2-5.9c-6.7-3-5.9-3.8,7.2-3.8h14.3l-16.9-17.7c-9.3-9.7-16.9-19.4-16.9-21.5
		c0-1.7,9.7,2.1,21.5,8.4c27.4,14.8,48.9,21.5,62.8,19c14.8-3,13.5-7.2-3-10.1c-12.2-2.1-13.1-2.5-5.9-4.6c4.6-1.3,13.1-2.5,19-2.5
		c8.9-0.4,10.5-1.3,8.9-5.5c-1.7-4.6,0.8-5.1,23.6-3c13.9,1.3,28.7,3,32.9,4.2c5.9,1.3,7.2,0.4,7.2-5.1
		C1280.6,3163.1,1280.6,3161.5,1282.3,3161z"/>
	<path id="path3150" class="st2" d="M1987.9,3207.4c0.8,0,0.4,0.8-0.4,2.1c-4.2,5.1-3.4,5.5,8.9,5.5c9.3,0,13.9,1.7,15.2,5.5
		c1.7,4.2,4.6,5.1,13.5,3.4c6.7-1.3,11-0.8,9.7,1.3c-0.8,1.7,0,3,2.5,3.4c2.5,0,10.1,2.5,17.3,5.9l13.1,5.9l-21.5-1.3
		c-15.2-0.8-27,0.4-39.2,4.2c-9.7,3.4-19.4,6.3-21.9,7.2c-3.8,1.3-3.8,0.4-0.8-5.5c3.4-6.7,3-7.2-8.4-7.2c-9.7,0-11.4-0.8-7.6-3.4
		c4.6-3.4,2.1-3-26.1,2.5c-8,1.7-5.1-0.4,35.8-24.4C1983.2,3209.1,1986.6,3207.4,1987.9,3207.4z"/>
	<path id="path2212" class="st3" d="M2285,3228.5c-5.1,0-10.1,0-13.9,0.4c-7.6,0.8-1.3,1.3,13.9,1.3s21.5-0.4,13.9-1.3
		C2295.2,3228.5,2290.1,3228.5,2285,3228.5z"/>
	<g>
		<path d="M1719,2448.7c2.1,0,2.5-1.3,1.3-3.4c-1.3-2.1-2.5-3.4-3.4-3.4c-0.8,0-1.7,1.3-1.7,3.4
			C1715.2,2447,1716.9,2448.7,1719,2448.7z"/>
		<path d="M1699.2,2458.8c6.3,4.2,9.7,3.8,9.7,0c0-3.4-5.1-6.3-9.3-6.3c-1.3,0-2.5,0.4-3.4,0.8
			C1695.4,2454.6,1696.2,2457.1,1699.2,2458.8z"/>
		<path d="M1641.4,2861.3c1.3-1.7-0.4-3.4-3-3.4c-3,0-5.1,1.3-5.1,3.4C1633.4,2865.6,1638.9,2865.6,1641.4,2861.3z"/>
		<path d="M1659.5,2856.3c4.2-2.5,4.2-8,0-8c-1.7,0-3.4,2.1-3.4,5.1C1656.2,2855.9,1657.8,2857.6,1659.5,2856.3z"/>
		<circle cx="1613.6" cy="2868.1" r="3.4"/>
		<path d="M1704.2,2482c-0.4,0-0.8,0.4-0.8,0.4c-0.8,0.8-0.8,3.4,0.4,5.1c2.5,4.2,8.4,4.6,8.4,0.4c0-3-3.8-5.9-6.7-6.3
			C1705.1,2481.6,1704.6,2481.6,1704.2,2482z"/>
		<path d="M1659.5,2868.1c0,1.7,1.3,3.4,3.4,3.4c1.7,0,3.4-2.1,3.4-5.1c0-2.1-0.8-3.4-2.1-3.4c-0.4,0-0.8,0-1.3,0.4
			C1661.2,2864.3,1659.5,2866.4,1659.5,2868.1z"/>
		<path d="M1746.8,2478.2c3,0,4.2-1.3,3-3.4s-3.4-3.4-5.1-3.4s-3.4,1.3-3.4,3.4C1741.3,2476.5,1743.8,2478.2,1746.8,2478.2z"/>
		<path d="M1640.1,2873.1c0,2.5,3.4,4.6,8,4.6c10.5,0,10.5-5.5,0-7.2c-2.1-0.4-3.8-0.4-5.1-0.4
			C1641,2870.2,1640.1,2871.5,1640.1,2873.1z"/>
		<path d="M1718.1,2473.6c-4.6,3-3.4,7.2,3,8.9c8,1.7,8.9,0.4,4.2-5.5c-2.1-2.5-4.6-3.8-6.3-3.4
			C1718.5,2473.1,1718.5,2473.1,1718.1,2473.6z"/>
		<path d="M1744.7,2491.3c0-3.4-3.4-5.9-5.9-5.5c-0.8,0-1.7,0.4-2.1,1.3c-0.8,1.7-0.8,3.8,0.4,5.1
			C1740.5,2495.5,1744.7,2495.1,1744.7,2491.3z"/>
		<path d="M1966.4,2655.7c0.8-2.5,0.8-5.1,0-6.3c-0.4-0.4-0.4-0.4-0.8,0c-0.8,0.4-0.8,2.1-0.8,4.6
			C1964.7,2657.3,1965.5,2658.2,1966.4,2655.7z"/>
		<path d="M1993.8,2635.4c1.7,0,3.4-2.1,3.4-5.1c0-2.1-0.8-3.4-2.1-3.4c-0.4,0-0.8,0-1.3,0.4c-1.7,1.3-3.4,3.4-3.4,5.1
			C1990.4,2633.7,1991.7,2635.4,1993.8,2635.4z"/>
		<path d="M1971,2640.1c1.7-1.3,2.5-3.4,1.3-5.1c-0.8-1.7-2.1-2.5-3-3h-0.4c-0.8,0-1.7,1.7-1.7,5.1
			C1967.7,2640.1,1968.9,2641.3,1971,2640.1z"/>
		<circle cx="1993.8" cy="2612.2" r="3.4"/>
		<path d="M2013.2,2640.5c0-6.7-3.8-14.8-6.7-14.8c-3.8,0-6.7,9.3-4.2,14.8C2004.7,2646.4,2013.2,2646.8,2013.2,2640.5z"/>
		<path d="M1949.1,2633.3c2.1-5.1,1.3-7.2-1.7-7.2c-1.3,0-2.5,0.4-4.2,1.3c-3,1.3-5.5,4.2-5.5,6.7
			C1938.1,2640.5,1946.6,2639.6,1949.1,2633.3z"/>
		<path d="M1960.1,2642.2c1.3-3.4-0.4-6.7-2.5-7.2c-0.8,0-1.3,0-2.1,0.8c-1.3,1.3-0.8,3.8,0.4,6.3
			C1958.4,2645.5,1959.2,2645.5,1960.1,2642.2z"/>
		<ellipse cx="1944.5" cy="2987.4" rx="3.4" ry="5.1"/>
		<path d="M1945.3,2649.3c-0.4,0-0.4,0-0.8,0c-2.1,0-3.4,2.5-3.4,7.6c0,5.5,1.7,8.4,4.2,7.2
			C1950.8,2662.4,1950.8,2651,1945.3,2649.3z"/>
		<path d="M1865.2,2609.7c0.8-2.1-0.8-3.8-3.8-3.8c-3,0-5.1-1.7-5.1-3.8c0-1.7-0.4-2.1-0.8-2.1s-1.7,0.8-3,2.1c-3,3-2.5,5.1,0.4,8.9
			C1857.6,2616.5,1863.1,2616,1865.2,2609.7z"/>
		<path d="M1874.1,2600.4c3-1.3,5.1-4.2,5.1-6.7s-0.8-3.4-3-3.4c-0.8,0-1.3,0-2.1,0.4c-3,1.3-5.9,2.1-6.7,2.1s-1.3,2.1-1.3,5.1
			C1866.1,2603.4,1866.5,2603.4,1874.1,2600.4z"/>
		<ellipse cx="1851.3" cy="2625.7" rx="5.1" ry="3.4"/>
		<path d="M1947.8,2779.6c-1.7,0-3,4.2-3,8.9c0,8,0.4,8.4,3,2.5C1951.6,2782.1,1951.6,2779.6,1947.8,2779.6z"/>
		<path d="M1929.3,2779.6c-6.3,0-14.3,4.6-14.3,11c0,1.7,1.7,1.7,3.8-0.4c3-3,5.1-3,8.4,0c5.5,4.2,12.6-1.3,9.3-6.7
			C1935.2,2780.4,1932.2,2779.6,1929.3,2779.6z"/>
		<path d="M1963.4,2774.9c2.1-2.1-2.5-8.4-6.3-8.4c-0.4,0-0.4,0-0.4,0c-1.3,0.4-0.8,2.1,1.3,5.1
			C1960.1,2774.1,1962.6,2775.8,1963.4,2774.9z"/>
		<path d="M1964.3,2785.9c-1.7,0-3.4,1.3-3.4,3.4c0,2.1,1.3,2.5,3.4,1.7C1968.5,2788.4,1968.5,2785.9,1964.3,2785.9z"/>
		<path d="M1981.1,2917c1.3-3.8,3.8-5.9,5.5-5.1c3.4,2.1,8.4-10.5,5.5-13.5c-0.4-0.4-0.8-0.4-1.3-0.4c-2.1,0-5.5,1.7-8.9,3.8
			c-8,5.1-11,14.8-5.9,19.8C1977.8,2922.9,1979.9,2920.8,1981.1,2917z"/>
		<path d="M1538.6,2886.2c0,3,1.3,4.2,3.4,3.4c4.2-2.5,4.2-8,0-8C1539.8,2881.2,1538.6,2883.3,1538.6,2886.2z"/>
		<path d="M1693.7,2470.2c7.2,5.5,11.8,6.3,11.8,1.7c0-3-8-6.7-14.3-6.7C1689,2465.1,1690.3,2467.2,1693.7,2470.2z"/>
		<path d="M1551.6,2872.7c1.7-1.3,2.5-3.4,1.3-5.1c-0.8-1.7-2.1-2.5-3-3h-0.4c-0.8,0-1.7,1.7-1.7,5.1
			C1548.3,2872.3,1549.9,2874,1551.6,2872.7z"/>
		<path d="M1985.8,2934.7c-1.3-3-2.1-5.9-2.1-6.7c0-0.4-0.4-0.4-0.8-0.4s-1.3,0.4-2.5,0.8c-1.7,1.3-3.4,4.2-3.4,6.7s2.5,4.6,5.5,4.6
			C1986.2,2939.7,1987,2938.1,1985.8,2934.7z"/>
		<path d="M1594.2,2650.2c-0.4-0.4-0.8-0.4-1.3-0.4c-3.4-0.4-5.9,4.6-3.8,8.4c1.3,1.7,3.4,3.4,5.1,3.4
			C1598.4,2661.6,1598.4,2652.7,1594.2,2650.2z"/>
		<path d="M1995.5,2943.1c1.3,1.7,4.6,0.8,8.4-2.5c6.3-5.5,7.6-8.4,4.6-8.9c-1.3,0-2.5,0-4.6,0.4
			C1995.9,2934.3,1992.5,2938.5,1995.5,2943.1z"/>
		<path d="M1989.1,2927.1c0.8,1.7,3,3,4.6,3c3.4,0,7.6-10.1,5.1-12.6c-0.4-0.4-0.8-0.4-1.3-0.4
			C1994.2,2917.4,1987.5,2924.1,1989.1,2927.1z"/>
		<path d="M1620.3,2611c4.2-2.5,4.2-8,0-8c-1.7,0-3.4,2.1-3.4,5.1C1617,2610.6,1618.6,2611.8,1620.3,2611z"/>
		<path d="M1532.7,2848.3c-1.3,0.4-3,1.7-3.4,3.8c-0.8,2.1,0.4,3,2.5,2.5c2.1-0.8,3.8-2.5,3.8-3.8
			C1535.2,2848.7,1533.9,2847.9,1532.7,2848.3z"/>
		<path d="M1573.1,2641.7c-5.9,0-9.7,5.5-7.2,11.4c3,8,11.8,5.5,11.8-3.4C1577.8,2645.1,1576.1,2641.7,1573.1,2641.7z"/>
		<path d="M1607.3,2604.2c0-2.5-1.3-5.1-3-5.1c-4.2,0-7.2,5.1-4.6,7.6C1603.5,2610.6,1607.3,2609.3,1607.3,2604.2z"/>
		<path d="M1542.8,2948.2c-0.8-2.5-2.5-3.8-4.2-3.4c-0.4,0-0.4,0-0.8,0.4c-1.7,0.8-2.1,3.4-0.8,5.1
			C1540.3,2954.9,1544.9,2953.7,1542.8,2948.2z"/>
		<path d="M1539.8,2867.7c-0.8-1.7-2.1-2.5-3-3h-0.4c-0.8,0-1.7,1.7-1.7,5.1c0,3,1.7,4.2,3.4,3
			C1540.3,2871.5,1541.1,2869.4,1539.8,2867.7z"/>
		<circle cx="1875.8" cy="2887.5" r="3.4"/>
		<path d="M1576.5,2157.4c-0.4-8-3.4-12.2-6.3-12.2c-2.1,0-4.2,2.5-5.1,8.4c-0.4,4.6-2.5,9.7-4.2,11.8c-2.1,2.5-1.7,4.2,1.3,5.1
			C1572.3,2174.3,1577.3,2169.7,1576.5,2157.4z"/>
		<ellipse cx="2006.8" cy="2905.6" rx="3.4" ry="5.1"/>
		<path d="M2075.6,2889.6c-0.4,0-0.8,0.4-1.3,1.3c-3.4,5.5,0.4,13.1,6.3,13.1c3,0,5.1,2.1,5.1,5.1c0,2.5,1.3,5.1,3.4,5.1
			c6.3,0,3.4-11.8-4.6-19.4c-3.4-3.4-6.3-5.1-8-5.1C2076,2889.6,2075.6,2889.6,2075.6,2889.6z"/>
		<path d="M2087.8,2918.7c-1.3,0-2.5,1.3-4.2,3.8c-2.5,3.4-4.6,8.4-4.6,11.4c0,7.6,4.2,7.2,11.4-0.8c4.6-5.5,5.1-7.2,1.7-11.4
			C2089.9,2919.5,2089,2918.7,2087.8,2918.7z"/>
		<path d="M1608.5,2158.7c-1.3,0-2.1,0.8-3,1.7c-1.3,1.7-0.4,5.5,1.7,8c4.2,5.5,9.7,3.4,9.7-3.4
			C1617,2161.2,1611.9,2158.3,1608.5,2158.7z"/>
		<path d="M1620.8,2155.3c3.8-2.5-10.1-21.1-15.6-21.1c-2.1,0-5.1-3.4-6.3-7.2c-0.8-3-2.1-4.6-3.4-4.6c-0.8,0-1.7,0.4-2.5,1.3
			c-2.1,2.1-7.2,3.8-11,3.8c-9.3,0-10.1,5.5-1.3,8c3.4,1.3,6.7,5.1,7.2,9.3c1.3,9.3,12.6,11.8,12.6,3c0-3.8-1.7-7.2-4.2-8
			c-2.1-0.8-3-2.5-1.7-4.2c1.3-1.7,7.2,3,12.6,9.3C1613.2,2152,1619.1,2156.2,1620.8,2155.3z"/>
		<path d="M1589.1,2157c-2.5,0-4.6,1.3-4.6,3.4c0,1.7,3,3.4,6.7,3.4s5.9-1.3,4.6-3.4C1594.6,2158.3,1591.7,2157,1589.1,2157z"/>
		<circle cx="2055.7" cy="2907.3" r="3.4"/>
		<circle cx="1990.4" cy="2949.9" r="3.4"/>
		<path d="M2059.1,2887.5c6.7,0,8.9-8,3.4-16c-1.3-1.7-2.1-2.5-3-2.1c-0.8,0.4-2.1,1.7-3.4,4.6c-2.1,3.8-3.8,8.4-3.8,10.1
			C2052.8,2885.8,2055.7,2887.5,2059.1,2887.5z"/>
		<path d="M2072.2,2861.3c1.7,0,3.4-2.1,3.4-5.1c0-2.1-0.8-3.4-2.1-3.4c-0.4,0-0.8,0-1.3,0.4c-1.7,1.3-3.4,3.4-3.4,5.1
			C2068.8,2859.7,2070.5,2861.3,2072.2,2861.3z"/>
		<path d="M2074.3,2881.2c3,0,4.6-1.7,3.8-3.8c-1.3-3.4-3.8-5.1-5.9-5.1c-0.4,0-0.8,0-0.8,0c-1.3,0.4-2.5,1.7-2.5,3.8
			C2068.8,2878.6,2071.3,2881.2,2074.3,2881.2z"/>
		<path d="M2066.7,2914.9c4.2,9.3,12.2,12.2,12.2,4.2c0-2.5-2.1-6.3-5.1-8.4c-3-2.1-5.1-6.3-5.1-8.4c0-2.5-1.3-4.6-3.4-4.6
			c-0.4,0-0.4,0-0.8,0C2061.2,2898,2062.1,2904.8,2066.7,2914.9z"/>
		<path d="M1980.7,2892.5c1.7-1.3,3.4-3.4,3.4-5.5c0-1.3-0.8-2.1-2.1-1.7c-0.4,0-0.8,0.4-1.3,0.4c-1.7,1.3-3.4,3.4-3.4,5.1
			C1977.3,2893,1978.6,2893.4,1980.7,2892.5z"/>
		<path d="M1679.3,2925.4c-0.4-0.4-0.8-0.4-1.3-0.4c-1.3,0-2.1,1.3-2.1,3.4c0,3,1.3,5.1,3.4,5.1
			C1683.6,2933.4,1683.6,2927.9,1679.3,2925.4z"/>
		<path d="M1753.5,2979.8c0.8-2.5,0.8-5.1,0-6.3c-0.4-0.4-0.4-0.4-0.8,0c-0.8,0.4-0.8,2.1-0.8,4.6
			C1751.8,2981.5,1752.7,2982.3,1753.5,2979.8z"/>
		<path d="M1713.1,2917.8c2.1-1.7,8-4.2,12.6-5.1c5.1-1.3,8.9-4.2,8.9-7.2c0-3-0.8-3.8-3-3.8c-0.8,0-1.7,0.4-2.5,0.8
			c-3,1.3-8.9,3.4-13.1,4.2c-8.4,1.7-11.8,5.9-8.9,10.5C1708.4,2919.1,1711,2919.5,1713.1,2917.8z"/>
		<path d="M1889.3,2917c0,2.5-1.3,8.4-2.1,12.2c-1.3,4.2-0.4,7.2,1.3,7.2c5.1,0,7.2-9.3,4.2-17.3c-1.3-2.5-2.1-4.2-2.5-4.2
			C1889.3,2915.3,1889.3,2916.1,1889.3,2917z"/>
		<path d="M1890.9,2747.1c-0.8,0-1.7,0-3,0c-14.8,0.8-15.6,1.7-11.4,11c4.2,9.7,10.5,11,8,1.7c-1.7-6.7,2.1-8.9,5.9-3.4
			c3.4,5.5,8,3.4,8-3.4C1898.5,2748.4,1897.3,2747.1,1890.9,2747.1z"/>
		<path d="M1709.3,2980.2c-1.3-0.4-2.5-0.8-3.4-0.4c-1.3,0-2.1,0.4-2.5,0.8c-1.3,1.3,0.8,1.7,4.2,1.7
			C1711.4,2981.9,1711.8,2981.5,1709.3,2980.2z"/>
		<path d="M1728.2,2920.4c-5.5,0.4-11,2.5-13.1,6.3c-1.7,3.4-3.4,8.9-3.4,11.8c0,8,8,4.2,9.3-4.2c1.3-8,6.7-9.3,13.1-3.4
			c4.6,4.6,8.9,1.3,6.3-5.5C1738.8,2921.6,1733.7,2919.9,1728.2,2920.4z"/>
		<path d="M1859.3,2885.8c-0.4-0.4-0.8-0.4-1.3-0.4c-1.3,0-2.1,1.3-2.1,3.4c0,3,1.3,5.1,3.4,5.1
			C1863.5,2894.2,1863.5,2888.3,1859.3,2885.8z"/>
		<path d="M1847.1,2866.4c-4.2-0.8-7.2-1.3-9.3-0.8c-3.4,0-4.6,1.3-4.6,3.8c0,3,2.5,5.1,6.3,5.1c3.4,0,7.2,1.3,8.4,3.4
			c3,5.1,11.4,3.8,13.5-1.7C1864,2869.4,1863.5,2868.9,1847.1,2866.4z"/>
		<path d="M1834,2884.1c-2.5,0-3.8-1.3-2.5-3.4c1.3-2.1,0-3-2.1-3.4c-2.1,0-5.5,0.8-8.9,3c-2.5,1.7-3.8,5.1-2.5,8.4
			c1.7,4.6,3,4.6,7.2,1.7c3.8-3.4,4.6-3,4.6,0.8c0,3,3.4,5.1,10.1,5.1c9.7,0.4,10.1,0,4.2-5.9
			C1841.2,2887.1,1836.6,2884.1,1834,2884.1z"/>
		<path d="M1805.4,2884.1c-5.1,0-6.3,3.8-2.5,7.6s7.6,2.5,7.6-2.5C1810.4,2886.6,1807.9,2884.1,1805.4,2884.1z"/>
		<path d="M1726.6,2943.5c-0.8,0-1.7,1.3-1.7,3.4c0,1.7,1.7,3.4,3.4,3.4c1.7,0,2.5-1.3,1.3-3.4
			C1728.7,2944.4,1727.4,2943.5,1726.6,2943.5z"/>
		<path d="M1911.6,2742.1c2.5-3,3-5.1,0.4-6.7c-1.3-0.8-2.5-1.3-3.4-0.8c-3.4,0-6.7,3.4-6.7,7.6
			C1901.9,2748,1906.5,2748,1911.6,2742.1z"/>
		<path d="M1564.7,2698.6c8.9-2.5,8-4.2-1.7-4.2c-4.6,0-7.6,1.3-6.7,3C1557.1,2699.1,1560.9,2699.5,1564.7,2698.6z"/>
		<path d="M1764.5,2674.6c1.7,0,3.4-1.7,3.4-3.4c0-1.3-0.8-2.1-2.1-2.1c-0.4,0-0.8,0.4-1.3,0.4c-1.7,1.3-3.4,2.5-3.4,3.4
			C1761.1,2673.8,1762.8,2674.6,1764.5,2674.6z"/>
		<circle cx="1721.9" cy="2619" r="3.4"/>
		<path d="M1706.7,2681.4c-5.5,0-5.5,0.4-1.3,3.4c2.5,1.7,8,2.5,11.4,1.7c3.8-0.8,7.6-1.7,8.9-1.7c1.3,0,2.5-3.8,2.5-8.9v-8.9
			l-7.6,7.2C1716.4,2678,1710.5,2681.4,1706.7,2681.4z"/>
		<path d="M1557.1,2717.2c4.2,0,7.2-1.3,7.2-3.4c0-2.1-0.8-3-2.5-3s-4.2,0.8-7.2,3C1550.8,2716.3,1551.2,2717.2,1557.1,2717.2z"/>
		<path d="M1583.7,2704.1c3.8,0,8.4-2.1,10.5-5.1c3.4-4.2,3-5.1-2.5-5.1c-3.8,0-8.4,2.1-10.5,5.1
			C1577.8,2703.3,1578.2,2704.1,1583.7,2704.1z"/>
		<path d="M1564.7,2686c4.2-2.5,4.2-5.1,0-5.1c-1.7,0-3.4,1.3-3.4,3.4C1561.3,2686.4,1563,2687.3,1564.7,2686z"/>
		<circle cx="1744.7" cy="2619" r="3.4"/>
		<path d="M1775.9,2717.2c-0.8,0-1.7,1.3-1.7,3.4c0,1.7,1.7,3.4,3.4,3.4c1.7,0,2.5-1.3,1.3-3.4
			C1778,2718.5,1776.7,2717.2,1775.9,2717.2z"/>
		<path d="M1738.4,2627.8c0-2.1-1.3-2.5-2.5-2.5c-1.3,0.4-3,1.7-3.4,3.8c-0.8,2.1,0.4,3,2.5,2.5
			C1736.7,2631.2,1738.4,2629.5,1738.4,2627.8z"/>
		<path d="M1812.1,2716.8c2.5-4.2-4.6-10.5-9.7-10.5c-1.3,0-2.1,0.4-3,0.8c-1.7,1.7-2.1,5.5-1.3,8
			C1800.7,2721.4,1808.7,2722.3,1812.1,2716.8z"/>
		<circle cx="1829.8" cy="2740.4" r="3.4"/>
		<path d="M1802.8,2723.9c-1.7,0-1.7,1.7,0.8,4.6c2.1,2.5,6.3,5.1,9.3,4.6c4.6,0,4.2-0.8-0.8-5.1
			C1807.9,2725.6,1804.5,2723.9,1802.8,2723.9z"/>
		<path d="M1737.9,2668.3c-1.3,2.5-2.1,5.5-0.8,6.7c0.8,1.3,5.5,2.5,10.1,2.5c5.9,0,8-1.7,7.2-5.9c-0.8-4.2-5.5-7.2-9.7-7.2
			C1741.7,2665.3,1739.2,2666.2,1737.9,2668.3z"/>
		<path d="M1823.9,2726c5.9-2.1,7.2-8.9,1.3-8.9c-3,0-5.1,2.1-5.1,5.1C1820.1,2725.2,1821.8,2726.9,1823.9,2726z"/>
		<path d="M1979,3038.4c-3,0-5.1,2.1-5.1,5.1s1.7,4.6,3.8,3.8C1984.1,3045.1,1984.9,3038.4,1979,3038.4z"/>
		<path d="M1983.7,3064.5c-1.7,0-3.4,1.3-3.4,3.4s1.3,2.5,3.4,1.7C1987.9,3066.6,1987.9,3064.5,1983.7,3064.5z"/>
		<path d="M1994.2,3046.4c-0.4,0-1.3,0-2.1,0.4c-2.5,0.8-5.1,3.8-5.1,6.3s2.1,4.6,5.1,4.6c2.5,0,5.1-3,5.1-6.3
			C1996.7,3048.1,1996.3,3046.4,1994.2,3046.4z"/>
		<path d="M2023.3,3090.6c-6.7,0-8,5.1-4.6,14.3c3.4,9.3,11,5.9,11-4.6C2029.6,3092.7,2028.3,3090.6,2023.3,3090.6z"/>
		<path d="M1811.7,3170.7c-1.3,0-3,0.8-5.9,2.1c-4.6,2.1-7.6,5.1-6.7,6.7c3,4.6,12.6,1.3,13.9-4.6
			C1813.4,3171.6,1813.4,3170.3,1811.7,3170.7z"/>
		<path d="M1964.3,3055.2c-1.7-0.4-2.1-3-1.3-5.9c0.8-3-0.4-4.6-3-4.6c-3.4,0-4.6,4.2-4.6,14.3c0,10.1,1.3,13.9,3.8,12.6
			C1964.7,3070,1968.5,3056.5,1964.3,3055.2z"/>
		<path d="M1980.7,3018.1c0,2.1,3,3.4,6.7,3.4c9.3,0,8-6.3-2.1-10.1c-3.8-1.3-6.7-2.1-9.7-2.1c-4.6,0-7.6,2.1-7.6,5.5
			c0,2.1,2.5,3,6.7,1.7C1977.8,3015.6,1980.7,3016,1980.7,3018.1z"/>
		<path d="M2129.5,3115.5c3,0,5.1-2.1,5.1-4.6s-1.7-3.4-3.8-3.4c-2.1,0.4-4.2,1.7-5.1,4.6
			C2124.9,3114.2,2126.6,3115.5,2129.5,3115.5z"/>
		<path d="M2116.4,3119.7c3-4.6-4.6-13.1-11.8-13.1c-7.6,0-7.6,2.5-0.8,10.5C2110.1,3123.9,2113.5,3124.8,2116.4,3119.7z"/>
		<circle cx="2026.2" cy="3067.9" r="3.4"/>
		<path d="M2147.6,3126.9c4.2-8,4.6-16.4,0.4-16.4c-3.8,0-13.5,18.5-11,21.1C2140.5,3134.9,2144.3,3133.2,2147.6,3126.9z"/>
		<path d="M2136.2,3147.5c-3-1.3-6.7-5.5-8.4-9.7c-1.7-4.2-5.1-7.6-8-7.6c-7.6,0-5.9,5.9,3.8,16.4c9.7,10.1,12.2,11.4,15.6,6.3
			C2140.5,3150.9,2139.2,3148.4,2136.2,3147.5z"/>
		<path d="M2043.1,3077.6c-1.7,0-4.2,1.3-5.5,3.4c-1.3,1.7-0.4,3.4,1.3,3.4c1.7,0,4.2-1.3,5.1-3.4
			C2045.6,3078.8,2045.2,3077.6,2043.1,3077.6z"/>
		<path d="M2145.5,3138.3c-1.3,0-2.1,0.8-3,1.7c-1.3,1.7,0.4,6.3,3.8,9.7c7.2,8,14.3,8,14.3,0.4
			C2160.7,3144.2,2151,3137.8,2145.5,3138.3z"/>
		<path d="M2097.5,3123.1c-1.3,0.4-4.2-3.4-5.9-7.6c-1.7-4.6-5.5-8-8-8c-0.4,0-0.8,0-1.3,0c-6.7,0.8-3.4,8.4,8.9,18.5
			c14.3,12.2,17.3,13.1,17.3,4.2C2108.4,3123.9,2105.1,3121.8,2097.5,3123.1z"/>
		<path d="M1940.7,3061.1c-1.3,0-2.5,0.4-4.2,0.8c-3,1.3-5.1,5.1-5.1,8.4c0,8.9,8.9,8.4,11.4,0
			C1944.9,3064.5,1944,3061.1,1940.7,3061.1z"/>
		<path d="M1842.9,3138.3c3.4-4.2,3-5.1-3-5.1c-3.8,0-7.2,2.1-7.2,5.1C1833.2,3144.6,1837.8,3144.6,1842.9,3138.3z"/>
		<path d="M1847.1,3157.7c-0.4-2.5-2.5-3.4-4.6-3c-2.1,0.4-4.2,1.7-5.1,4.2c-0.8,3,0.8,3.8,4.6,3.4
			C1845.4,3161.5,1847.5,3159.3,1847.1,3157.7z"/>
		<path d="M1847.5,3235.2c-0.4,0-0.8,0-1.7,0.4c-2.5,0.8-5.1,3.4-5.9,5.9c-0.8,2.5,0.4,3.8,3,3c2.5-0.8,5.1-3.4,5.9-5.9
			C1849.6,3236.5,1849.2,3235.2,1847.5,3235.2z"/>
		<path d="M1818,3147.5c-0.4,0-0.8,0.4-1.3,0.4c-1.7,1.3-3.4,2.5-3.4,3.4s1.3,1.7,3.4,1.7c1.7,0,3.4-1.7,3.4-3.4
			S1819.3,3147.1,1818,3147.5z"/>
		<path d="M1880,3225.1c3-3,2.1-6.3-0.8-6.3c-0.8,0-2.1,0.4-3.4,1.3c-2.1,1.3-2.5,3.8-1.7,5.5
			C1875.8,3227.6,1877.9,3227.6,1880,3225.1z"/>
		<path d="M1915,3080.9c-1.7,0-3.4,1.3-3.4,3.4s1.3,2.5,3.4,1.7C1919.2,3083.1,1919.2,3080.9,1915,3080.9z"/>
		<path d="M1831.1,3176.2c-0.8,0.4-0.8,2.1-0.8,4.6c0,3.8,0.8,4.6,2.1,2.1c0.8-2.5,0.8-5.1,0-6.3
			C1831.5,3176.2,1831.5,3176.2,1831.1,3176.2z"/>
		<circle cx="1823.5" cy="3238.2" r="3.4"/>
		<path d="M1861.4,3215.8c0.8-2.5,0.8-5.1,0-6.3c-0.4-0.4-0.4-0.4-0.8,0c-0.8,0.4-0.8,2.1-0.8,4.6
			C1859.7,3217.5,1860.6,3218.4,1861.4,3215.8z"/>
		<path d="M1882.5,3102c-0.4-0.4-0.8-0.4-1.3-0.4c-1.3,0-2.1,1.3-2.1,3.4c0,3,1.3,5.1,3.4,5.1
			C1886.7,3110.4,1886.7,3104.5,1882.5,3102z"/>
		<path d="M1858.1,3136.6c-5.5,0-9.3,4.6-5.9,7.6c3.4,3.4,6.7,2.5,8.9-3C1861.9,3138.3,1860.6,3136.6,1858.1,3136.6z"/>
		<path d="M1866.5,3146.3c-0.8,2.5,0.4,3.8,3,3c2.5-0.8,5.1-3.4,5.9-5.9c0.4-1.7,0-3-1.3-3.4c-0.4,0-0.8,0-1.7,0.4
			C1869.9,3141.2,1867.3,3143.7,1866.5,3146.3z"/>
		<path d="M1847.1,3228c-0.4,1.7,1.3,3.4,4.2,3.4s4.6-1.7,4.2-4.2c-0.8-2.5-2.5-3.4-4.2-3.4
			C1849.2,3224.3,1847.5,3225.5,1847.1,3228z"/>
		<path d="M1846.3,3180.8c-2.1,0.4-3.4,2.1-3.4,4.6c0,1.7,3,3.4,7.2,3.4c5.9,0,6.3-0.8,3-5.1
			C1850.9,3181.7,1848.4,3180.4,1846.3,3180.8z"/>
		<path d="M1949.1,3078c-0.8,0.4-0.8,2.1-0.8,4.6c0,3.8,0.8,4.6,2.1,2.1c0.8-2.5,0.8-5.1,0-6.3C1949.5,3078,1949.1,3078,1949.1,3078
			z"/>
		<path d="M1824.8,2562.1c-0.8-0.8-1.7-1.3-2.5-1.3c-2.5,0-4.6,3.4-3,7.2c0.8,2.5,3.4,4.6,4.6,4.6
			C1827.3,2573,1827.7,2565.5,1824.8,2562.1z"/>
		<path d="M1820.1,2583.2c0,2.1,1.3,2.5,3.4,1.7c4.2-2.5,4.2-5.1,0-5.1C1821.4,2579.8,1820.1,2581,1820.1,2583.2z"/>
		<path d="M1832.8,2369c1.7-7.2-0.8-13.9-3.8-14.3c-0.8,0-1.7,0.4-2.5,1.3c-2.5,2.5-2.1,5.9,0.8,11
			C1830.7,2374.1,1831.5,2374.1,1832.8,2369z"/>
		<path d="M1803.7,2298.6c-0.4,0-0.8,0-0.8,0c-1.3,0.4-2.5,1.7-2.5,3.8c0,3,2.5,5.1,5.1,5.1c3,0,4.6-1.7,3.8-3.8
			C1808.3,2300.8,1805.8,2298.6,1803.7,2298.6z"/>
		<path d="M1820.5,2325.2c-1.3-2.5-2.1-3.8-3-3.8c-0.4,0-0.8,0.8-0.8,3c0,3,0.8,6.3,2.1,7.2
			C1823.1,2335.7,1823.9,2331.5,1820.5,2325.2z"/>
		<path d="M1844.6,2474.8c1.3,1.7,3.4,2.5,5.1,1.3c3.8-2.5,3.8-11.4,0-11.4C1845.4,2465.1,1842.5,2471,1844.6,2474.8z"/>
		<path d="M1805.4,2322.2c-0.4,0-0.8,0-1.3,0.4c-2.1,1.3-1.7,5.1,0.8,10.5c3,6.7,4.2,7.6,5.1,3
			C1811.3,2329.4,1808.7,2322.2,1805.4,2322.2z"/>
		<path d="M1794,2301.2c0-2.1-1.3-3.4-3-3.4s-3.8,1.3-5.1,3.4c-1.3,1.7,0.4,3.4,3,3.4C1791.5,2304.5,1794,2303.3,1794,2301.2z"/>
		<path d="M1838.7,2338.3c4.2,4.2,10.5,2.1,8.9-3c-0.8-2.5-3-5.1-4.6-5.1C1839.1,2330.7,1836.1,2336.2,1838.7,2338.3z"/>
		<path d="M1837,2355.5l4.2,9.7l1.3-9.7c0.8-5.5-0.4-10.5-3-12.2c-1.7-0.8-2.5-1.3-3.4-1.3C1833.2,2342.5,1833.6,2347.1,1837,2355.5
			z"/>
		<path d="M1858.1,2339.5c2.1-2.1-2.5-12.2-5.9-12.2c-1.7,0-1.3,3,0.4,6.7C1855.1,2337.8,1857.2,2340.4,1858.1,2339.5z"/>
		<path d="M1857.2,2456.7c3-5.5,0-11-3.8-11c-1.3,0-3,0.4-4.2,2.1c-3,3-2.5,5.1,0.4,8.9C1853.8,2461.8,1854.3,2461.8,1857.2,2456.7z
			"/>
		<path d="M1839.5,2314.7c-2.5,0-3.8,3.4-1.7,8.4c1.7,4.2,3,4.6,5.9,1.7c3-3,3-4.6,0-7.6C1842,2315.5,1840.8,2314.7,1839.5,2314.7z"
			/>
		<path d="M1869,2463.5c4.2-2.5,4.2-11.4,0-11.4c-1.7,0-3.4,3-3.4,6.7C1866.1,2462.2,1867.3,2464.7,1869,2463.5z"/>
		<path d="M1625,2132.2c-1.3,0-2.5,0.8-3,1.7c-0.8,1.7-0.8,5.1,0.4,8c3,7.2,11,6.3,11-0.8C1633.4,2136.4,1628.8,2132.2,1625,2132.2z
			"/>
		<path d="M2242,3187.2c-3-1.3-4.6-4.2-3.8-6.7c0.8-2.5,0.4-4.6-0.8-4.6c-4.6,0-14.3,8.4-14.3,12.2c0,7.6-7.2,7.2-14.8-0.8
			c-8-8.4-17.7-10.1-19.8-3.4c-0.4,1.7,3.8,5.9,9.7,8.9c11,5.5,34.6,5.1,45.1-0.4C2246.7,3189.7,2246.7,3188.8,2242,3187.2z"/>
		<path d="M1684.4,2186.9c0.8,1.7,3,3,4.6,3c4.6,0,7.2-5.9,3.4-8c-1.3-0.8-2.5-0.8-3.4-0.8C1685.7,2181,1682.7,2184,1684.4,2186.9z"
			/>
		<path d="M1695.8,2176.8c2.1,0,2.5-1.3,1.3-3.4c-1.3-2.1-2.5-3.4-3.4-3.4c-0.8,0-1.7,1.3-1.7,3.4
			C1692.4,2175.6,1694.1,2176.8,1695.8,2176.8z"/>
		<path d="M1629.2,2159.1l-3.4,7.6c-2.5,5.9-2.1,8.4,1.3,10.5c7.2,4.2,10.5-1.7,6.3-10.5L1629.2,2159.1z"/>
		<path d="M1640.1,2162.1c3.8-2.5,3.8-11.4,0-11.4c-4.2,0-7.6,5.9-5.1,9.7C1636.4,2162.5,1638.5,2162.9,1640.1,2162.1z"/>
		<path d="M1780.9,2278c0-1.7-2.1-3-5.1-3c-5.1,0-6.3,3.8-3,7.6C1775.9,2285.2,1780.9,2282.2,1780.9,2278z"/>
		<path d="M1663.8,2171.4c-4.2,2.5-7.6-0.8-7.6-8c0-3.4-1.3-6.7-3.4-7.6c-0.4,0-0.4-0.4-0.8-0.4c-3.4,0-3.4,18.5,0.8,24.9
			c2.5,4.2,4.2,4.2,9.7,0.8c5.5-3.4,7.2-3.4,8.4,0.8c0.8,3,3.4,5.1,4.6,5.1c1.7,0,2.1-2.1,0.8-5.1c-1.3-3,0-5.1,3.4-5.1
			c3,0,5.1-2.1,5.1-4.6C1685.7,2167.6,1670.9,2167.1,1663.8,2171.4z"/>
		<path d="M2474.3,3054.4c-6.7-3-11-2.5-23.2,3c-8.4,3.8-15.2,8-15.2,9.7c0,1.7-12.2,15.6-27,30.8c-40.9,42.1-65.8,51.4-128.1,49.7
			c-29.5-0.8-34.1-2.1-50.6-11.4c-25.3-14.3-73.8-51-102-77.6l-23.6-22.3l6.3-16.4c5.1-13.1,6.3-24.4,6.3-56.9
			c0-67.4-16.4-122.7-52.3-174.9c-18.5-27.4-19.8-30.8-17.3-41.3c4.6-19,4.2-72.1-0.4-91.5c-11-45.5-36.7-86-81.3-128.1l-29.1-27.4
			l-2.1-31.2c-10.5-162.3-115.1-304.3-256.3-348.2c-19-5.9-43.4-11-64.9-13.5l-1.7,7.2l-17.3,4.6c1.7,0.8,3.4,2.1,5.1,3.4
			c7.2,5.5,9.7,5.9,13.5,3c6.7-5.5,15.2-1.3,40,21.1c20.7,18.5,26.6,20.7,51,19c5.1-0.4,12.2,1.7,15.6,5.1c5.1,4.6,6.7,4.6,8.9,1.3
			c2.1-3.8,5.1-3.4,14.8,1.3c11.4,5.5,11.8,5.9,7.2,12.6c-4.2,6.3-4.2,8.4,1.3,19c3.4,6.7,7.6,13.1,9.3,14.3s3.4,8,3.4,14.8
			c0,6.7,1.3,13.5,3.4,14.8c6.3,4.2,3,8.9-5.1,7.2c-7.6-1.7-8-1.3-3,4.2c3,3.4,10.5,7.2,17.3,8.9c10.5,2.5,12.2,4.2,13.1,13.5
			c0.8,6.7,3,10.5,6.3,10.5c3,0,4.2-1.7,3.4-4.6c-0.8-2.5-0.4-5.9,1.7-7.2c4.2-2.5,22.3,18.1,22.3,25.7c0,8,5.5,7.2,7.6-1.3
			c2.5-9.3,13.5-7.2,14.8,3c0.8,4.6,3.4,7.2,7.2,7.2c3.4,0,8.4,3.8,11.4,8c3,4.2,7.6,8,10.1,8c2.5,0,4.6,1.7,4.6,3.8
			s2.5,6.3,5.5,9.7c5.1,5.5,5.1,6.3,0,8c-3,1.3-7.6,0-10.1-2.1c-3.8-3.4-5.1-3.4-5.1,0c0,2.5-2.5,3.4-8,2.1
			c-6.7-1.7-8.4-0.4-11.8,10.5c-2.1,6.7-5.9,14.8-8.4,17.3c-3.4,3.8-3.4,5.9-0.8,8.9c4.6,4.6-1.7,13.9-9.7,13.9
			c-4.2,0-3.4,1.7,2.1,7.6c3.8,4.2,7.2,9.7,7.2,12.6c0,5.5,13.1,12.6,23.2,12.6c4.2,0,8.9,4.6,13.1,12.6c9.3,18.5,13.1,19.4,13.1,3
			c0-13.1-4.2-57.7-8-84.3c-3.8-27.8,5.5,6.3,11.4,42.1c8.4,48.9,8.4,59.4,0,59.4c-6.7,0-12.2,5.5-8.4,8.9c1.3,1.3,3.8,0,5.9-2.1
			c5.5-5.5,19-4.6,19,1.3c0,2.5,2.1,5.1,5.1,5.1c6.7,0,6.3,4.2-1.3,13.5l-5.9,7.6l-5.5-10.5c-4.2-8-7.2-10.1-11-8.4
			c-10.1,3.8-11.8,3.4-13.1-4.2c-1.7-10.5-11.8-8-13.1,3.4c-0.4,5.1-3,8.9-5.5,8.9s-5.1,4.2-5.5,8.9c-0.8,6.3-2.5,8.9-6.7,8
			c-3-0.4-5.9,0.8-5.9,3.4c0,2.5-3,10.1-6.7,17.3s-6.7,13.1-6.7,13.9s3.8,2.5,8,4.2c8.4,3.4,10.1,8.4,5.1,16.4
			c-2.1,3-1.7,6.3,0.4,8.9c2.5,3,2.1,4.2-1.7,4.2c-3,0-5.5,2.1-5.5,5.1c0,3,2.1,5.1,5.1,5.1c2.5,0,5.1,1.7,5.1,3.4
			c0,5.1-9.7,7.6-13.9,3.4c-2.1-2.1-7.2-3.8-11.4-3.8c-4.6,0-7.6-2.1-7.6-5.5c0-4.2-0.8-4.6-4.6-1.3c-7.2,5.9-23.2,3-23.2-4.6
			c0-8.9,7.6-10.5,11-2.1c2.5,6.7,2.5,6.7,10.5-1.3l7.6-8.4h-8.9c-11.4,0-11.4-5.9,0-7.2c10.5-1.3,18.5-15.2,18.1-31.2
			c0-7.2,2.5-12.6,7.6-17.7c9.7-8.9,9.7-14.8,1.3-19.4c-3.8-2.1-5.9-5.1-4.6-6.7c3-5.1,8-3.4,8,2.5c0,4.2,0.8,4.6,3.8,1.7
			c3-3,3-6.3,0-14.3c-3.4-8.9-3-11,1.3-14.3c5.9-4.2,3.8-15.2-3-13.9c-2.5,0.4-3.8-2.1-3.4-7.2c0.8-11-5.1-25.3-11-27.8
			c-4.6-1.7-4.6-2.5,0.4-8c4.6-5.1,5.1-7.2,1.7-12.6c-2.1-3.8-5.9-5.9-8.4-5.1c-2.5,0.8-4.2-0.4-4.2-3.4s-0.8-7.2-1.7-10.1
			c-1.3-3.8-0.4-4.6,4.6-3.4c6.3,1.7,6.3,1.3,3-8.4c-3.4-8.9-4.2-9.7-7.6-5.5c-3.4,4.2-4.2,4.2-7.6-2.5c-5.5-19-11.8-36.2-23.6-51.4
			l-7.2-10.1c0.4,0.4-7.2-12.2-7.2-12.2c-6.3-12.6-6.7-9.3-16-19.8c-4.6-7.2-13.9-15.2-20.2-18.5c-6.3-3.4-11.4-7.2-11.4-8.4
			c0-3.4-29.5-21.1-43.8-26.1c-6.7-2.5-13.5-6.3-14.3-8.4c-0.8-2.1-8-5.1-16-6.3c-8-1.3-14.3-3.4-14.3-5.1s-6.7-3-14.3-3
			c-8,0-15.6-1.7-16.9-3.4c-1.3-2.1-4.2-3-6.3-1.7c-2.1,1.3-5.1,0.8-6.3-0.4c-1.3-1.3-8.9-2.1-17.3-2.5l24.4,10.1l-3,3
			c13.1,1.3,24.4,3,32.5,5.1c44.3,10.5,83,31.2,114.6,60.7c11,10.1,25.7,27,32.5,34.6l0,0c5.1,8,9.3,16.4,14.8,24.4
			c-3,0.4,8,19,10.5,25.3c1.3,2.1,2.1,3,2.5,3c5.5,24,11.8,47.6,14.8,72.1c0,8.4-0.8,9.3-8.9,7.2c-62.4-16-80.1-18.5-131.9-20.2
			c-42.6-1.3-59.4-0.8-80.1,3.4c-46.4,11.8-56.1,19.8-82.6,34.1c-20.7,17.3-29.1,20.7-40.5,45.1c-20.2,43-13.9,96.5,16,129.4
			l7.6,8.4l-19.8,12.2c-23.6,14.8-48.5,37.9-60.7,57.7c-28.2,44.7-27.4,105.4,2.1,151.7l10.1,16l-10.5,8.4
			c-52.7,41.3-87.7,83.9-105,127.7c-10.1,26.6-10.5,76.7,0,102c3.8,10.1,7.2,20.2,7.2,22.8c0,9.3,32,48.5,54.4,66.2
			c64.1,51,126.4,72.1,261.8,89.4c56.5,7.2,153.8,4.2,199.4-5.9c42.6-9.7,59.9-15.6,94.8-34.1c30.3-16,79.7-52.3,90.6-66.6
			c4.2-5.5,14.8-18.5,23.2-29.5l15.6-19.8l13.1,11.8c39.2,35.4,113.4,80.1,142,85.6c6.3,1.3,11.4,3.4,11.4,4.6
			c0,4.6,32,9.7,59.9,9.7c60.7-3.8,120.5-24.4,160.2-72.9c34.6-38.8,38.8-47.2,40.9-76.7C2482.3,3059,2482.3,3057.8,2474.3,3054.4z
			 M1690.3,2144c-1.7-1.7-11-4.2-20.7-5.5c-20.2-3-26.1-9.7-10.5-10.5c0.8,0,2.1,0,3.4,0c14.8,0,36.2,7.6,36.2,12.6
			C1698.7,2145.2,1693.7,2147.3,1690.3,2144z M1849.2,2289c-4.2-6.7-24-29.1-43.8-49.7c-33.3-34.6-46.4-51-43.4-54.4
			c0.8-0.8,15.2,11.8,32.5,27.8c31.6,29.5,51,54,60.3,76.3C1861,2304.5,1858.9,2304.5,1849.2,2289z M2043.1,2893.8
			c1.7-2.5,3-7.6,3-11.4s3.8-10.5,8.4-14.8c8-7.6,8.4-9.3,6.3-29.1c-1.3-11-1.3-16.9,0-17.7c0,0,0.4,0,0.8,0
			c2.1,0.8,6.3,8,13.5,22.8c7.2,14.3,9.3,22.8,8,30.3c-1.3,8.9-0.8,10.5,4.6,10.5c5.5,0,6.7,3,8.4,17.3c3.4,27.8,2.5,58.6-1.3,56.5
			c-2.5-1.3-2.5,1.7-1.3,9.7c2.5,13.5-0.8,15.2-9.3,3.8c-7.6-10.1-7.2-10.5,3-19.4c5.9-5.1,7.6-8.4,5.1-9.7
			c-2.1-1.3-3.8-0.4-3.8,2.5c0,3-1.7,4.2-5.1,3c-3-1.3-5.1,0-5.1,2.5c0,2.5-3-1.7-6.3-9.3c-3.4-7.6-8.9-15.2-12.6-17.3
			C2050.7,2919.1,2039.7,2899.3,2043.1,2893.8z M2098.3,2998.3c0,5.5-4.2,14.8-10.5,22.8c-9.3,12.2-15.6,16.9-15.6,11.8
			c0-0.8,3.8-7.2,8-13.9c4.2-6.7,8.9-16.4,10.1-21.1c1.3-5.9,3.4-8.9,5.1-8.9C2097.1,2989.5,2098.3,2992.4,2098.3,2998.3z
			 M1978.6,2950.3c-3.8-2.5-11.4-31.2-12.6-47.6c-0.4-8,0.8-13.5,5.1-17.3c3.4-3,5.9-7.6,5.9-10.1c0-1.7,0.4-2.5,1.3-3
			c0.8,0,3,0.4,5.5,2.1c3.8,2.1,8.9,3,11.4,1.7c2.5-1.3,11,2.1,18.5,7.2c13.1,8,13.9,9.7,13.9,22.8c-0.4,11.4-2.5,16.9-13.1,29.5
			c-7.2,8.4-17.3,21.9-22.8,29.9c-5.5,8-11.8,15.2-13.9,16c-5.1,1.7-5.5-9.3,0-20.7C1980.3,2955.8,1980.7,2951.5,1978.6,2950.3z
			 M1472.4,2909.8c4.2-4.2,17.3-0.4,16.4,4.6c-0.4,2.1,0.8,4.2,3.4,5.1c2.1,0.8,4.2-0.8,4.2-4.2c0-4.6,0.8-4.6,5.1-1.3
			s5.1,3,5.1-1.3c0-4.2,3.4-5.5,16.4-5.5c8.9,0,16.4-1.3,16.4-2.5c0-1.3-3-8.4-6.7-15.6c-3.8-7.2-5.9-15.6-5.1-19
			c0.8-3.4-0.4-9.7-3-14.8c-6.3-12.2-5.9-19.4,2.1-21.9c1.3-0.4,2.5-0.4,3.4-0.4c3.4,0,6.7,2.5,11,7.2c4.2,4.6,7.6,10.5,7.2,12.6
			c-0.4,2.1,2.5,4.2,6.7,5.1c4.2,0.4,7.2,3.4,7.2,5.9s4.6,6.3,10.1,8.4c5.5,2.1,11.4,6.3,13.5,9.7c1.7,3.4,5.9,5.9,8.9,5.5
			c7.2-1.3,23.6,9.7,23.6,15.6c0,8-6.7,8.9-14.3,1.7c-8.4-8-16.9-8.9-19.4-2.1c-3,7.6-24,6.3-26.6-1.7c-1.3-3.8-3.4-6.7-5.1-6.7
			c-4.2,0-3.8,5.5,0.4,8c4.6,3,0.8,8.4-4.2,6.3c-2.1-0.8-5.9-0.4-8,0.8c-5.1,3.4,0,24,7.2,30.3c2.5,2.1,4.6,5.9,4.6,8
			c0,2.1,3.8,8,8,12.6c9.3,10.1,5.1,10.5-11.4,1.7c-6.3-3.4-17.3-8.9-24.4-11.8c-13.1-5.9-21.1-16.4-9.3-11.8
			c3.4,1.3,7.2,3.8,8.4,5.5c1.3,1.7,3.4,2.1,4.6,0.8s0.8-3.4-0.8-4.6c-5.1-3.4-3.8-20.2,1.3-20.2c5.1,0,3.4-7.2-2.1-9.3
			c-2.1-0.8-3.8,0.8-3.8,3.4c0,7.2-11.4,16-17.7,13.5c-3-1.3-5.5-0.4-5.5,1.7s-2.1,3.8-5.1,3.8c-2.5,0-5.1-2.1-5.1-5.1
			c0-2.5-4.6-7.2-10.1-10.1C1472.4,2914.9,1469.9,2911.9,1472.4,2909.8z M1454.3,2811.2c-0.4-5.1-0.8-8-0.4-8.4c0,0,0,0,0.4,0
			c0.8,0.4,3.8,6.3,9.7,19.4c13.9,31.2,24.9,45.5,45.1,59.4c8.9,5.9,16,12.6,16,15.2c0.4,11-22.3-1.7-40.5-22.3
			C1469.4,2856.7,1456.4,2829.7,1454.3,2811.2z M1547,2697.8c-6.7,0-6.7-6.3-0.4-8.9c3.8-1.3,4.2-3.4,1.7-8c-4.2-8-4.2-10.5,0.8-7.6
			c2.1,1.3,6.3,3,8.9,3c18.5,1.7,29.1,5.5,27.4,9.7c-0.8,2.5,0,4.6,1.7,4.6c2.1,0,3.4-1.3,3.4-3.4s2.1-3.4,5.1-3.4
			c5.9,0,12.2,13.9,9.3,21.1c-1.3,3.4,0,5.1,5.1,5.1c7.6,0,8.9-3.4,3.4-8.9c-2.5-2.5-1.7-4.6,3.4-7.6c7.2-3.8,7.2-3.8-3.4-11.8
			c-5.9-4.2-13.5-8.9-17.3-10.1c-22.3-6.7-66.2-29.1-78-39.6c-5.9-5.5-7.6-13.9-2.5-13.9c8,0,12.6,4.2,11,10.1
			c-1.3,4.2,0,6.3,3.8,6.3c3,0,5.1-2.1,5.1-5.1c0-3.8,2.1-4.6,8.9-3c5.1,1.3,10.5,3.4,12.6,5.1c2.1,1.7,8.4,1.3,14.8-0.8
			c16.9-5.5,21.1-8.4,19.8-13.1c-6.3-21.9-8-29.1-6.3-30.8c0,0,0.4-0.4,1.3-0.4c8.9-0.4,57.3,16,56.1,19.8
			c-0.8,2.1-5.5,4.6-10.5,5.9c-13.9,3-32.9,11.8-38.8,17.7c-4.6,4.6-4.6,5.9-0.8,9.3c2.5,2.1,13.1,13.1,23.6,24
			c16,17.3,18.5,21.1,14.8,25.3c-3.4,4.2-2.5,5.1,8.4,5.5c8.9,0.4,10.1,0.8,4.6,2.1c-11,2.1-15.2,6.3-10.5,11
			c2.5,2.5,6.3,2.1,13.5-2.1c6.3-3.8,12.6-5.1,18.1-3.4c8.9,2.1,12.2,8.4,4.2,8.4c-2.5,0-5.9,1.7-8,3.4c-2.1,2.1-15.6,4.2-30.3,5.1
			c-23.2,1.3-27.4,0.8-31.6-4.2c-4.2-5.5-5.1-5.5-10.5,1.7c-4.6,5.9-8,7.6-14.3,5.9c-5.5-1.3-11,0-16.4,4.2
			c-11,8.9-14.3,8.4-12.2-1.7c0.4-1.7-2.1-5.1-5.1-7.2c-3-2.1-5.1-4.6-4.2-5.1s4.2-2.5,7.6-4.2
			C1551.2,2704.1,1553.7,2697.8,1547,2697.8z M1511.2,2639.6c7.2,6.3,8.4,9.3,5.9,11.8c-2.5,2.5-4.2,3-5.9,0
			c-1.3-2.1-5.9-2.5-10.5-1.3c-7.6,2.1-8,1.3-5.9-5.9c2.1-7.2,4.2-10.5,7.2-10.5C1503.6,2634.2,1506.5,2635.8,1511.2,2639.6z
			 M1510.3,2553.7c0.4,0,0.4,0,0.8,0c1.3,0,16.4,14.8,34.1,32.9c17.3,18.1,31.2,32.9,30.8,32.9s-9.7-6.3-20.2-14.3
			C1530.1,2585.7,1503.6,2555.3,1510.3,2553.7z M1750.2,2611c0.8,2.5-0.8,12.6-3.8,22.8c-5.5,17.7-5.5,18.5,0.4,22.8
			c3.4,2.5,8.9,4.6,11.8,4.6c3,0,8,2.5,10.5,5.5c5.1,5.1,16.4,5.1,28.7,0c4.2-1.7,5.9-0.8,5.9,2.5c0,6.7-3.4,8.4-23.6,12.2
			c-9.3,1.7-29.1,5.5-43.4,8c-34.6,6.3-43.8,6.3-46.4-0.4c-2.1-5.9,0.4-8.4,26.1-24c9.3-5.9,15.6-11.8,15.6-15.6
			c0-8-15.2-21.9-30.3-27.4c-11.8-4.2-21.1-11.4-18.1-14.3c0.8-0.8,7.2,0.4,14.3,2.1c11.8,3,15.6,2.5,33.7-5.5
			c9.7-4.2,16.9-6.7,20.7-6.7c3.8-0.4,4.2,1.7,0.4,5.5C1750.2,2605.1,1749.3,2608.9,1750.2,2611z M1815.5,2683.1
			c-1.3-5.5,0-8.4,2.5-8.4s5.9,3,8.4,8.9c3.4,7.2,3,9.7-1.7,14.8c-4.6,5.1-4.6,6.3-0.8,6.3c2.5,0,9.3,5.1,15.2,11.4
			c8.9,9.7,9.7,13.1,7.2,20.7c-1.7,5.1-3.4,11.4-3.8,14.3c-0.8,5.1-3.8,4.2-21.5-5.1c-11-5.9-26.6-11.8-34.1-12.6
			c-10.5-1.3-16.9-5.1-26.6-15.2c-12.2-12.6-19-16.4-19-10.5c0,1.7,2.1,4.6,5.1,7.2c7.2,5.9,5.9,9.7-3.4,9.7
			c-10.1,0-13.5-7.6-8.4-18.5c3.8-8,4.6-8.4,26.6-6.3c15.6,1.3,22.8,0.8,23.6-1.7c0.8-3,3.4-2.5,8.9,0.4c9.3,5.1,11.8,3,7.2-6.3
			c-3-5.5-3-6.7,1.3-6.7c2.5,0,5.9,1.3,6.7,3.4C1812.5,2694.4,1817.6,2691.1,1815.5,2683.1z M1715.2,2652.3c0,4.6-55.6,2.5-77.1-2.5
			c-11-2.5-21.5-6.7-24-9.3c-1.7-1.7-2.5-3-0.8-3c1.3,0,5.1,1.3,10.5,3.4c8,3,31.6,5.9,52.7,6.7
			C1697.9,2648.5,1715.2,2650.6,1715.2,2652.3z M1661.2,2729c57.3,0,90.2,4.2,135.7,17.7c40,11.8,91.9,40.5,91.9,50.6
			c0,4.6-20.7,22.3-47.6,41.3c-8.9,6.3-17.7,12.2-19.8,13.5c-1.7,0.8-9.7-0.8-17.3-4.6c-36.2-16.4-139.5-27.4-217.5-24l-48.5,2.5
			l-6.3-14.3c-3.4-8-7.2-20.7-8.4-28.7c-2.1-12.2-1.3-15.2,5.5-22.3C1550.4,2737.8,1587.9,2729,1661.2,2729z M1897.7,2776.2
			c1.7,7.2-3.8,8.9-6.7,2.1c-0.8-2.5-7.2-5.5-13.5-6.7c-8-1.7-13.1-4.6-15.6-10.5c-3.4-7.2-2.5-9.3,7.6-17.7
			c6.3-5.5,14.8-9.7,18.5-9.7c9.3,0,25.7-8.4,27.8-13.9c0.4-1.7,1.3-2.5,2.1-2.5c0.8,0,2.1,0.8,3.8,2.5c3.4,3,3.4,5.9,0.4,12.2
			c-2.1,4.6-3.8,11.4-3.8,14.8s-1.3,6.3-3,6.3s-3.4,3.4-4.2,7.2c-0.8,4.6-3.8,7.6-8,8.4C1898.1,2769.5,1896.4,2771.6,1897.7,2776.2z
			 M1930.6,2864.7c-15.2,15.2-21.9,19.4-21.9,13.9c0-1.3,8.4-11.8,19-23.6s22.3-26.6,26.6-32.5c3.8-5.1,7.2-8.9,8.9-9.3h0.4
			C1966.8,2816.7,1945.7,2849.1,1930.6,2864.7z M1960.5,2914.9c-0.8,7.6-1.7,8-7.6,3.4c-5.9-4.2-5.9-5.1-0.8-10.1
			c2.1-2.1,4.6-3.8,6.3-3.8c0.4,0,0.8,0,1.3,0.4C1960.5,2905.6,1960.9,2910.2,1960.5,2914.9z M1918.8,2897.2
			c8.4,0,16.4-1.3,17.3-3.4c1.3-1.7,5.1-3,8.4-3.4c3.4,0,6.3,0.4,6.3,2.5c0,6.3-22.8,17.3-36.2,17.3c-12.2,0-13.1,0.8-7.2,3.4
			c10.5,4.2,9.3,12.2-3.8,19.8c-6.3,3.8-11.8,8.9-13.1,11.4c-0.8,2.5-7.6,7.6-14.3,11c-7.2,3.4-14.8,8.9-16.9,11.4
			c-2.5,3-7.6,5.1-11.4,5.1c-5.9,0-5.1-1.7,5.9-11c7.2-5.9,13.9-10.5,15.2-9.7c1.3,0.8,3.8-0.8,5.9-3.4c3-3.8,3-5.1-1.3-5.9
			c-4.6-0.8-4.2-3.8,3.8-19C1888.8,2903.1,1897.3,2897.6,1918.8,2897.2z M1808.7,2949c-24,5.9-44.3,7.6-44.3,4.2
			c0-2.1,4.2-3.4,9.3-3.4c14.8,0,57.3-11.8,75.4-21.1c6.7-3.4,12.6-5.9,15.2-5.9c0.8,0,1.3,0,1.3,0.4
			C1866.1,2926.7,1825.6,2944.8,1808.7,2949z M1889.7,2841.5c7.2,0,7.6,4.6,0.8,10.1c-5.9,5.1-6.3,9.7-0.8,9.7c11,0,3,37.9-8.4,42.6
			c-3.8,1.7-26.1,1.3-49.3,0l-42.1-3l-11.8,12.6c-6.3,7.2-11.8,14.8-11.8,17.3s-3.8,5.1-8,5.5s-12.6,5.9-18.1,12.2l-10.1,11l7.6,5.1
			c4.2,3,11,5.1,15.2,5.1s9.3,3,11.8,6.7c3.8,5.9,6.3,6.3,18.5,4.6c14.3-2.1,24,3,12.6,6.3c-8.9,2.5-113.4,0.4-118-2.5
			c-2.1-1.3-4.2-0.8-4.2,0.8c0,2.1-6.7,3.4-15.6,3.4c-12.2,0-14.3-0.8-10.1-3.4c11.8-6.7,32-12.6,33.7-9.3c3,5.1,8,3.8,10.5-2.5
			c1.3-3,5.1-8.4,8.9-11.4c7.2-5.9,8-5.5-17.3-14.3c-2.1-0.8-5.9-5.1-7.6-8.9c-1.7-3.8-10.1-13.1-18.5-19.8
			c-12.2-10.5-16.4-12.2-24.9-10.5l-10.1,2.1l9.7-8.9c8-7.6,10.1-8,13.1-3.8c2.5,3.8,5.1,4.2,9.3,1.3c4.6-3,6.7-2.5,8.9,0.8
			c2.1,3,6.3,3.8,13.9,2.5c11-2.1,11-2.1,11,10.1c0,8.9,1.3,12.2,5.1,12.2c3.8,0,5.1-3.8,4.6-13.5l-0.4-13.5l28.7-2.1
			c33.3-2.5,36.2-3.4,42.1-12.6c3.8-6.3,3.8-6.7-1.7-4.6c-5.9,2.1-5.9,2.1-0.4-3.4c4.6-4.6,6.3-5.1,9.7-1.7c3,3,3,4.6,0,8
			c-2.1,2.1-3.8,6.3-3.8,9.3c0,3-3.8,7.2-8,9.3c-6.7,3-11.4,10.5-6.7,10.5c7.6,0,18.1-7.6,18.1-12.6c0-5.5,6.3-11,14.3-11.8
			c1.7,0,4.6-3,7.2-6.3c2.5-3.8,7.2-5.5,10.5-4.6c7.2,2.1,14.3-3,19.8-13.1c2.1-4.2,6.7-7.2,10.1-7.2c7.2,0,28.7,8.9,36.7,15.6
			c3.4,3,6.3,3.4,7.6,1.3c1.3-1.7,0.4-4.2-1.3-5.5c-1.7-1.3-3.4-5.1-3.4-8.4c0-4.2-2.1-6.3-6.7-6.3c-8.4,0-8.4-8.9-0.4-11.4
			c3.4-1.3,8.9-5.5,11.4-10.1c3.4-4.6,8.4-7.6,12.6-8c3.4,0,5.5,1.3,5.5,4.6c0,2.5-3.4,6.7-7.2,9.7
			C1885,2840.7,1885,2841.5,1889.7,2841.5z M1625.4,2950.7c-20.2-5.1-58.6-20.7-56.1-23.2c0.8-0.8,19,4.6,40.9,11.8
			c21.9,7.2,42.1,13.5,45.5,13.5s8,1.7,10.5,3.4c2.5,1.7,3.4,3,1.7,2.5C1649,2956.6,1642.3,2955.3,1625.4,2950.7z M1621.2,2879.5
			c-9.3,1.7-13.9,0.8-16.9-3.4c-6.3-7.6-2.1-14.3,12.6-18.5c9.7-3,13.9-6.3,16.4-13.5c2.1-5.9,5.1-9.3,8.9-9.3c2.1,0,4.2,0.8,6.7,3
			c1.7,1.7,6.7,3.4,11.4,4.2c6.3,0.8,10.5,5.9,19.4,23.2c10.5,21.5,11.4,22.3,21.1,20.2c7.2-1.7,9.3-1.3,8,2.1
			c-0.8,2.5-5.5,4.2-11,3.8c-5.1-0.4-11-0.8-12.6-0.8c-1.7,0-6.3,0.8-10.1,1.7c-4.6,1.3-7.6,0.4-8.9-3c-1.7-4.2-4.6-5.1-14.8-3.4
			s-13.1,0.8-14.8-3.4C1634.2,2878.6,1630.9,2878.2,1621.2,2879.5z M1751,2880.7c0.4,0,0.8,0,1.3,0s0.8,0.4,1.3,0.4
			c0.8,0.8,0,3.4-1.3,5.5c-1.7,3-3.4,3-4.6,0.8C1745.1,2885.8,1748,2881.6,1751,2880.7z M1487.1,2969.7l17.3-13.5l18.5,10.1
			c23.6,12.6,81.8,27.4,129.4,32.5c62.8,6.7,152.2,0.8,187.6-12.6c10.5-4.2,37.9,4.2,66.2,20.2c34.6,19.4,34.6,16.9-7.2,57.3
			c-36.2,35-40,37.9-62.4,46.4c-68.3,24.4-136.6,37.9-209.5,24c-61.5-12.2-144.6-30.8-176.6-90.6c-2.1-6.7-3-16.4-1.7-21.5
			C1451.7,3006.8,1468.6,2984.4,1487.1,2969.7z M1915,2995.8c-3.8-3.8-10.1-6.7-14.8-6.7s-10.5-3-13.9-6.7c-3-3.8-7.6-6.7-10.5-6.7
			c-4.2,0,18.1-22.3,22.8-22.8c1.3,0,3.4,3.4,5.5,8c3.4,7.2,3,8-2.5,8c-10.1,0-7.6,6.3,4.2,11.4c5.9,2.5,12.6,6.7,15.2,9.7
			c4.6,5.5,13.1,6.7,13.1,2.1c0-1.7-2.1-5.1-4.6-7.6c-4.2-4.2-3.4-5.1,7.2-6.7c6.7-1.3,16.4-3,21.5-4.2l9.3-2.1l-6.7,12.6
			c-3.8,7.2-7.6,16.9-8.4,21.9c-2.1,10.1-11.4,12.2-11.4,2.5c0-5.1-2.1-6.7-9.7-6.7C1925.9,3002.1,1918.8,2999.2,1915,2995.8z
			 M2031.7,3013.1c5.5-16.4,9.7-37.5,11.4-59.9l3-34.6l-1.3,42.6c-0.8,29.1-3,47.2-6.7,57.7c-3,8.4-7.6,17.3-10.1,19.4
			C2021.6,3043.4,2021.6,3042.2,2031.7,3013.1z M2035.5,2860.9c-0.8,7.6-1.7,7.2-5.5-5.9c-2.5-8-7.2-20.2-10.5-27
			c-3.4-6.7-6.3-13.9-6.3-16.4c0-0.8,0.4-1.7,0.8-1.7c3.4-0.8,15.6,17.3,19,29.1C2035.1,2846.2,2036.4,2855.9,2035.5,2860.9z
			 M2034.7,2723.1c1.3,4.2,0,14.3-3.4,24.4c-6.7,20.2-24.9,59-28.7,60.7c-1.3,0.4-2.5,3.4-2.5,5.9c0,2.5-3.8,10.1-8.4,16
			c-4.6,6.3-10.1,11.4-11.8,11.4c-1.7,0-3-7.2-2.5-15.6c1.3-30.8,0.8-31.2-7.2-25.7c-4.2,3-14.3,5.1-24.9,5.1
			c-12.6,0-20.2,2.1-26.6,6.7s-11.4,5.9-17.7,4.6l-8.4-2.1l8-11.8c4.2-6.3,8-13.5,8-15.6c0-2.1,5.9-12.6,13.1-23.2
			c8.4-12.6,13.1-23.2,13.1-29.5c0-5.9,0.8-12.6,2.1-15.6c0.8-2.1,1.7-3.4,3.4-3c1.7,0.4,4.2,1.7,8,4.6c11.4,8,32.5,44.7,32.5,56.5
			c0,9.7,3.8,11,9.7,3.8c2.1-2.5,8.4-5.1,13.5-5.1c8,0,9.3-1.3,9.3-9.3c0-5.1,3-13.1,6.7-18.1c3.8-5.1,5.9-11,5.1-14.3
			c-0.8-3.4,0-8.9,2.5-12.2C2032.1,2716.3,2032.1,2716.3,2034.7,2723.1z M1986.6,2781.3l1.7-18.1c0.8-10.1,2.1-38.8,2.1-64.1
			c0-25.3,1.3-37.5,2.5-37.5c1.7,0,4.2,19.8,5.9,56.9c2.1,44.3,1.7,46.4-5.1,54L1986.6,2781.3z M1931.4,2611
			c0,10.1,4.2,10.5,10.1,1.3c4.6-6.7,4.6-6.7,18.5,3.4c8,5.5,15.2,9.3,16.4,8c1.3-1.3,2.1-13.9,2.1-28.2c0-14.3,0.4-25.7,0.8-25.7
			c1.3,0,31.2,47.2,32.9,52.3c0.8,3,3.8,7.6,6.3,10.5c2.5,3,5.5,13.1,6.7,22.8l2.1,17.7l-11-12.6c-19.8-22.8-40.5-26.1-43-7.2
			c-0.4,3.8-5.1,8.9-10.1,11.4c-5.1,2.5-11,9.3-13.9,15.6c-2.5,6.3-5.5,11.4-6.3,11.4c-0.8,0-3-8-5.1-17.7
			c-4.2-21.5-24-61.5-35-71.2c-12.6-11.4-9.7-16.9,3.8-7.2c6.7,4.6,14.8,8,18.1,8C1929.7,2602.5,1931.4,2605.1,1931.4,2611z
			 M1915.8,2661.1c-5.1-0.4-48.5-22.3-44.7-22.3c2.1,0,7.2-6.7,11.4-14.8c4.2-8,9.3-14.3,11-13.9c4.2,1.3,19.8,30.8,22.8,42.6
			C1917.5,2657.3,1917.5,2661.6,1915.8,2661.1z M1898.5,2559.1c3.8-9.3,9.3-25.3,11.8-35.8c3-10.5,6.7-19,8.4-19
			c7.2,0,5.9,11.8-4.2,43c-6.3,18.5-12.6,34.1-14.8,34.6C1892.2,2584.4,1891.8,2575.6,1898.5,2559.1z M1861,2564.6
			c10.1-13.1,19.4-37.9,26.1-67.9c1.3-5.5,4.2-9.3,6.3-9.3c1.3,0,2.1,1.3,2.1,4.2c0,9.3-13.9,53.1-21.5,67.9
			c-4.6,8.9-11,17.3-14.3,19.4C1846.3,2586.5,1846.3,2584,1861,2564.6z M1842.9,2615.6l5.9-24.4l15.2-4.2c5.9-1.7,10.1-2.5,13.1-2.5
			s5.1,0.4,7.2,2.1c7.2,5.9,5.9,10.5-5.5,21.5c-5.5,5.5-12.2,13.5-14.8,18.5c-2.5,5.1-7.6,8.9-11,8.9c-3.4,0-7.2,1.3-8.4,3.4
			c-1.7,3-8.4,4.6-8,2.5C1836.6,2640.5,1839.5,2629.1,1842.9,2615.6z M1838.7,2666.2c34.6,6.3,86.4,29.9,86.4,39.6
			c0,6.3-2.1,5.9-19.8-4.2c-8-4.6-28.7-13.5-45.9-19.4c-26.6-9.3-39.2-16.9-30.3-16.9C1831.1,2664.9,1834,2665.3,1838.7,2666.2z
			 M1807.1,2618.6c9.7-6.3,18.5-11,21.1-11.4c0.4,0,0.8,0,0.8,0c3.8,3.8-7.6,12.2-32.9,24.9c-22.3,11.4-41.7,16.4-41.7,11.8
			c0-0.8,7.2-3.8,16-6.7C1779.7,2634.2,1796.1,2625.7,1807.1,2618.6z M1751,2582.7c-26.6,9.3-86.4,11.8-115.9,5.1
			c-59.4-13.5-93.6-55.6-58.6-72.1c13.1-6.3,35.4-9.3,61.5-9.3c43.8-0.4,97.8,7.6,137.8,21.5c16,5.9,20.2,8.9,21.5,14.8
			C1798.2,2554.5,1775.9,2574.3,1751,2582.7z M1639.3,2427.2c11-0.4,20.2-0.8,27-0.8c11.4,0,16.4,0.8,16.4,2.1
			c0,2.1-7.6,4.2-17.3,5.1c-40.9,4.2-80.9,5.1-80.9,2.1C1584.1,2431,1592.9,2429.3,1639.3,2427.2z M1539.4,2433.9
			c6.3,1.7,8.4,0.4,9.7-4.6c1.3-5.5,4.2-6.7,13.5-6.7c13.1,0,14.3,2.1,5.9,8.4c-5.5,4.2-4.6,5.5,6.7,15.2
			c6.7,5.9,12.2,13.1,12.2,15.6c0,7.6,3.8,10.1,8.9,5.9c3.4-2.5,6.3-2.5,11.8,1.3c8.4,5.5,45.9,19,53.1,19c2.5,0,7.6-5.5,11-12.2
			c3.4-6.7,13.5-19.4,22.8-27.8c14.3-13.5,15.6-15.6,10.1-17.3c-8-2.5-8-11.4,0-11.4c18.1,0,98.6,32,98.6,39.2c0,2.5-2.1,3-5.9,1.3
			c-13.9-5.9-46.4-17.7-62.4-22.3l-17.3-5.1l8.4,11c4.6,5.9,10.5,11.8,13.1,12.6c4.6,1.7,31.2,40,31.2,45.1c0,3.4-4.6,3.4-26.1-0.4
			c-8-1.3-39.2-4.2-69.1-6.7c-40.5-3-54.4-5.5-54-8.4c0.8-7.6-6.3-6.3-7.2,1.3c-0.8,5.5-3.4,7.2-9.3,7.2c-7.2,0-7.6-0.8-4.2-6.7
			c5.9-11,0.8-11.4-9.7,0c-9.3,10.1-18.1,12.6-24.9,7.6c-4.6-3.4-11.4-26.6-11.4-39.2c0-8.9-1.3-10.1-10.5-11
			c-7.2-0.8-11-3-11.8-7.2C1531.4,2433.1,1533.1,2432.3,1539.4,2433.9z M1512.4,2484.9c7.6-13.9,25.7-32.5,30.3-32.5
			c0.4,0,0.4,0,0.8,0.4c1.3,1.3-3.4,7.2-9.7,13.5c-6.3,6.3-14.3,16-17.3,21.5C1507.8,2502.6,1504,2500.1,1512.4,2484.9z
			 M1484.6,2599.2c-0.8,0-5.9-8.4-12.2-19c-9.7-16.9-11-21.1-10.1-40c0.8-27,7.2-50.2,12.6-48.1c6.3,2.5,8.4-1.7,3-5.9
			c-4.6-3.4-4.6-4.2,0-8c1.3-0.8,1.7-1.3,2.5-1.3c2.5,0,4.2,3.8,7.6,15.6c7.6,26.6,21.1,30.8,56.1,17.7c13.1-5.1,19.4-5.9,21.9-3.4
			c2.5,2.5,0.8,4.6-5.1,6.7c-7.6,3-8.9,5.1-8.9,16.4c0,15.6-4.2,19-14.8,11.8c-9.3-6.3-39.2-7.2-43-1.3c-3,5.1-8.4,37.1-8,49.3
			C1485.9,2595.4,1485,2599.2,1484.6,2599.2z M1479.6,2645.1c1.7,0,3.4,1.3,3.4,3s-1.3,3.8-3.4,5.1c-1.7,1.3-3.4-0.4-3.4-3.4
			C1476.2,2647.2,1477.9,2645.1,1479.6,2645.1z M1480,2682.6c12.6-11.4,37.5-24.9,46.8-25.7c1.3,0,2.5,0,3,0.4
			c3.4,2.1,2.5,3-28.7,22.3c-16.4,10.1-24,17.7-33.7,33.7c-11.8,19-20.7,26.1-20.7,16C1446.7,2722.3,1465.6,2695.7,1480,2682.6z
			 M1410.9,2833.5c0-3.8-3.4-13.5-6.7-21.5c-9.3-20.2-10.5-75-1.7-84.7c3.4-3.8,5.1-8.9,3.8-12.6c-1.3-4.6,2.1-11.4,11.4-23.2
			c9.3-11.8,14.3-16.4,19-16.4c2.1,0,4.6,1.3,7.2,3c4.2,3,4.2,3.8-1.7,8.9c-3.8,3-6.7,10.1-7.2,15.6c-0.4,5.5-1.3,18.1-2.5,28.7
			c-1.3,10.5-0.8,19,0.4,19c4.2,0,67.9-13.5,78.4-16.9c13.9-4.2,21.1-3.8,21.1,1.3c0,5.9-6.7,12.2-13.5,12.2
			c-5.1,0-5.5,2.5-3.8,21.1c1.7,18.1,0.8,22.8-5.9,33.3c-7.2,11.4-7.2,12.2-1.3,9.7c10.5-4.2,13.1-3.8,13.1,1.3
			c0,2.5-2.5,5.5-5.5,5.9c-6.7,1.3-40.9-15.6-54.4-27l-10.1-8.4l-11.8,16.4c-6.3,9.3-13.1,15.6-14.8,14.8c-1.7-0.8-4.2-7.2-5.1-13.5
			c-1.7-8.4-3.8-11.4-8.4-11.4c-6.3,0-6.3,0,0.4,8.4c3.8,4.6,6.7,12.6,6.7,18.1c0,6.3,1.7,9.3,5.1,9.3c5.1,0,6.3,5.5,3,14.3
			C1421.4,2849.5,1410.9,2845.3,1410.9,2833.5z M1389.4,2898c1.3-2.5,9.7-7.6,19-12.2c7.6-3.8,12.2-5.5,15.2-5.9c0.4,0,0.8,0,1.3,0
			c1.7,0,3.4,0.8,4.6,2.5c3.8,3.8,3.8,5.1-1.7,8c-3.4,1.7-12.2,3.4-19,3.4c-7.2,0-14.8,1.7-17.3,4.2
			C1387.7,2901.4,1387.2,2901.4,1389.4,2898z M1342.6,3016.5c-1.3,1.3-2.5,7.6-3,13.9c-0.8,13.9-4.6,18.5-12.2,15.6
			c-6.3-2.5-5.9-16.4,0.4-15.2c2.1,0.4,3.8-0.4,3.8-2.1s0.8-5.5,2.1-8c3.8-10.5-8-5.1-14.8,6.3c-8,13.5-9.3,26.1-2.5,23.6
			c2.5-0.8,5.9,1.7,8.4,6.3c3,6.7,2.5,10.5-1.3,18.1c-3,5.5-5.1,12.6-5.1,16c0,3.4-1.3,5.9-3.4,5.9c-1.7,0-3.4-4.2-3.4-9.3
			c0-5.1-2.1-11-4.6-13.1c-5.9-5.1-8.9-20.7-5.1-25.3c1.7-2.1,3.8-10.1,4.2-17.7c0.8-8,3.8-15.2,6.3-16.9c3.8-2.1,4.2-4.2,1.3-10.5
			s-2.1-10.5,3.8-22.8c7.2-15.2,13.9-20.2,11-8.9c-1.3,4.2,1.3,8,6.7,11.8c8.9,5.9,15.2,4.2,15.2-3.8c0-18.5,40.5-64.1,71.7-80.9
			c7.2-3.8,11.8-5.9,14.3-5.9c5.5-0.4,0,6.7-15.6,17.7c-18.5,12.6-42.1,40-55.6,64.9l-9.3,16.9l9.3-2.5c5.1-1.3,13.1-5.1,17.3-8
			c6.7-5.1,9.7-5.1,23.6-1.7c8.9,2.1,18.5,5.5,21.9,7.6c7.2,3.8,13.9-0.8,13.9-10.1c0-3.4,3.4-9.3,7.2-13.1l7.2-7.2l-9.3-7.2
			c-9.3-7.2-9.3-7.2-3.8-18.5c3-6.3,5.5-15.6,5.5-20.7c0-8,0.4-8.4,4.2-3.4c2.1,3,7.6,7.6,11.8,9.7c12.6,6.3,20.7,19.4,18.1,29.9
			c-1.7,7.6-3.4,8.9-10.1,7.2c-7.2-1.7-7.6-1.3-5.5,6.7c1.7,7.6,1.3,8.4-3.8,6.7c-9.3-3-30.8,43.8-30.8,66.2
			c0,28.7-11.8,32.5-36.7,12.6c-13.9-11-16.9-20.7-5.5-16.9c5.1,1.7,6.3,0.8,5.5-2.1c-2.1-6.3-13.1-7.6-17.3-2.1
			c-2.1,2.5-8.4,5.5-14.3,6.7c-8.9,1.7-10.5,1.3-10.5-3.8C1355.2,3021.9,1346.4,3013.1,1342.6,3016.5z M1351.8,3044.7
			c1.7,0,3.4,2.1,3.4,4.2c0,10.1,24.4,52.3,40,69.1c16.9,18.5,19,23.6,7.6,17.3c-17.3-9.3-33.3-29.9-43.8-57.3
			C1350.2,3056.1,1347.6,3044.7,1351.8,3044.7z M1459.7,3220c-4.6-2.5-10.5-5.1-13.9-6.3c-3.4-0.8-7.2-4.6-8.4-8.4
			c-2.1-5.9-3-6.3-11.4-2.1c-8.9,4.6-8.9,4.6-8.9-6.3c0-13.9-5.5-18.1-8.4-6.3c-2.1,8.4-2.5,8.4-6.7,2.5c-2.5-3.4-4.2-9.7-3.4-13.5
			c0.8-5.5,0-7.2-4.6-7.2c-3.4,0-6.7,1.7-8,3.4c-1.3,2.1-4.6,2.5-7.6,1.3c-3-1.3-7.6-2.5-10.1-3c-8.9-1.7-7.2-8,2.1-7.6
			c5.1,0,13.9-2.1,19.8-5.1c11.4-5.9,32-7.2,28.7-2.1c-1.3,1.7-6.3,3.4-11.8,3.4s-9.7,1.3-9.7,3.4s4.2,3.4,9.7,3.4s9.7-1.3,9.7-3.4
			s4.6-3.4,10.1-3.4c7.6,0,9.7-1.3,8.4-4.6c-0.8-2.1-0.4-3.4,0.8-3.4c0.4,0,0.8,0.4,1.7,0.4c2.5,0.8,5.5,5.1,6.3,9.3
			s6.3,13.1,11.8,19.8c6.3,8,9.3,14.8,8,18.5c-0.8,3.4,0,9.3,1.7,13.1C1471.1,3224.3,1469.9,3225.5,1459.7,3220z M1453.4,3153
			c-2.5-1.7-8-3.4-12.2-3.4c-7.6,0-8.4-2.1-12.2-36.7c-1.7-13.9-1.3-15.6,5.5-16.4c9.7-1.3,9.3-10.5,0-11.8c-8-1.3-9.7-9.7-3.4-16.4
			c2.5-2.5,5.1-3.8,6.7-3.8c1.7,0,2.5,1.7,2.5,4.6c0,3,3,5.1,7.2,5.1c5.5,0,6.7,1.3,5.1,6.7c-2.5,10.1,3.8,28.7,11.4,34.1
			c9.7,6.7,11,3.8,2.5-7.2c-7.6-10.5-7.6-21.9,0-21.9c3,0,5.1,3.4,5.5,9.7c0.4,5.5,0.8,11.4,0.8,13.1s2.5,0.4,5.1-3.4
			c4.6-6.3,5.1-6.3,6.7,0.4c1.3,4.2,5.5,7.6,11.4,8.9c6.7,1.3,8.9,3.4,7.6,7.2c-1.3,3-0.4,5.1,1.7,5.1c2.1,0,3.4-1.7,3.4-3.8
			c0-2.1,2.5-1.7,5.9,1.7c3.4,3,10.5,5.5,16,5.5c5.5,0,12.6,0.8,15.2,2.1c8.9,3.4,5.5,8-6.3,8c-6.3,0-12.2,1.7-13.5,3.4
			c-1.3,2.1-4.2,2.5-6.7,1.7c-2.5-0.8-5.1-0.4-6.3,0.8c-3.4,5.5-29.5,6.7-35,1.3c-5.1-4.6-5.9-4.2-9.3,1.7
			C1466.1,3156.8,1461,3157.7,1453.4,3153z M1472.8,3170.7c5.1,0,17.7,3,36.7,8c60.7,16.4,88.1,26.6,88.1,31.6
			c0,2.5-1.3,4.6-2.5,4.2c-6.7-0.8-102.4-32-113.4-36.7C1469.9,3172.8,1467.3,3170.7,1472.8,3170.7z M1482.5,3202.8
			c-5.1,1.3-6.3,0.4-5.5-3.8c0.8-3.8,4.2-6.3,7.6-6.7c0.4,0,0.8,0,1.3,0c2.1,0,3.4,1.3,3.4,3.8
			C1489.2,3199,1486.3,3201.9,1482.5,3202.8z M1700,3265.6c-10.1,3.8-38.8,1.7-46.4-3.4c-5.9-4.2-8.9-4.6-13.9-1.7
			c-12.6,7.6-22.3,0.8-22.3-15.6c0-4.6-2.1-6.7-6.7-6.7c-7.2,0-8.4,6.3-2.5,12.6c8.9,8.9-15.2,11.8-30.3,3.4c-4.2-2.1-3.8-2.5,0.8-3
			c7.6,0,7.2-5.5-0.4-9.7c-4.6-2.5-8.9-2.5-14.8,0.4c-7.2,3.4-9.3,3-13.9-1.7c-7.2-7.2-3-11,6.7-6.3c5.5,2.5,12.6,2.1,27-1.3
			c14.8-3.8,20.7-4.2,25.3-1.3c5.1,3,5.9,2.5,5.9-4.2c0-4.2,2.1-8.9,5.1-9.7c7.2-3-6.7-22.3-21.9-31.2c-12.6-7.2-15.2-12.6-8.9-19
			c2.5-2.5-0.4-4.2-9.3-5.5c-21.1-3.4-27.4-19-9.3-22.3c1.3-0.4,2.5-0.4,3.8-0.4c8.9-0.4,13.9,3.8,7.2,8c-11.4,6.7-2.1,9.7,26.1,8
			c18.1-0.8,29.9-0.4,32.5,2.1c2.5,2.1,8,2.5,13.1,1.3c7.2-1.7,8-1.3,5.1,2.5c-4.6,5.9-1.7,8.9,8.4,8.9c5.9,0,7.6-1.3,5.9-5.1
			c-2.5-6.7,7.2-10.1,14.8-5.1c5.9,3.8,13.9,2.1,11.4-2.5c-0.8-1.3,4.6-2.5,11.4-3c15.2-0.8,19.8,5.9,10.5,16
			c-4.6,5.1-9.3,6.3-20.2,5.5c-14.8-1.3-17.7,3.8-4.2,7.2c9.7,2.1,12.6,9.7,3.8,9.7c-3.8,0-10.1,3.4-14.3,8
			c-10.1,11-24,15.6-38.4,13.1c-11.8-1.7-11.4-1.7,5.9,8C1676,3234.4,1706.3,3263,1700,3265.6z M1684,3222.6
			c-25.3-3.8-10.1-6.3,38.4-6.3c29.1,0,62-1.7,72.5-3.8c5.9-1.3,10.5-1.7,13.9-2.1c0.8,0,1.7,0,2.5,0c11.8,0,5.1,6.3-19,11.4
			C1778,3224.7,1704.6,3225.5,1684,3222.6z M1917.5,3173.7c-19.4,11.4-38.4,19-38.4,15.2c0-1.7,6.3-6.3,13.9-10.1
			c28.7-14.8,69.1-51,89.8-80.1c3.4-4.6,7.2-8,8.9-7.6c0.4,0,0.4,0,0.4,0.4C1999.3,3098.6,1946.6,3156.8,1917.5,3173.7z
			 M2050.7,3084.3c-8.9,3-10.5,4.6-8.4,8.9c3.4,5.9-15.2,34.6-26.1,40.5c-3.4,1.7-6.3,6.7-6.3,11.4c0,4.6-1.7,8-4.2,8
			c-4.6,0-3.8-14.8,1.3-21.5c1.3-1.7,1.7-15.6,0.4-31.2c-2.1-27.4-2.1-27.8-10.5-27c-4.6,0.4-11.8,3.4-16.4,6.7
			c-11.8,8.4-42.1,14.8-48.1,10.1c-3.4-3-6.3-2.5-12.6,1.7c-4.6,3-8,7.2-8,9.3s-3,0.4-6.3-3.8l-5.9-8l-5.5,18.5
			c-5.1,16.9-6.3,18.5-13.9,17.7c-11.4-1.3-13.1,5.1-3,9.7c8.9,4.2,11,11.8,4.2,16c-2.1,1.3-5.9,6.3-8,11l-3.8,8l-2.1-7.2
			c-4.2-13.9-8.4-8-6.3,8.4c1.7,13.5,1.3,16.9-4.6,22.3l-6.7,6.3l11.8,4.2c6.7,2.5,19.4,5.1,28.7,6.3c12.6,1.7,16.9,3.4,17.7,8
			s-0.4,5.5-5.1,3.8c-3.8-1.3-8,0-10.5,3c-2.1,3-7.6,5.1-12.2,5.1c-4.2,0-16,5.1-26.1,11.8c-11.8,7.6-19.4,10.5-21.5,8.4
			c-2.1-2.1-8-0.4-16.9,4.6c-14.8,8.4-20.2,9.7-23.2,5.1c-1.7-3,18.1-22.8,28.7-28.7c3-1.7,7.2-8.4,10.1-15.2
			c3-6.7,6.7-12.2,8.4-12.2c1.7,0,3.4-1.7,3.4-3.4c0-5.5-21.5-13.1-36.7-13.1c-21.1,0-35.8-5.5-50.2-17.7l-12.6-11l12.2-4.2
			c9.7-3,13.5-3,16.9,0c3.8,3,6.7,2.1,14.8-4.6c5.9-5.1,14.3-8.4,19.8-8.4c5.1,0,12.6-3,16-6.7c3.8-3.8,9.3-6.7,12.6-6.7
			s8-2.1,10.1-5.1c3-3.4,5.5-3.8,10.1-1.7c9.7,5.1,13.1,3.8,13.1-5.1c0-9.3,22.8-32.9,37.1-38.4c3-1.3,8.4-7.2,12.2-13.9
			c4.2-7.6,9.3-11.4,13.9-11.4c9.3,0,14.3-3.4,15.6-11c0.8-3.4,5.9-7.6,11.8-9.7c5.9-2.1,12.2-5.5,14.3-7.6c3.4-3.4,2.1-4.2-6.3-4.2
			c-10.5,0-13.9-4.2-6.7-8.4c2.1-1.3,5.9-7.6,8.4-13.9l4.6-11.4l10.5,10.5c7.6,7.6,11.8,15.6,14.8,28.2c2.1,9.7,5.5,18.5,7.2,19.8
			c1.7,0.8,3,4.6,3,8c0,7.6,2.5,8,11.4,1.3c9.3-7.2,14.3-5.9,16.9,3.4c1.7,6.7,3,7.6,6.7,4.2c3.4-2.5,3.8-4.6,1.3-5.9
			c-5.9-3.4-0.4-11,11.8-16.9c8.9-4.2,10.5-4.2,7.6-0.4c-3,3.4-3,5.5,0,8.4c2.5,2.5,2.1,5.9-3,11.8c-7.6,9.7-8,14.3-1.3,11.8
			c3.4-1.3,4.2-0.4,3,3.4C2062.9,3078,2057,3082.2,2050.7,3084.3z M2255.5,3203.6c-2.5,6.3-3,6.3-5.1-0.8c-2.5-8.9-4.6-9.3-15.2-0.8
			c-10.1,8-12.2,8-38.4-3.4c-15.6-6.7-21.5-10.5-22.3-16c-1.3-8-16-21.1-20.7-18.1c-1.7,0.8-0.4,3.8,3,6.3c7.6,5.5,4.2,8.9-6.7,6.3
			c-8-2.1-14.8-7.2-53.1-41.3c-9.7-8.4-20.2-16.9-23.6-18.5c-3.4-1.7-8-8-10.1-13.5c-2.5-6.7-3-8.9-0.8-8.9c0.8,0,1.7,0.4,3,0.4
			c3,0.8,24.9,3.4,48.1,5.1c23.2,2.1,43.4,4.2,44.7,5.1s3.4,5.5,4.2,10.5c8,40,13.5,56.5,18.1,56.9c32,2.1,62.4,1.3,62.4-2.1
			c0-2.1,2.1-4.6,5.1-5.9c5.9-2.1,6.3,2.1,0.8,11c-3.4,5.5-3,7.6,3,13.9C2256.4,3194.7,2257.2,3199,2255.5,3203.6z M2270.7,3203.6
			c-5.5,12.6-13.9,16-10.1,3.8c1.3-4.2,3-16.4,3.8-27.8c1.3-14.3,3-20.7,6.3-20.7C2277,3159.3,2277,3188.8,2270.7,3203.6z
			 M2300.2,3179.6c-1.3,8.9-3.8,19.8-5.9,24c-2.1,4.6-5.5,8-8,8c-3.4,0-3.8-5.5-2.5-23.6c1.7-21.5,3-27.8,8-27.8
			c1.3,0,2.5,0.4,4.2,0.8C2301.5,3163.1,2301.9,3166.1,2300.2,3179.6z M2320.4,3207.8c-3.8,4.6-8,5.5-10.1,1.7
			c-0.8-1.3-0.4-12.6,0.4-25.3c1.7-17.7,3.4-23.2,7.2-24c0.4,0,0.4,0,0.8,0C2328.5,3160.2,2329.7,3196,2320.4,3207.8z
			 M2346.6,3179.2c-1.3,28.7-8,29.1-10.1,0.8c-1.3-16.9,0-26.6,3.4-27c0.4,0,0.4,0,0.8,0c0.8,0,2.1,0.8,3.4,2.1
			C2346.2,3156.8,2347.4,3167.4,2346.6,3179.2z M2365.1,3191c-5.1,1.7-8-2.1-8-10.5c0-4.2-1.7-11.4-3.8-15.6c-3-6.3-3-9.3,0.4-13.5
			c1.7-2.1,3.4-3,4.6-3c4.6,0,7.6,8.9,8.9,24C2368.1,3182.5,2367.2,3190.1,2365.1,3191z M2382,3182.1c-3.4,0-5.1-3-5.1-8.4
			c0-4.6-2.1-12.6-5.1-18.1c-5.5-10.1-4.2-16,3.4-16c6.3,0,7.2,2.1,9.7,23.6C2387,3179.6,2386.6,3182.1,2382,3182.1z M2392.5,3158.5
			c-2.5-7.6-5.9-16.9-7.6-20.2c-1.7-3.8-1.7-5.1,0.8-5.1c0.8,0,1.7,0,3,0.4c3.8,0.8,6.7,4.6,7.2,9.3c0.4,4.6,2.5,9.7,4.2,11.4
			s3,6.3,3,10.5C2403.1,3177,2397.6,3173.7,2392.5,3158.5z M2405.6,3142.1c-3.4-7.6-6.3-14.3-6.7-15.2s0.8-2.1,3-2.5
			c3-0.8,14.3,22.3,14.3,29.5C2416.1,3160.6,2410.6,3154.3,2405.6,3142.1z M2422.4,3137.4c-1.7-5.1-5.9-11.4-8.4-14.8
			c-4.6-5.1-3.8-14.3,0.4-15.2c0.4,0,1.3,0,2.1,0c3,0.8,8.9,13.9,14.8,32.9C2434.7,3150.1,2426.2,3147.1,2422.4,3137.4z
			 M2447.3,3130.3c-4.2,7.2-10.1,2.5-19.4-16c-4.2-8.4-4.6-14.3-1.7-13.9c1.3,0.4,3,1.7,5.1,5.1c2.5,3.8,7.6,10.1,11.4,14.3
			C2446.1,3123.5,2448.2,3128.6,2447.3,3130.3z M2457,3113.8c-3,5.1-5.9,3.4-17.3-10.1c-11.8-13.9-12.6-16.4-5.9-16.4
			C2439.7,3087.3,2459.5,3109.6,2457,3113.8z M2454.1,3094c-1.3-3.4-5.1-7.2-8.4-8.4c-6.7-2.1-8.9-11.4-3-11.4
			c4.6,0,22.8,18.1,22.8,22.8C2465.4,3102.9,2456.2,3100.8,2454.1,3094z M2457.9,3075c-10.5-5.1-11.8-13.9-2.5-13.9
			c6.3,0,16.4,8,16.4,13.1C2471.8,3079.3,2467.1,3079.7,2457.9,3075z"/>
		<path d="M1700.4,2209.7c2.5,4.2,5.1,4.2,5.1,0c0-1.7-1.7-3.4-3.4-3.4C1700,2206.3,1699.6,2207.6,1700.4,2209.7z"/>
		<path d="M1737.1,2176.8c-3,0-5.1,2.5-5.1,5.9c0,3.4-1.7,7.6-3.8,9.7c-3,3-3,5.1,0,8.4c2.1,2.5,3,5.5,1.7,6.7
			c-1.3,1.3-0.4,2.1,1.3,2.1c5.1,0,7.2-4.2,9.3-19.4C1741.7,2179.4,1740.9,2176.8,1737.1,2176.8z"/>
		<path d="M1740.9,2238.8c2.1-0.8,3.8-2.5,3.8-3.8c0-2.1-1.3-2.5-2.5-2.5c-1.3,0.4-3,1.7-3.4,3.8
			C1737.9,2238.4,1739.2,2239.2,1740.9,2238.8z"/>
		<path d="M1739.6,2219c-0.8-1.7-2.1-2.5-3-3h-0.4c-0.8,0-1.7,1.7-1.7,5.1c0,3,1.7,4.2,3.4,3C1740,2223.2,1740.9,2220.7,1739.6,2219
			z"/>
		<path d="M1708.9,2196.2c0-1.3-0.8-2.1-2.1-2.1c-0.4,0-0.8,0.4-1.3,0.4c-1.7,1.3-3.4,2.5-3.4,3.4c0,0.8,1.3,1.7,3.4,1.7
			C1707.6,2199.6,1708.9,2198.3,1708.9,2196.2z"/>
		<path d="M1721.9,2181.9c0-4.2-4.6-8.9-7.2-8c-0.4,0-0.8,0.4-1.3,0.4c-0.8,0.8-0.4,3.8,0.4,6.7
			C1716.4,2187.8,1721.9,2188.2,1721.9,2181.9z"/>
		<path d="M1517.5,3136.6c3,0,4.2-1.3,3-3.4c-1.3-2.1-3.4-3.4-5.1-3.4s-3.4,1.3-3.4,3.4C1512.4,3134.9,1514.5,3136.6,1517.5,3136.6z
			"/>
		<path d="M1409.2,2776.2c3,0,4.2-1.7,3-3.4c-1.3-1.7,0-5.5,2.1-8.4c3.4-4.2,3.4-5.9-2.1-9.7c-4.2-3-6.7-4.2-8.9-4.2
			c-1.7,0-3,1.7-3,4.6c0,2.5,1.7,5.1,3.8,5.1c2.1,0,3,3,1.7,8C1404.5,2774.1,1405.4,2776.2,1409.2,2776.2z"/>
		<path d="M1472.8,2946.5c1.7,0,3.4-2.1,3.4-5.1c0-2.1-0.8-3.4-2.1-3.4c-0.4,0-0.8,0-1.3,0.4c-1.7,1.3-3.4,3.4-3.4,5.1
			C1469.9,2945.2,1471.1,2946.5,1472.8,2946.5z"/>
		<path d="M1413.8,2741.6c4.2-2.5,4.2-5.1,0-5.1c-1.7,0-3.4,1.3-3.4,3.4S1412.1,2742.9,1413.8,2741.6z"/>
		<path d="M1466.5,2928.4c0-2.5-2.5-5.1-5.5-5.1c-4.2,0-4.6,0.8-1.3,5.1C1464.8,2934.7,1466.5,2934.7,1466.5,2928.4z"/>
		<path d="M1430.2,2792.6c1.7,0,3.4-2.1,3.4-5.1c0-2.1-0.8-3.4-2.1-3.4c-0.4,0-0.8,0-1.3,0.4c-1.7,1.3-3.4,3.4-3.4,5.1
			C1427.3,2791,1428.6,2792.6,1430.2,2792.6z"/>
		<circle cx="1423.9" cy="2766.5" r="3.4"/>
		<path d="M1413.8,2710.9c1.7,0,3.4-1.7,3.4-3.4c0-1.3-0.8-2.1-2.1-2.1c-0.4,0-0.8,0.4-1.3,0.4c-1.7,1.3-3.4,2.5-3.4,3.4
			C1410.9,2710,1412.1,2710.9,1413.8,2710.9z"/>
		<ellipse cx="1407.5" cy="3020.2" rx="3.4" ry="5.1"/>
		<circle cx="1402.4" cy="3039.6" r="5.1"/>
		<path d="M1456.8,2935.1c-0.4-0.4-0.8-0.4-1.3-0.4c-3.4-0.4-5.9,4.6-3.8,8.4c1.3,1.7,3.4,3.4,5.1,3.4
			C1460.6,2946.5,1460.6,2937.6,1456.8,2935.1z"/>
		<path d="M1436.1,2770.7c9.3,2.5,9.7,2.5,19.4-1.7l9.3-3.8l-11.4-2.5c-6.3-1.3-13.9-3.4-17.3-4.6c-1.7-0.8-3-0.8-3.8-0.8
			c-1.3,0.4-2.1,2.1-2.1,5.1C1430.2,2766.1,1432.8,2769.9,1436.1,2770.7z"/>
		<path d="M1391.9,3008c-0.8,2.1,0.8,3.8,3.8,3.8c3,0,5.1-2.5,5.1-5.1c0-3-1.7-4.2-3.8-3.8C1395.3,3003.4,1392.7,3005.1,1391.9,3008
			z"/>
		<ellipse cx="1417.2" cy="3023.6" rx="3.4" ry="5.1"/>
		<path d="M1415.9,3003.4c3.4-1.3,5.5,0.4,6.7,5.1c2.1,8.4,7.6,9.3,7.6,1.3c0-8.9-10.1-18.1-16.4-18.1c-2.1,0-3.8,0.8-4.6,3
			C1406.6,3001.3,1410,3005.5,1415.9,3003.4z"/>
		<path d="M1422.2,3037.5c-1.7,0-3.4,1.7-4.2,4.2c-0.4,1.7,1.3,3.4,4.2,3.4s4.6-1.7,4.2-4.2
			C1425.6,3038.4,1423.9,3037.1,1422.2,3037.5z"/>
		<path d="M1474.1,2528.4c-0.4,0-0.8,0-1.3,0.4c-1.7,1.3-3.4,3.4-3.4,5.1s1.3,3.4,3.4,3.4c2.1,0,3.4-2.1,3.4-5.1
			C1476.2,2530,1475.3,2528.4,1474.1,2528.4z"/>
		<circle cx="1515.4" cy="2527.1" r="3.4"/>
		<path d="M1543.6,2532.6c5.9-11.4,5.9-11.8-0.4-11.8c-0.4,0-0.8,0-1.3,0c-5.5,0.8-8.4,8.4-5.5,15.2
			C1538.6,2540.6,1539.4,2540.2,1543.6,2532.6z"/>
		<path d="M1471.1,2543.5c-5.9,0-6.3,4.6-1.7,13.5c4.6,8.9,6.3,8,6.3-3.4C1476.2,2546.9,1474.5,2543.5,1471.1,2543.5z"/>
		<path d="M1392.7,2997.5c6.3-4.6,5.5-9.3,1.3-9.3c-2.1,0-4.6,0.8-7.6,3c-4.2,3-8,6.3-8,8C1378,3003.4,1385.6,3002.5,1392.7,2997.5z
			"/>
		<path d="M1574.4,2486.6c0,3,1.3,4.2,3.4,3.4c4.2-2.5,4.2-8,0-8C1576.1,2481.6,1574.4,2483.7,1574.4,2486.6z"/>
		<circle cx="1566.4" cy="2450.4" r="5.1"/>
		<path d="M1570.2,2469.4c3.8,3.8,7.6,2.1,7.6-3c0-2.5-1.3-5.1-3-5.1C1570.6,2461.8,1567.6,2466.8,1570.2,2469.4z"/>
		<path d="M1476.2,2776.2c0-3.8-1.3-6.7-3-6.7c-6.7,0-13.5,4.2-13.5,8.4c0,2.5,3.4,4.6,8,4.6
			C1474.1,2782.9,1476.2,2780.8,1476.2,2776.2z"/>
		<path d="M1496.8,2773.7c10.1,1.7,13.5-2.1,9.3-10.1c-2.1-4.2-4.2-6.3-6.7-6.7c-0.4,0-0.4,0-0.8,0c-1.7,0.4-3.8,2.5-5.9,5.9
			C1488,2771.6,1488.4,2772.4,1496.8,2773.7z"/>
		<path d="M1491.4,2802.3c3.8,0,5.1-3,4.2-10.5c-0.8-7.6-3-11.4-5.1-11.8c-2.1-0.4-4.2,3-4.2,10.5
			C1485.9,2799,1487.6,2802.3,1491.4,2802.3z"/>
		<ellipse cx="1481.2" cy="2514" rx="5.1" ry="6.7"/>
		<path d="M1473.2,2787.6c-0.4,0-0.4,0-0.8,0.4c-1.7,0.8-2.1,3.4-0.8,5.1c3,5.1,8,3.4,5.9-1.7
			C1476.6,2788.4,1474.9,2787.2,1473.2,2787.6z"/>
		<path d="M1469.9,2759.8c4.2,1.3,8.4,0.4,9.3-0.8c1.7-4.6-6.3-11.4-12.2-11.4c-0.4,0-0.8,0-1.3,0c-0.4,0-0.8,0-1.3,0.4
			C1457.2,2750.5,1460.2,2757.7,1469.9,2759.8z"/>
		<path d="M1498.1,2525c-0.8-0.8-2.1-1.3-3.4-1.3c-3.8,0.4-8.9,4.2-8.9,8c0,3,1.3,5.1,3,5.1C1493,2537.2,1500.6,2527.5,1498.1,2525z
			"/>
		<path d="M1602.2,3175.8c-0.8,0-1.7,1.3-1.7,3.4c0,1.7,1.7,3.4,3.4,3.4c1.7,0,2.5-1.3,1.3-3.4
			C1604.3,3177,1603.1,3175.8,1602.2,3175.8z"/>
		<circle cx="1617" cy="3182.1" r="3.4"/>
		<path d="M1636.8,3196.4c0-2.5-2.1-4.2-4.6-4.2c-5.1,0-9.3,4.6-6.7,7.2C1628.8,3202.8,1636.8,3200.7,1636.8,3196.4z"/>
		<path d="M1617,3166.1c-1.7-3-3.8-4.6-6.3-5.1c-0.8,0-1.7,0-2.5,0.4c-9.3,3.4-11,4.6-8.9,7.6c0.8,1.7,6.3,3,11.4,3
			C1619.5,3172.4,1620.3,3171.6,1617,3166.1z"/>
		<path d="M1674.3,3175.8c0.8-1.7-1.3-3-4.6-2.5c-3.8,0.4-6.7,1.7-6.7,3C1662.9,3180,1671.8,3179.6,1674.3,3175.8z"/>
		<path d="M1656.6,3208.7c2.1,0,2.5-1.3,1.3-3.4c-1.3-2.1-2.5-3.4-3.4-3.4c-0.8,0-1.7,1.3-1.7,3.4
			C1653.2,3207,1654.5,3208.7,1656.6,3208.7z"/>
		<path d="M1649.8,3188.8c1.7,0,3.4-2.1,3.4-5.1c0-2.1-0.8-3.4-2.1-3.4c-0.4,0-0.8,0-1.3,0.4c-1.7,1.3-3.4,3.4-3.4,5.1
			S1648.2,3188.8,1649.8,3188.8z"/>
		<path d="M1794,3156.4c-1.7,0-3.8,1.3-5.1,3.4c-1.3,1.7,0.4,3.4,3,3.4c3,0,5.1-1.3,5.1-3.4
			C1797.4,3157.2,1795.7,3156.4,1794,3156.4z"/>
		<path d="M1635.1,3175.8c3,0,4.6-1.7,4.2-4.2c-0.8-2.5-2.5-3.4-4.2-3.4c-1.7,0-3.4,1.7-4.2,4.2
			C1630,3174.1,1632.1,3175.8,1635.1,3175.8z"/>
		<path d="M1669.7,3241.1c-3.4,0-6.7,12.2-4.2,14.3c3.8,3.8,5.5,1.7,6.3-6.3C1671.8,3244.9,1670.9,3241.1,1669.7,3241.1z"/>
		<circle cx="1767.9" cy="3166.1" r="3.4"/>
		<path d="M1786,3172.4c-3,0-5.1,1.3-5.1,3.4c0,4.2,5.5,4.2,8,0C1790.2,3174.1,1788.5,3172.4,1786,3172.4z"/>
		<path d="M1636.8,3244.5c-1.7,0-3.4,1.3-4.6,3c-0.8,1.7-0.8,3.8,0.4,5.1c4.2,4.2,13.9,2.1,12.2-3
			C1643.1,3246.2,1639.7,3244.1,1636.8,3244.5z"/>
		<path d="M1654.5,3234.8c-3,0-4.2,1.3-3,3.4c1.3,1.7,3.4,2.5,5.1,1.3C1661.2,3236.5,1660.4,3234.8,1654.5,3234.8z"/>
		<path d="M1636.8,3228c0-3.8-2.1-6.7-5.1-6.7c-0.4,0-0.4,0-0.8,0c-4.2,0.8-5.5,7.2-1.7,11C1633.4,3236.5,1636.8,3234.8,1636.8,3228
			z"/>
		<ellipse cx="1487.6" cy="3139.5" rx="5.1" ry="3.4"/>
		<ellipse cx="1350.2" cy="3008.9" rx="5.1" ry="3.4"/>
		<ellipse cx="1710.5" cy="3162.7" rx="5.1" ry="3.4"/>
		<path d="M1427.7,3176.2c-1.3,0-2.1,0-3,0c-5.9,0-5.5,3,0.8,10.1c7.2,8,11.8,7.6,10.5-1.3C1435.7,3180,1432.8,3177,1427.7,3176.2z"
			/>
		<path d="M1368.3,3015.2c0-3-3.8-5.9-6.7-6.3c-0.4,0-0.8,0-1.3,0c-0.4,0-0.8,0.4-0.8,0.4c-0.8,0.8-0.8,3.4,0.4,5.1
			C1362.4,3019.4,1368.3,3019.4,1368.3,3015.2z"/>
		<circle cx="1450.1" cy="3192.2" r="3.4"/>
		<path d="M1310.5,3067.5c3.4,5.1,11.4,4.2,11.4-1.3c0-2.5-1.7-5.5-3.4-6.7c-0.8-0.4-1.7-0.8-2.5-0.8
			C1312.2,3058.6,1308.4,3063.7,1310.5,3067.5z"/>
		<path d="M1323.6,2986.5c-0.8,0.4-0.8,2.1-0.8,4.6c0,3.8,0.8,4.6,2.1,2.1c0.8-2.5,0.8-5.1,0-6.3
			C1324,2986.5,1323.6,2986.5,1323.6,2986.5z"/>
		<path d="M1332,2995.8c-1.7,0-3.4,3-3.4,6.7s1.3,5.9,3.4,4.6C1336.2,3004.7,1336.2,2995.8,1332,2995.8z"/>
		<ellipse cx="1446.7" cy="3108.8" rx="3.4" ry="5.1"/>
		<path d="M1458.1,3133.2c-3,0-4.2,1.3-3,3.4c1.3,2.1,3.4,2.5,5.1,1.3C1464.4,3134.9,1463.5,3133.2,1458.1,3133.2z"/>
		<path d="M1443.3,3120.1c-3.4,0-3.8,4.6-0.8,7.6c3.8,3.8,7.6,2.5,5.5-2.5C1447.1,3122.3,1444.6,3120.1,1443.3,3120.1z"/>
		<path d="M1488,3129.8c3,0,4.6-1.7,3.8-3.8c-1.3-3.4-3.8-5.1-5.9-5.1c-0.4,0-0.8,0-0.8,0c-1.3,0.4-2.5,1.7-2.5,3.8
			C1482.9,3127.7,1485,3129.8,1488,3129.8z"/>
		<circle cx="1364.9" cy="2998.8" r="3.4"/>
		<circle cx="1685.7" cy="2481.6" r="3.4"/>
	</g>
	<path class="st4" d="M1373.3,1995.6c0,0,23.6,0,35.4,9.7c-0.4-8.9-11-22.3-11-22.3h-16.4L1373.3,1995.6z"/>
	<polygon class="st4" points="1450.1,1993.1 1484.2,1990.1 1478.3,1977 1467.3,1976.2 1456.8,1977.5 1450.1,1988 	"/>
	<g>
		<path d="M1563.4,2113.6c-3-12.2,5.9-21.1,2.5-32.9c-1.7-4.6,2.1-11.8,5.1-16.9c2.5-4.2,3-5.9,0-9.7c-2.5-2.5-3-6.7-4.6-10.1
			c-1.3-2.5-3.8-5.1-7.2-2.1c-0.8,0.4-2.1,0.4-3,0.4c0.4-1.3,0.4-3.8,0.8-3.8c10.1-1.3,7.6-11,11-16.4c3.8-5.5,6.3-11.4,6.3-18.5
			c0-5.9-2.5-9.3-6.3-12.6c-3-2.5-6.3-2.5-9.3,0.4c-1.3,0.8-2.1,2.1-3.4,3.4c-2.1,3-5.1,5.5-8.9,3.8c-4.2-1.7-5.1-6.3-5.9-10.1
			c-0.8-7.6,1.3-15.2-3-22.8c-1.3-2.5,2.1-6.7,2.5-10.5c1.7-9.7-1.7-19-4.6-28.2c-3-10.5-4.2-11.4-13.5-19.8
			c-6.3-5.5-13.9-7.6-22.8-10.5c-8-3-16-3-24.4-2.5c-5.9,0.4-11-2.5-17.3-0.4c-5.9,1.7-13.1,0-19.4,0.4c-5.5,0.4-11,2.1-16.9,3
			c-5.9,0.4-12.2-0.4-18.1,0.4c-7.2,0.8-11.4,6.3-13.5,11.8c-3.4,8.9-7.6,18.1-10.5,27c-2.5,7.6-3.8,14.8-10.5,19.8
			c-0.8,0.8,0,3.8,0,5.9c1.3-0.4,3-1.3,4.2-1.3c7.2-0.8,14.3-0.4,20.2,5.1c1.3,1.3,3,3,4.6,3.8c3,0.8,7.6-1.7,6.7,4.6
			c-3-0.4-5.9-0.4-8.4-1.7c-3.8-1.7-7.6-3.8-11-5.9c-6.7-4.6-14.8-1.3-16.4,6.3c-0.4,2.1,0,3.8,0,5.9c0.4,10.5-2.1,20.7-5.5,30.8
			c-0.4,0.8-0.4,1.7-0.4,3c-0.8,20.7-5.5,41.3-3,61.5c1.7,13.9,6.7,27.4,17.3,37.5c6.3,5.9,12.6,11.8,15.6,20.7
			c2.1,5.9,8.4,8,13.9,8c11.4,0.4,23.2,0.4,34.6,0c2.1,0,4.6-1.3,6.3-2.5c2.1-1.7,3.8-5.1,7.2-2.5c-1.7,2.1-3,5.5-5.1,6.3
			c-5.5,2.1-11,5.5-17.3,5.1c-8-0.4-16,0-24,0c11.8,15.2,24.4,22.8,44.3,27c3.8,0.8,6.3,3,11,3c17.3-0.4,35,0,52.3-0.4
			c0.8,0,2.5-2.5,2.5-3.8c-0.4-2.1-1.7-4.2-2.5-6.3c-0.4-0.8,0-2.1,0-3c0.8,0,8.4,8.9,9.3,9.3c5.9,4.2,4.2,4.2,10.1,8.9
			c2.5-3.8,6.3-7.6,9.3-12.2c5.1,7.6,11.4,3.8,19.8,5.1c13.5,1.7,27.4,0.8,39.6,8.4c0.8,0.4,1.7,2.5,1.7,3.8c0,0.8-2.1,2.5-3,2.1
			c-8.4-1.3-17.3,2.1-26.1-2.5c-5.5-3-13.9,0-20.7-0.4c-9.3-0.8-18.5,3-27.4-3c-0.4-0.4-0.8,0-1.3,0c-5.5,2.5-11.4,1.3-16.9,0
			c-6.3-0.8-13.1,0.8-19.4-0.4c-4.2-0.8-6.3,6.7-10.5,2.1c-3-3-6.3-1.7-9.7-2.1c-3.8-0.4-8.4,0.8-11.8-0.4
			c-13.5-5.1-27.4-8.9-39.6-16.9c-5.1-3.4-11-5.9-15.2-10.1c-6.3-6.3-12.6-13.5-16.9-21.1c-3.8-6.3-7.6-12.2-13.1-17.3
			c-16-15.2-24.4-33.7-23.2-56.5c0.4-5.1,0-10.1,0-15.2c0-10.1,2.5-19.8,5.5-29.1c0.4-1.3,0.4-3,0.8-4.2c0.4-15.6,5.1-31.2,3-46.8
			c-0.8-5.5,1.7-10.1,4.2-13.1c5.1-5.5,6.3-11.8,7.6-18.1c2.1-9.3,8.9-16.4,9.3-26.1c12.2-14.8,23.2-31.6,41.7-38.8
			c11-4.2,22.3-7.6,34.1-8c11-0.4,21.9,0,32.9,0c4.6,0,9.3,1.3,13.9,2.5c20.2,6.3,37.9,16.4,53.1,30.8c6.7,6.3,13.9,12.2,19,20.7
			c6.3,11.4,11.4,23.2,14.8,35.8c4.2,15.2,9.3,52.7,5.5,63.2c-2.1,5.9-0.4,12.2-3.4,16.4c-4.2,6.3-5.5,13.9-8.4,20.7
			c-3,6.3-7.2,12.2-8.4,19c-1.7,6.7-6.7,13.9-0.4,21.5c2.1,2.5,0.4,7.6,0.4,12.2c8.9,0,16.9-1.3,24.4,0.4s14.3,0.4,27.4,4.2
			c0,5.1-1.3,10.5-1.3,16.4c-8.9-5.9-10.5-2.1-12.6-0.8c-8,4.6-13.1,1.3-19.8-5.1c-2.5-2.1-6.7-2.5-10.5-3
			C1579,2115.7,1566.4,2118.7,1563.4,2113.6z"/>
		<g id="XMLID_00000128477407738165890370000006501463205557890722_">
			<g>
				<path class="st5" d="M1582,1949.2c3,10.1,7.6,20.7,6.3,32c-0.4,3.8,0.8,8-3,10.5c3.8,2.1,3.4,5.9,2.5,9.3
					c-2.1,14.3-3,29.1-8.9,42.6c-0.4,1.3-2.1,2.1-3.4,3.4c-0.8-0.8-1.7-2.1-2.5-3c-3.4-5.5-4.6-10.5-0.4-17.3c3.8-5.5,5.1-12.6,8-19
					c1.3-2.5-3.4-5.5,0.8-7.6c-3-3.8-5.5-8-8.4-11.4c-1.3-1.3-4.2-2.1-6.7-2.1c-4.6,0-10.1-0.4-14.3,1.3c-4.6,2.1-5.1-1.7-5.9-3.4
					c-1.3-1.7-0.4-4.6-0.4-7.2c0-10.1-0.8-20.2,0.4-29.9c1.3-11-2.1-21.5-6.7-30.3c-5.1-9.3-13.5-17.7-24.9-20.7
					c-10.1-3-20.2-4.6-30.3-6.7c-12.2-2.1-24.4-1.7-36.2-2.1c-5.9,0-12.2,2.1-18.1,3c-6.3,0.8-12.6,1.3-19,1.7c-1.3,0-3-0.4-4.2-1.3
					c-2.5-2.1-0.4-2.1,1.3-3.4c11-8.4,24-12.2,36.7-16.9c2.1-0.8,4.6-0.8,7.2-0.8c8,0,16,0,24,0c4.6,0,8.9,0,13.5,0
					c6.7,0,13.1,0.8,19.8,2.5c6.7,1.7,11.8,5.9,17.3,8.9c12.2,5.9,22.3,13.9,32,23.6C1571.4,1917.6,1577.8,1933.2,1582,1949.2z"/>
			</g>
		</g>
		<path d="M1416.8,2053.3c4.6,1.7,11.8-3,17.3,3c11.8,0.4,15.6,9.7,19.4,18.1c0.8,2.1,1.7,4.2,2.1,6.7c0.4,2.1,0.8,5.1,0.4,7.2
			c-0.4,0.8-3.8,0.4-5.1,1.3c-8,7.6-15.2-2.5-23.2-0.4c-3.4-5.9-11,0-14.3-5.1c-0.4-0.4-3.8,0-5.1,0.8c-5.1,4.2-8.9-0.8-13.1-1.7
			c-3.4-0.8,0-2.5,0.4-3.8c1.7-5.1,5.9-9.3-1.3-14.8c-4.2-3.4-0.4-10.5,5.9-11C1405.8,2052.9,1410.9,2053.3,1416.8,2053.3z"/>
		<g id="XMLID_00000111875642524426818620000017371779933229316483_">
			<g>
				<path class="st4" d="M1447.1,2080.7c0,0.4,0,1.3,0,1.7c-3.8,0.4-7.2,0.4-11,0.8c0-0.8,0-1.7,0-2.5
					C1439.9,2080.7,1443.3,2080.7,1447.1,2080.7z"/>
			</g>
		</g>
		<g id="XMLID_00000170992387286558123720000006424314933950446489_">
			<g>
				<path class="st4" d="M1432.8,2077.8c0,0.4,0,0.8,0,1.7c-3,0-5.9,0-8.9,0c0-0.4,0-0.8,0-1.7
					C1426.9,2077.8,1429.8,2077.8,1432.8,2077.8z"/>
			</g>
		</g>
		<g id="XMLID_00000041979318807255030360000002350721974076080299_">
			<g>
				<path class="st4" d="M1406.2,2058.8c1.3,0.8,1.7,1.3,2.5,1.7c-1.3,0.4-2.5,1.3-3.8,1.3c-0.8,0-1.7-0.8-2.1-1.3
					C1403.7,2060.1,1405,2059.7,1406.2,2058.8z"/>
			</g>
		</g>
		<g id="XMLID_00000049204716378084826900000015083967817280574855_">
			<g>
				<path class="st4" d="M1436.6,2059.2c0.8,0,2.1,2.1,2.1,3c0,0.8-1.7,3-2.1,3c-3.8-1.3-7.2-3-12.2-0.8c-3.4,1.3-8.4-2.1-12.2-3.4
					c0-0.4,0-1.3,0-1.7C1420.1,2059.2,1428.1,2059.2,1436.6,2059.2z"/>
			</g>
		</g>
		<path d="M1389.4,1981.3c1.7,0,3,0,4.6,0c8,0,9.3-0.4,11.4,7.2c1.7,6.3,3,3,5.9,1.7c3-0.8,5.5,2.1,3.4,4.2c-2.1,2.5-3,5.1-3,8
			c0,0.8-1.7,1.7-2.5,2.5c-1.3-1.3-3-2.1-3.4-3.4c-0.8-5.9-6.7-8.4-8-14.3c-1.3-5.1-13.9-4.6-17.7,0.4c-1.3,1.7-2.1,4.2-3.4,5.9
			c-0.4,0.8-2.1,1.3-3,1.7c-0.4-0.8-0.8-1.7-0.8-2.5c0.8-8.9,3.4-11.4,11.8-11.4C1386.4,1981.3,1387.7,1981.3,1389.4,1981.3z"/>
		<path d="M1475.8,1950.5c2.1,0.8,3.4,1.3,4.6,1.7c0.4,0.4,0.4,1.7,0.4,2.5s-1.7,1.7-1.7,1.7c-8-6.3-11.8,1.3-16.4,5.1
			c-4.2,3.8-8,8-14.3,8.4c-1.3,0-2.1,0.4-3,0.4c0.4-1.3,0.4-3.8,0.8-3.8c8.4-1.3,12.6-8,18.5-12.6
			C1467.3,1952.2,1472,1951.8,1475.8,1950.5z"/>
		<path d="M1555.4,2023.8c0-7.6,0-13.9,0-20.2c0-1.7,0.8-3.8,2.1-5.1c1.3-1.3,3.4-2.5,5.1-2.1s3,2.5,4.2,3.8c-1.3,0.8-3,1.3-4.2,2.1
			c-2.1,2.1-5.1,3-1.7,7.6C1563.4,2013.3,1563,2019.6,1555.4,2023.8z"/>
		<path d="M1434.9,2028.9c-8,3.8-12.6,6.7-18.1,8.4c-3.4,0.8-8.4,1.3-10.5-0.8c-3.8-3.4-7.6-4.6-12.6-5.5c5.5-2.1,10.5-3,14.3,2.1
			c1.7,2.1,4.2,3.8,5.9,1.3C1418.9,2027.2,1425.6,2029.7,1434.9,2028.9z"/>
		<path d="M1462.7,1976.6c-0.8,0.8-1.3,1.3-1.7,1.7c-5.1,3-9.3,6.3-7.6,13.1c0,0.4-2.1,1.7-3.4,1.7c-0.8,0-2.1-0.4-2.5-1.3
			c-2.1-6.3,5.1-16.4,11.4-16.4C1460.2,1975.4,1461.4,1976.2,1462.7,1976.6z"/>
		<path d="M1466.1,1975.4c1.7,0,3.8,0,5.5,0c3.4,0.4,7.2-1.7,9.7,2.1c2.1,3.4,3.8,7.6,5.5,11.4c0,0-1.3,1.3-2.1,1.7
			c-0.4,0-1.3,0-1.3,0c-0.8-0.4-1.7-0.8-2.1-1.7c-1.7-3.4-2.1-7.6-4.6-9.7c-2.1-1.7-6.3-0.8-9.7-0.8
			C1466.1,1977,1466.1,1976.2,1466.1,1975.4z"/>
		<path d="M1464,1994.7c-1.7-3.8-3.8-6.3-4.2-8.9c0-1.3,2.5-3,3.8-4.2c1.3,2.5,3.4,5.1,4.2,7.6
			C1468.2,1990.5,1465.6,1992.2,1464,1994.7z"/>
		<path d="M1393.6,1991.4c-1.7,2.1-3.4,3.4-4.6,4.6c-1.7-2.1-3-4.6-4.2-6.7c0,0,2.1-2.1,2.5-2.1
			C1389.8,1988.4,1391.5,1990.1,1393.6,1991.4z"/>
		<path d="M1403.3,2092.5c4.6,0,9.3,0,14.3,0c-0.4,1.3-0.8,2.5-1.3,2.5c-4.2,0-8.9,0-13.1,0
			C1403.3,2094.2,1403.3,2093.4,1403.3,2092.5z"/>
		<path d="M1559.6,1977.9c-0.4-0.4-0.8-0.8-1.3-1.3c0.8-0.4,1.3-0.8,2.1-0.8c0.4,0,0.8,0.4,0.8,0.8
			C1560.9,1977,1560.5,1977.5,1559.6,1977.9z"/>
	</g>
</g>
<g id="i_dont_know_you">
	<path d="M601.2,3608.2c1.7,0,2.5,1.3,2.5,2.1c0,1.3-0.8,2.5-2.5,2.5c-12.6-0.4-23.2-0.8-35.8-0.8c-15.6,0-32.9,0.8-37.5,0.8
		c-1.7,0-2.5-1.3-2.5-2.5c0-0.8,0.8-2.1,2.5-2.1h24.4V3438h-24.4c-1.7,0-2.5-1.3-2.5-2.5s0.8-2.1,2.5-2.1
		c12.6,0.4,23.2,0.8,35.8,0.8c15.6,0,32.9-0.8,37.1-0.8c1.7,0,2.5,0.8,2.5,2.1s-0.8,2.5-2.5,2.5h-23.6v170.3H601.2z"/>
	<path d="M713.3,3438h-24.4c-1.7,0-2.5-1.3-2.5-2.5s0.4-2.1,3-2.1c2.1,0,35,0.8,43,0.8c7.6,0,28.7-0.8,37.1-0.8
		c21.1,0,96.9,4.2,96.9,88.9c0,89.8-84.7,90.2-106.6,90.2c-15.2,0-24-0.4-33.7-0.4c-16.4,0-32.9,0.8-37.5,0.8
		c-1.7,0-2.5-1.3-2.5-2.5c0-0.8,0.8-2.1,2.5-2.1h24.4V3438H713.3z M738.6,3607.4c36.7,0,102,0,102-84.7c0-84.7-64.5-84.7-102-84.7
		V3607.4z"/>
	<path d="M892.4,3521.8c0-48.9,36.7-93.2,87.7-93.2c51,0,88.1,44.7,88.1,93.2c0,48.9-37.1,93.2-88.1,93.2
		C929.1,3615.4,892.4,3570.7,892.4,3521.8z M1042,3521.8c0-44.7-15.2-88.5-62-88.5c-46.4,0-62,43.8-62,88.5s15.2,88.5,62,88.5
		C1026.9,3610.8,1042,3566.5,1042,3521.8z"/>
	<path d="M1117.5,3452.3v130.7c0,22.3,7.2,24.9,21.1,24.9h4.2c1.7,0,2.5,1.3,2.5,2.1c0,1.3-0.8,2.5-2.5,2.5
		c-13.1-0.4-14.8-0.8-27-0.8c-14.8,0-21.5,0.8-28.2,0.8c-1.7,0-2.5-1.3-2.5-2.5c0-0.8,0.8-2.1,2.5-2.1h4.2c11.4,0,21.1-3,21.1-18.5
		V3446c-4.2-7.6-7.2-8.4-10.1-8.4h-13.5c-1.7,0-2.5-1.3-2.5-2.5c0-0.8,0.4-2.1,2.5-2.1c8.9,0.4,16.4,0.8,21.9,0.8
		c9.3,0,19-0.8,24.4-0.8l91.5,138.7v-115.5c0-16-9.7-18.5-21.1-18.5h-4.2c-1.7,0-2.5-1.3-2.5-2.5c0-1.3,0.8-2.1,2.5-2.1
		c13.1,0.4,14.8,0.8,27,0.8c14.8,0,21.5-0.8,28.2-0.8c1.7,0,2.5,0.8,2.5,2.1c0,1.7-0.8,2.5-2.5,2.5h-4.2c-13.9,0-21.1,2.5-21.1,24.9
		v150.5c0,3-0.4,4.2-2.5,4.2c-1.7,0-3.4-0.8-5.9-4.6L1117.5,3452.3z"/>
	<path d="M1282.3,3491.1c0-2.5,3-2.5,5.9-3.4c19-4.2,26.1-20.7,26.1-27.4c0-3.4-1.7-7.2-3.4-7.2c-3.4,0-4.2,8.9-14.3,8.9
		c-8,0-13.9-5.1-13.9-13.9c0-9.7,7.6-14.3,15.6-14.3c10.1,0,21.1,7.6,21.1,23.6c0,23.6-25.3,35.8-33.7,35.8
		C1284,3493.6,1282.3,3493.2,1282.3,3491.1z"/>
	<path d="M1447.1,3608.2c1.7,0,2.5,1.3,2.5,2.1c0,1.3-0.8,2.5-2.5,2.5c-12.6-0.4-23.2-0.8-35.8-0.8c-15.6,0-32.9,0.8-37.1,0.8
		c-1.7,0-2.5-1.3-2.5-2.5c0-0.8,0.8-2.1,2.5-2.1h24.4V3438h-11.4c-41.7,0-43.8,21.1-46.4,41.7c-0.4,3.4-0.8,3.8-2.5,3.8
		c-2.1,0-2.1-1.7-2.1-3.8l3-46.4c11.8,0.4,19,0.8,38.8,0.8h66.2c20.2,0,27.4-0.4,38.8-0.8l3,46.4c0,2.5,0,3.8-2.1,3.8
		c-2.1,0-2.5-1.3-2.5-3.8c-2.1-20.2-4.6-41.7-46.4-41.7h-11.8v170.3H1447.1z"/>
	<path d="M1737.5,3608.2c1.7,0,2.5,1.3,2.5,2.1c0,1.3-0.8,2.5-2.5,2.5c-14.8-0.4-24-0.8-40.9-0.8c-21.1,0-35.4,0.8-37.9,0.8
		c-3.4,0-3.8-1.3-3.8-2.1c0-1.3,0.8-2.5,3-2.5h12.2c7.2,0,12.6-0.4,12.6-4.6c0-2.5-1.7-4.6-3.4-6.7l-56.1-72.1l-5.9,8v75.4h23.6
		c1.7,0,3,1.3,3,2.1c0,1.3-0.8,2.5-3,2.5c-12.6-0.4-23.2-0.8-35.8-0.8c-15.6,0-32.9,0.8-37.1,0.8c-1.7,0-3-1.3-3-2.5
		c0-0.8,0.8-2.1,3-2.1h24.4V3438h-24.4c-1.7,0-3-1.3-3-2.5s0.8-2.1,3-2.1c12.6,0.4,23.2,0.8,35.8,0.8c15.6,0,32.9-0.8,37.1-0.8
		c1.7,0,3,0.8,3,2.1s-0.8,2.5-3,2.5h-23.6v87.2l48.1-63.2c5.5-7.2,8.4-11.8,8.4-17.3c0-4.6-2.1-6.7-8-6.7h-6.3c-1.7,0-3-1.3-3-2.5
		c0-1.3,0.8-2.1,3-2.1c12.6,0.4,14.3,0.8,26.6,0.8c15.2,0,27.4-0.8,32.9-0.8c1.7,0,3,0.8,3,2.1c0,1.3-0.8,2.5-3,2.5h-4.2
		c-23.6,0-28.7,5.9-39.2,19.8l-35.4,45.9l69.1,89.4c8.4,11,12.2,15.2,18.1,15.2L1737.5,3608.2L1737.5,3608.2z"/>
	<path d="M1776.7,3452.3v130.7c0,22.3,7.2,24.9,21.1,24.9h4.2c1.7,0,2.5,1.3,2.5,2.1c0,1.3-0.8,2.5-2.5,2.5
		c-13.1-0.4-14.8-0.8-27-0.8c-14.8,0-21.5,0.8-28.2,0.8c-1.7,0-2.5-1.3-2.5-2.5c0-0.8,0.8-2.1,2.5-2.1h4.2c11.4,0,21.1-3,21.1-18.5
		V3446c-4.2-7.6-7.2-8.4-10.1-8.4h-13.5c-1.7,0-2.5-1.3-2.5-2.5c0-0.8,0.4-2.1,2.5-2.1c8.9,0.4,16.4,0.8,21.9,0.8
		c9.3,0,19-0.8,24.4-0.8l91.5,138.7v-115.5c0-16-9.7-18.5-21.1-18.5h-4.2c-1.7,0-2.5-1.3-2.5-2.5c0-1.3,0.8-2.1,2.5-2.1
		c13.1,0.4,14.8,0.8,27,0.8c14.8,0,21.5-0.8,28.2-0.8c1.7,0,2.5,0.8,2.5,2.1c0,1.7-0.8,2.5-2.5,2.5h-4.2c-13.9,0-21.1,2.5-21.1,24.9
		v150.5c0,3-0.4,4.2-2.5,4.2c-1.7,0-3.4-0.8-5.9-4.6L1776.7,3452.3z"/>
	<path d="M1933.1,3521.8c0-48.9,36.7-93.2,87.7-93.2c51,0,88.1,44.7,88.1,93.2c0,48.9-37.1,93.2-88.1,93.2
		C1970.2,3615.4,1933.1,3570.7,1933.1,3521.8z M2082.7,3521.8c0-44.7-15.2-88.5-62-88.5s-62,43.8-62,88.5s15.2,88.5,62,88.5
		C2067.5,3610.3,2082.7,3566.5,2082.7,3521.8z"/>
	<path d="M2234,3494.4l-34.1,114.2c-2.1,7.2-3.4,8.4-4.6,8.4c-1.7,0-2.5-1.3-3.8-4.6l-52.7-159.7c-4.6-13.1-7.6-15.2-11.4-15.2
		h-15.2c-1.7,0-2.5-1.3-2.5-2.5c0-1.3,0.8-2.1,2.5-2.1c14.3,0.4,21.5,0.8,37.9,0.8c20.7,0,28.7-0.8,32.9-0.8c1.7,0,3,0.8,3,2.1
		c0,1.3-0.8,2.5-3,2.5h-9.7c-7.2,0-9.7,0.4-9.7,4.6c0,2.1,0.8,3.8,1.7,6.3l39.6,126.9l26.1-88.9l-11.4-34.1
		c-4.6-14.3-7.2-15.2-11.4-15.2h-8.9c-1.7,0-3-1.3-3-2.5s0.8-2.1,3-2.1c14.3,0.4,15.2,0.8,32,0.8c20.7,0,32.5-0.8,35-0.8
		c3,0,3.4,0.8,3.4,2.1c0,1.7-0.8,3-3,3h-12.2c-7.2,0-10.5,0.4-10.5,5.1c0,1.7,0.8,3.8,1.7,6.3l40,126.4l29.9-106.2
		c3-8.9,3.8-16,3.8-20.7c0-7.2-3.4-10.5-12.2-10.5h-13.5c-1.7,0-3-1.3-3-2.5s0.8-2.1,3-2.1c12.6,0.4,15.6,0.8,27.4,0.8
		c14.8,0,20.2-0.8,27-0.8c1.7,0,3,0.8,3,2.1s-0.8,2.5-3,2.5h-3.4c-6.3,0-15.6,0-21.1,19.8l-43,151.3c-1.7,6.3-3,8.4-4.6,8.4
		s-2.5-1.7-3.4-4.6L2234,3494.4z"/>
	<path d="M2521.9,3608.2c1.7,0,3,1.3,3,2.1c0,1.3-0.8,2.5-3,2.5c-12.6-0.4-23.2-0.8-35.8-0.8c-15.6,0-32.9,0.8-37.1,0.8
		c-1.7,0-3-1.3-3-2.5c0-0.8,0.8-2.1,3-2.1h24.4v-81.8l-34.6-73.3c-6.7-14.3-11-15.2-15.6-15.2h-11.8c-1.7,0-3-1.3-3-2.5
		c0-1.3,0.8-2.1,3-2.1c14.3,0.4,21.1,0.8,37.9,0.8c20.2,0,27.8-0.8,32.5-0.8c1.7,0,2.5,0.8,2.5,2.1c0,1.3-0.8,2.5-2.5,2.5h-9.3
		c-5.9,0-11.4,0-11.4,4.6c0,1.7,0.8,3.8,2.1,6.3l32.9,70.4l24.4-55.2c2.1-5.5,4.2-11,4.2-16.9c0-8-3.4-9.7-12.2-9.7h-5.1
		c-1.7,0-2.5-1.3-2.5-2.5s0.8-2.1,2.5-2.1c13.1,0.4,12.6,0.8,24.4,0.8c14.8,0,21.5-0.8,27.8-0.8c1.7,0,3,0.8,3,2.1s-0.8,2.5-3,2.5
		h-4.2c-11.4,0-19.4,0.8-27.4,19.8l-30.8,68.7v81.8h24.4V3608.2z"/>
	<path d="M2559.9,3521.8c0-48.9,36.7-93.2,87.7-93.2c51,0,88.1,44.7,88.1,93.2c0,48.9-37.1,93.2-88.1,93.2
		C2596.9,3615.4,2559.9,3570.7,2559.9,3521.8z M2709.9,3521.8c0-44.7-15.2-88.5-62-88.5c-46.8,0-62,43.8-62,88.5s15.2,88.5,62,88.5
		C2694.7,3610.3,2709.9,3566.5,2709.9,3521.8z"/>
	<path d="M2899.2,3456.5c0-16-9.7-18.5-21.1-18.5h-4.2c-1.7,0-2.5-1.3-2.5-2.5s0.8-2.1,2.5-2.1c13.1,0.4,14.3,0.8,27.4,0.8
		c13.1,0,14.3-0.4,27.8-0.8c1.7,0,2.5,0.8,2.5,2.1c0,1.7-0.8,2.5-2.5,2.5h-4.2c-13.9,0-21.1,2.5-21.1,24.9v88.9
		c0,39.2-9.3,63.6-53.5,63.6c-60.3,0-73.8-19.8-73.8-68.7V3438h-24.4c-1.7,0-3-1.3-3-2.5c0-1.3,0.8-2.1,3-2.1
		c13.1,0.4,23.6,0.8,36.7,0.8s23.6-0.4,36.7-0.8c1.7,0,3,0.8,3,2.1c0,1.3-0.8,2.5-3,2.5h-24v112.5c0,37.5,0.8,59.9,48.9,59.9
		c39.2,0,48.9-19.4,48.9-57.7L2899.2,3456.5L2899.2,3456.5z"/>
</g>
<g id="thats_my_purse">
	<path d="M739,1741.8c1.7,0,2.5,1.3,2.5,2.1c0,1.3-0.8,2.5-2.5,2.5c-12.6-0.4-23.2-0.8-35.8-0.8c-15.6,0-32.9,0.8-37.1,0.8
		c-1.7,0-2.5-1.3-2.5-2.5c0-0.8,0.8-2.1,2.5-2.1h24.4v-170.3h-11.4c-41.7,0-43.8,21.1-46.4,41.7c-0.4,3.4-0.8,4.2-2.5,4.2
		c-2.1,0-2.1-1.7-2.1-4.2l3-46.4c11.8,0.4,19,0.8,38.8,0.8H736c20.2,0,27.4-0.4,38.8-0.8l3,46.4c0,2.5,0,4.2-2.1,4.2
		c-2.1,0-2.5-1.3-2.5-4.2c-2.1-20.2-4.6-41.7-46.4-41.7H715v170.3H739z"/>
	<path d="M972.5,1741.8c1.7,0,3,1.3,3,2.1c0,1.3-0.8,2.5-3,2.5c-12.6-0.4-23.2-0.8-35.8-0.8c-15.6,0-32.9,0.8-37.1,0.8
		c-1.7,0-3-1.3-3-2.5c0-0.8,0.8-2.1,3-2.1H924v-82.6h-80.5v82.6h23.6c1.7,0,3,1.3,3,2.1c0,1.3-0.8,2.5-3,2.5
		c-12.6-0.4-23.2-0.8-35.8-0.8c-15.6,0-32.9,0.8-37.1,0.8c-1.7,0-3-1.3-3-2.5c0-0.8,0.8-2.1,3-2.1h24.4v-170.3h-24.4
		c-1.7,0-3-1.3-3-2.5s0.8-2.1,3-2.1c12.6,0.4,23.2,0.8,35.8,0.8c15.6,0,32.9-0.8,37.1-0.8c1.7,0,3,0.8,3,2.1s-0.8,2.5-3,2.5h-23.6
		v83H924v-83h-24.4c-1.7,0-3-1.3-3-2.5s0.8-2.1,3-2.1c12.6,0.4,23.2,0.8,35.8,0.8c15.6,0,32.9-0.8,37.1-0.8c1.7,0,3,0.8,3,2.1
		s-0.8,2.5-3,2.5h-23.6v170.3H972.5z"/>
	<path d="M1156.7,1741.8c1.7,0,2.5,1.3,2.5,2.1c0,1.3-0.8,2.5-2.5,2.5c-14.8-0.4-21.1-0.8-37.9-0.8c-21.1,0-35.4,0.8-37.9,0.8
		c-3.4,0-3.4-1.3-3.4-2.1c0-1.3,0.8-2.5,2.5-2.5h15.2c7.2,0,10.5-0.4,10.5-5.1c0-2.1-0.4-3.8-1.7-6.3l-18.1-50.2h-55.2l-10.1,29.9
		c-3,8.9-4.6,15.6-4.6,21.1c0,7.2,3.8,10.5,12.6,10.5h9.3c1.7,0,2.5,1.3,2.5,2.1c0,1.3-0.8,2.5-2.5,2.5c-12.6-0.4-16.9-0.8-29.1-0.8
		c-15.2,0-21.5,0.8-28.2,0.8c-1.7,0-3-1.3-3-2.5c0-0.8,0.8-2.1,3-2.1h4.2c14.8,0,22.8-5.5,27.4-19.8l51-151.3c1.7-5.1,3-8.4,5.1-8.4
		c1.3,0,2.1,0.4,3.4,4.6l58.6,159.7c4.6,13.1,7.2,14.8,11.4,15.2H1156.7z M1056.8,1601.1l-24.4,74.6h51.8L1056.8,1601.1z"/>
	<path d="M1259.1,1741.8c1.7,0,2.5,1.3,2.5,2.1c0,1.3-0.8,2.5-2.5,2.5c-12.6-0.4-23.2-0.8-35.8-0.8c-15.6,0-32.9,0.8-37.1,0.8
		c-1.7,0-2.5-1.3-2.5-2.5c0-0.8,0.8-2.1,2.5-2.1h24.4v-170.3h-11.4c-41.7,0-43.8,21.1-46.4,41.7c-0.4,3.4-0.8,4.2-2.5,4.2
		c-2.1,0-2.1-1.7-2.1-4.2l3-46.4c11.8,0.4,19,0.8,38.8,0.8h66.2c20.2,0,27.4-0.4,38.8-0.8l3,46.4c0,2.5,0,4.2-2.1,4.2
		c-2.1,0-2.5-1.3-2.5-4.2c-2.1-20.2-4.6-41.7-46.4-41.7h-11v170.3H1259.1z"/>
	<path d="M1319.8,1624.7c0-2.5,3-2.5,5.9-3.4c19-4.2,26.1-20.7,26.1-27.4c0-3.4-1.7-7.2-3.4-7.2c-3.4,0-4.2,8.9-14.3,8.9
		c-8,0-13.9-5.1-13.9-13.9c0-9.7,7.6-14.3,15.6-14.3c10.1,0,21.1,7.6,21.1,23.6c0,23.6-25.3,35.8-33.7,35.8
		C1321.1,1627.2,1319.8,1626.8,1319.8,1624.7z"/>
	<path d="M1388.5,1741c0,3-0.8,4.2-3,4.2c-1.7,0-2.1-1.3-2.1-4.2v-51.4c0-2.1,0.4-3.8,2.1-3.8c1.7,0,3,0,3,3.8
		c0,31.6,30.3,54.8,54,54.8c25.7,0,43.8-14.3,43.8-41.7c0-58.2-101.2-24.9-101.2-92.3c0-31.6,23.6-47.6,49.7-47.6
		c12.6,0,24.9,3.8,37.1,11.8c5.9,3.4,6.3,3.8,7.6,3.8c1.7,0,1.7-1.3,1.7-3.4v-7.2c0-3,0.8-3.8,3-3.8c2.1,0,3,1.3,3,3.8
		c0.4,30.8,4.6,40.5,4.6,43c0,0.8,0,2.1-1.7,2.1c-1.3,0-3-0.4-3.8-4.2c-5.1-26.1-29.1-40.9-51.8-40.9c-19.4,0-39.6,11.8-39.6,32.5
		c0,48.5,105.8,15.6,105.8,91.9c0,20.7-15.6,56.9-57.7,56.9c-25.7,0-40.5-19.8-48.9-19.8c-3,0-4.6,5.1-4.6,9.7v2.1H1388.5z"/>
	<path d="M1782.2,1741.8c1.7,0,3,1.3,3,2.1c0,1.3-0.8,2.5-3,2.5c-12.6-0.4-23.2-0.8-35.8-0.8c-15.6,0-32.9,0.8-37.1,0.8
		c-1.7,0-3-1.3-3-2.5c0-0.8,0.8-2.1,3-2.1h24.4v-148.4l-50.2,149.2c-1.7,5.1-3,8.4-5.1,8.4c-1.3,0-2.1-0.8-3.4-4.6l-56.5-154.3
		v124.3c0,22.3,7.2,24.9,20.7,24.9h4.2c1.7,0,3,1.3,3,2.1c0,1.3-0.8,2.5-3,2.5c-12.6-0.4-14.8-0.8-27-0.8c-14.8,0-21.5,0.8-28.2,0.8
		c-1.7,0-3-1.3-3-2.5c0-0.8,0.8-2.1,3-2.1h4.2c10.5,0,21.1-3,21.1-18.5v-143.3c-3.8-8-5.5-8.4-8.9-8.4H1590c-1.7,0-3-1.3-3-2.5
		c0-0.8,0.4-2.1,3-2.1c8.9,0.4,16.4,0.8,21.9,0.8c9.3,0,19-0.8,24.9-0.8l52.7,145l48.5-145c0.8,0,10.1,0.8,14.3,0.8
		c4.2,0,22.8-0.8,27-0.8c1.7,0,2.5,0.8,2.5,2.5c0,0.8-0.4,2.1-2.5,2.1H1759v170.3h23.2V1741.8z"/>
	<path d="M1901.9,1741.8c1.7,0,3,1.3,3,2.1c0,1.3-0.8,2.5-3,2.5c-12.6-0.4-23.2-0.8-35.8-0.8c-15.6,0-32.9,0.8-37.1,0.8
		c-1.7,0-3-1.3-3-2.5c0-0.8,0.8-2.1,3-2.1h24.4v-81.8l-34.6-73.3c-6.7-14.3-11-15.2-15.6-15.2h-11.8c-1.7,0-3-1.3-3-2.5
		s0.8-2.1,3-2.1c14.3,0.4,21.1,0.8,37.9,0.8c20.2,0,27.8-0.8,32.5-0.8c1.7,0,2.5,0.8,2.5,2.1s-0.8,2.5-2.5,2.5h-8.9
		c-5.9,0-11.4,0-11.4,4.6c0,1.7,0.8,3.8,2.1,6.3l32.9,70.4l24.4-55.2c2.1-5.5,4.2-11,4.2-16.9c0-8-3.4-9.7-12.2-9.7h-5.1
		c-1.7,0-2.5-1.3-2.5-2.5c0-1.3,0.8-2.1,2.5-2.1c13.1,0.4,12.6,0.8,24.4,0.8c14.8,0,21.5-0.8,27.8-0.8c1.7,0,3,0.8,3,2.1
		c0,1.3-0.8,2.5-3,2.5h-4.2c-11.4,0-19.4,0.8-27.4,19.8l-30.3,69.1v81.8C1878.3,1741.8,1901.9,1741.8,1901.9,1741.8z"/>
	<path d="M2086.9,1741.8c1.7,0,2.5,1.3,2.5,2.1c0,1.3-0.8,2.5-2.5,2.5c-12.6-0.4-23.2-0.8-35.8-0.8c-15.2,0-32.9,0.8-37.1,0.8
		c-1.7,0-2.5-1.3-2.5-2.5c0-0.8,0.8-2.1,2.5-2.1h24.4v-170.3H2014c-1.7,0-2.5-1.3-2.5-2.5s0.8-2.1,3.4-2.1c2.1,0,34.6,0.8,43,0.8
		c7.2,0,15.6-0.4,23.6-0.4c27,0,68.7,5.1,68.7,44.7c0,49.3-64.5,48.5-86.8,48.9v81.3h23.6V1741.8z M2065,1655.9
		c24.4,0,59.4-0.4,59.4-41.7c0-41.7-35.8-42.6-60.7-42.6v83.9h1.3V1655.9z"/>
	<path d="M2310.3,1590.1c0-16-9.7-18.5-21.1-18.5h-4.2c-1.7,0-2.5-1.3-2.5-2.5s0.8-2.1,2.5-2.1c13.1,0.4,14.3,0.8,27.4,0.8
		s14.3-0.4,27.8-0.8c1.7,0,2.5,0.8,2.5,2.1c0,1.7-0.8,2.5-2.5,2.5h-4.2c-13.9,0-21.1,2.5-21.1,24.9v88.9c0,39.2-9.3,63.6-53.5,63.6
		c-60.3,0-73.8-20.2-73.8-68.7v-108.7h-24.4c-1.7,0-3-1.3-3-2.5s0.8-2.1,3-2.1c13.1,0.4,23.6,0.8,36.7,0.8c13.1,0,23.6-0.4,36.7-0.8
		c1.7,0,3,0.8,3,2.1s-0.8,2.5-3,2.5H2213v112.5c0,37.5,0.8,59.9,48.9,59.9c39.2,0,48.9-19.4,48.9-57.7v-96.1H2310.3z"/>
	<path d="M2431.3,1741.8c1.7,0,2.5,1.3,2.5,2.5c0,1.3-0.8,2.1-2.5,2.1c-12.6-0.4-23.2-0.8-35.8-0.8c-15.2,0-33.7,0.8-36.2,0.8
		c-3,0-3.4-0.8-3.4-2.1s0.8-2.5,2.5-2.5h24.4v-170.3h-24.4c-1.7,0-2.5-1.3-2.5-2.5s0.4-2.1,3-2.1c2.1,0,35,0.8,43.4,0.8
		c7.6,0,14.8-0.8,24.4-0.8c27.8,0,64.9,5.5,64.9,43c0,27.4-20.7,41.3-43.8,44.7c41.7,8,42.1,33.7,42.1,60.3
		c0,13.1,1.3,27.8,14.8,27.8c5.1,0,9.7-2.1,11.4-3c0.8-0.4,1.7-0.8,2.1-0.8c1.7,0,1.7,0.8,1.7,1.7c0,0.8-0.4,1.7-1.3,2.1
		c-0.8,0.8-5.9,4.6-18.5,4.6c-32.9,0-35.4-22.3-35.8-41.7c-0.8-31.2-1.7-49.3-43.8-49.3h-12.6v84.7h23.6V1741.8z M2417,1652.5
		c20.2,0,48.5-2.1,48.5-39.2c0-37.9-29.1-41.7-57.7-41.7v80.9H2417z"/>
	<path d="M2542.2,1741c0,3-0.8,4.2-3,4.2c-1.7,0-2.1-1.3-2.1-4.2v-51.4c0-2.1,0.4-3.8,2.1-3.8c1.7,0,3,0,3,3.8
		c0,31.6,30.3,54.8,54,54.8c25.7,0,43.8-14.3,43.8-41.7c0-58.2-101.2-24.9-101.2-92.3c0-31.6,23.6-47.6,49.7-47.6
		c12.6,0,24.9,3.8,37.1,11.8c5.9,3.4,6.3,3.8,7.6,3.8c1.7,0,1.7-1.3,1.7-3.4v-7.2c0-3,0.8-3.8,3-3.8c2.1,0,3,1.3,3,3.8
		c0.4,30.8,4.6,40.5,4.6,43c0,0.8,0,2.1-1.7,2.1c-1.3,0-3-0.4-3.8-4.2c-5.1-26.1-29.1-40.9-51.8-40.9c-19.4,0-39.6,11.8-39.6,32.5
		c0,48.5,105.4,15.6,105.4,92.3c0,20.7-15.6,56.9-57.7,56.9c-25.7,0-40.5-19.8-48.9-19.8c-3,0-4.6,5.1-4.6,9.7v1.7H2542.2z"/>
	<path d="M2766.4,1741.8c37.1,0,42.1-20.2,45.1-41.7c0.4-2.1,0.4-4.2,2.5-4.2c2.1,0,2.1,1.7,2.1,3.8c-0.4,8.9-2.5,22.3-2.5,38.4
		c0,3,0,5.5,0.4,8c-2.1-0.4-19-0.8-99.9-0.8c-14.3,0-32.5,0.8-36.7,0.8c-1.7,0-3-1.3-3-2.5c0-0.8,0.8-2.1,3-2.1h24.4v-169.9h-24.4
		c-1.7,0-3-1.3-3-2.5s0.8-2.1,3-2.1c13.1,0.4,22.8,0.8,36.7,0.8c82.2,0,93.2,0,99.9-0.8c0,4.6,0.4,15.2,0.8,20.2
		c1.3,15.6,1.3,21.1,1.7,25.3c0,2.1,0,3.8-2.1,3.8s-2.1-1.3-2.5-3.8c-1.7-20.7-3.4-40.9-47.6-40.9h-37.1v72.5h11.4
		c30.3,0,29.9-14.8,29.9-28.2c0-2.5,0.8-4.2,3-4.2s2.1,1.7,2.1,3.8c0,11-1.3,18.1-1.3,31.2s1.3,24.9,1.3,34.1c0,2.1,0,4.2-2.1,4.2
		c-2.5,0-2.5-3-2.5-4.2c-1.7-22.3-3-32-30.3-32h-11.4v92.7h39.2V1741.8z"/>
</g>
</svg>
